<svg xmlns="http://www.w3.org/2000/svg" viewBox="0 0 774.86 393.74"><defs><style>.cls-1{fill:#215c2e;}.cls-2,.cls-3,.cls-4,.cls-5,.cls-6{fill:#fff;}.cls-2{opacity:0.08;}.cls-3{opacity:0.14;}.cls-4{opacity:0.2;}.cls-5{opacity:0.24;}.cls-6{opacity:0.28;}</style></defs><title>greenFlakesBg</title><g id="Layer_4" data-name="Layer 4"><rect class="cls-1" width="774.86" height="393.74"/></g><g id="Layer_2_copy_2" data-name="Layer 2 copy 2"><path class="cls-2" d="M478.52,388.63l-6.19-3.53,1.78-1a5,5,0,1,0-5.09-8.7l-6.8,4-5.23-3,11.09-6.49a5,5,0,1,0-5.09-8.7l-16.11,9.42-25-14.24,0-3.36,8.05,0,4,6.9a5,5,0,0,0,8.7-5.09l-1.1-1.87,6.28,0a5,5,0,1,0-.06-10.08l-6.31,0,1-1.82a5,5,0,0,0-8.75-5l-3.92,6.87-8,0,0-3.36L446.64,325l16.21,9.24a5,5,0,0,0,5-8.75l-11.16-6.36,5.19-3,6.85,3.9a5,5,0,1,0,5-8.75l-1.79-1,6.15-3.6A5,5,0,0,0,473,298l-6.15,3.6v-2.06a5,5,0,0,0-10.08.06l0,7.88-5.19,3-.07-12.85a5,5,0,1,0-10.08.06l.1,18.67-24.77,14.49-2.94-1.68,4-6.95,8,0a5,5,0,1,0-.06-10.08h-2.17l3.11-5.46a5,5,0,0,0-8.75-5l-3.13,5.49-1.06-1.81a5,5,0,0,0-8.7,5.09l4,6.83-3.95,6.92-2.95-1.68L402,293.8l16.11-9.42a5,5,0,0,0-5.09-8.7l-11.09,6.49,0-6,6.8-4a5,5,0,1,0-5.09-8.7l-1.78,1,0-7.13a5,5,0,0,0-10.08.06l0,7.13-1.79-1a5,5,0,1,0-5,8.75l6.85,3.9,0,6-11.16-6.36a5,5,0,0,0-5,8.75l16.21,9.24.16,28.57-3,1.74-4-6.79,3.92-6.87a5,5,0,1,0-8.75-5l-1,1.82L376,301.88a5,5,0,0,0-8.7,5.09l3.17,5.42h-2.17a5,5,0,0,0,.06,10.08l8,0,4,6.81-3,1.74-24.82-14.15-.1-18.67a5,5,0,0,0-10.08.06l.07,12.85-5.23-3,0-7.88a5,5,0,1,0-10.08.06v2.06l-6.19-3.53a5,5,0,1,0-5,8.75l6.19,3.53-1.78,1a5,5,0,1,0,5.09,8.7l6.8-4,5.23,3-11.09,6.48a5,5,0,1,0,5.09,8.7l16.11-9.42,24.77,14.12,0,3.48-7.8,0-4-6.83a5,5,0,0,0-8.7,5.09l1.06,1.81-6.31,0a5,5,0,0,0,.06,10.08l6.28,0-1.07,1.89a5,5,0,1,0,8.75,5l4-6.94,7.83,0,0,3.48-24.61,14.39-16.22-9.24a5,5,0,0,0-5,8.75L337.8,377l-5.19,3-6.85-3.9a5,5,0,0,0-5,8.75l1.79,1-6.15,3.6a5,5,0,1,0,5.09,8.7l6.15-3.6v2.06a5,5,0,0,0,10.08-.06l0-7.88,5.19-3,.07,12.84a5,5,0,1,0,10.08-.06l-.1-18.66,24.66-14.42,3,1.71L376.68,374l-8,0a5,5,0,0,0,.06,10.08h2.17l-3.11,5.46a5,5,0,1,0,8.75,5l3.13-5.49,1.06,1.81a5,5,0,0,0,8.7-5.09l-4-6.83,3.89-6.82,3,1.71.16,28.57-16.11,9.42a5,5,0,1,0,5.09,8.7L392.56,414l0,6-6.8,4a5,5,0,1,0,5.09,8.7l1.78-1,0,7.13a5,5,0,1,0,10.08-.06l0-7.13,1.79,1a5,5,0,1,0,5-8.75l-6.85-3.9,0-6,11.16,6.36a5,5,0,0,0,5-8.75l-16.22-9.24-.16-28.69,2.93-1.71,4,6.88-3.92,6.87a5,5,0,1,0,8.75,5l1-1.82,3.19,5.45a5,5,0,0,0,8.7-5.09L424,383.8h2.17a5,5,0,1,0-.06-10.08l-8,0-4-6.9,2.92-1.71,24.93,14.21L442,398a5,5,0,0,0,10.08-.06L452,385.12l5.23,3,0,7.88a5,5,0,0,0,10.08-.06v-2.06l6.19,3.53a5,5,0,0,0,5-8.75Z" transform="translate(-9.81 -146.62)"/><path class="cls-3" d="M366.85,472.93l-4.19-.15.64-1a3,3,0,0,0-5-3.15l-2.46,3.93-3.54-.13,4-6.41a3,3,0,1,0-5-3.15l-5.83,9.31-16.91-.61-.93-1.75,4.19-2.22,4,2.49a3,3,0,1,0,3.15-5l-1.08-.68,3.27-1.73a3,3,0,1,0-2.78-5.24L335,459.15l0-1.23a3,3,0,1,0-5.93-.21l-.17,4.65-4.17,2.21-.93-1.74,9-14.35,11,.39a3,3,0,1,0,.21-5.93l-7.55-.27,1.88-3,4.63.17a3,3,0,0,0,.21-5.93l-1.21,0,2.23-3.56a3,3,0,0,0-5-3.15L337,430.73l-.57-1.07a3,3,0,1,0-5.24,2.78l2.17,4.1-1.88,3-3.54-6.68a3,3,0,0,0-5.24,2.78l5.15,9.7-9,14.31-2-.07.17-4.7,4.15-2.2a3,3,0,0,0-2.78-5.24l-1.13.6.13-3.7a3,3,0,0,0-5.93-.21l-.13,3.71-1-.65a3,3,0,0,0-3.15,5l3.94,2.47-.17,4.69-2-.07-7.91-14.92,5.83-9.31a3,3,0,0,0-5-3.15l-4,6.41-1.66-3.13,2.46-3.93a3,3,0,0,0-5-3.15l-.64,1-2-3.71a3,3,0,0,0-5.24,2.78l2,3.71-1.21,0a3,3,0,1,0-.21,5.93l4.63.17,1.66,3.13-7.55-.27a3,3,0,1,0-.21,5.93l11,.39L303.7,462l-1.08,1.72-3.92-2.45.17-4.65a3,3,0,1,0-5.93-.21l0,1.23-3.15-2a3,3,0,0,0-3.15,5l3.13,2-1.13.6a3,3,0,0,0,2.78,5.24l4.15-2.2,3.94,2.46-1.08,1.72-16.8-.6-5.15-9.7a3,3,0,1,0-5.24,2.78l3.54,6.68-3.54-.13-2.17-4.1a3,3,0,0,0-5.24,2.78l.57,1.07-4.19-.15A3,3,0,1,0,260,475l4.19.15-.64,1a3,3,0,1,0,5,3.15l2.46-3.93,3.54.13-4,6.41a3,3,0,1,0,5,3.15l5.83-9.31,16.76.6,1,1.81-4.05,2.15-3.94-2.47a3,3,0,0,0-3.15,5l1,.65-3.28,1.74a3,3,0,0,0,2.78,5.24l3.27-1.73,0,1.28a3,3,0,1,0,5.93.21l.17-4.7,4.07-2.16,1,1.81-8.9,14.22-11-.39a3,3,0,0,0-.21,5.93l7.56.27-1.88,3-4.63-.17a3,3,0,0,0-.21,5.93l1.21,0-2.23,3.56a3,3,0,1,0,5,3.15l2.23-3.56.57,1.07a3,3,0,1,0,5.24-2.78l-2.17-4.1,1.88-3,3.54,6.68a3,3,0,1,0,5.24-2.78l-5.15-9.7,8.92-14.25,2,.07-.17,4.64-4.15,2.2a3,3,0,1,0,2.78,5.24l1.13-.6-.13,3.7a3,3,0,1,0,5.93.21l.13-3.71,1,.65a3,3,0,0,0,3.15-5l-3.94-2.47.17-4.62,2,.07,7.88,14.85-5.83,9.31a3,3,0,1,0,5,3.15l4-6.41,1.66,3.13-2.46,3.93a3,3,0,1,0,5,3.15l.64-1,2,3.71a3,3,0,0,0,5.24-2.78l-2-3.71,1.21,0a3,3,0,0,0,.21-5.93l-4.63-.17-1.66-3.13,7.56.27a3,3,0,1,0,.21-5.93l-11-.39-7.91-14.92,1.06-1.69,4,2.49-.17,4.65a3,3,0,1,0,5.93.21l0-1.23,3.15,2a3,3,0,1,0,3.15-5l-3.13-2,1.13-.6a3,3,0,1,0-2.78-5.24l-4.15,2.2-4-2.5,1.06-1.69,16.88.6,5.15,9.7a3,3,0,1,0,5.24-2.78l-3.54-6.68,3.54.13,2.17,4.1a3,3,0,1,0,5.24-2.78l-.57-1.07,4.19.15a3,3,0,0,0,.21-5.93Z" transform="translate(-9.81 -146.62)"/><path class="cls-3" d="M279.54,361.52l-4-1.28.9-.82a3,3,0,1,0-4-4.39L269,358.16l-3.37-1.08,5.59-5.09a3,3,0,1,0-4-4.39L259.13,355,243,349.85l-.42-1.93,4.63-1,3.16,3.48a3,3,0,1,0,4.39-4l-.86-.94,3.61-.79a3,3,0,1,0-1.26-5.79l-3.63.79.37-1.17a3,3,0,1,0-5.65-1.8l-1.42,4.43-4.61,1-.42-1.93,12.52-11.39,10.46,3.34a3,3,0,0,0,1.8-5.65l-7.2-2.3,2.62-2.38,4.42,1.41a3,3,0,0,0,1.8-5.65l-1.16-.37,3.1-2.82a3,3,0,0,0-4-4.39l-3.1,2.82-.26-1.19a3,3,0,0,0-5.79,1.26l1,4.53-2.62,2.38-1.61-7.39a3,3,0,1,0-5.79,1.26l2.34,10.73-12.49,11.36-1.9-.61,1.43-4.48,4.59-1a3,3,0,1,0-1.26-5.79l-1.25.27,1.13-3.52a3,3,0,0,0-5.65-1.8l-1.13,3.54-.83-.91a3,3,0,0,0-4.39,4l3.13,3.44-1.43,4.47-1.9-.61-3.59-16.5,8.13-7.39a3,3,0,1,0-4-4.39l-5.59,5.09-.75-3.46,3.43-3.12a3,3,0,0,0-4-4.39l-.9.82-.89-4.1a3,3,0,1,0-5.79,1.26l.89,4.1-1.16-.37a3,3,0,1,0-1.8,5.65l4.42,1.41.75,3.46-7.2-2.3a3,3,0,1,0-1.8,5.65l10.46,3.34L221.69,334l-1.5,1.37-3.11-3.42,1.42-4.43a3,3,0,0,0-5.65-1.8l-.37,1.17-2.5-2.75a3,3,0,1,0-4.39,4l2.49,2.74-1.25.27a3,3,0,0,0,1.26,5.79l4.59-1,3.12,3.44-1.5,1.36-16-5.12-2.34-10.73a3,3,0,1,0-5.79,1.26l1.61,7.39-3.37-1.08-1-4.53a3,3,0,1,0-5.79,1.26l.26,1.19-4-1.28a3,3,0,0,0-1.8,5.65l4,1.28-.9.82a3,3,0,1,0,4,4.39l3.43-3.12,3.37,1.08-5.59,5.08a3,3,0,1,0,4,4.39l8.12-7.39,16,5.11.44,2-4.49,1-3.13-3.44a3,3,0,1,0-4.39,4l.83.91-3.63.79a3,3,0,1,0,1.26,5.79l3.61-.79-.39,1.22a3,3,0,1,0,5.65,1.8l1.43-4.48,4.5-1,.44,2-12.41,11.28L191.72,364a3,3,0,1,0-1.8,5.65l7.2,2.3-2.62,2.38L190.08,373a3,3,0,0,0-1.8,5.65l1.16.37-3.1,2.82a3,3,0,1,0,4,4.39l3.1-2.82.26,1.19a3,3,0,1,0,5.79-1.26l-1-4.53,2.62-2.38,1.61,7.38a3,3,0,0,0,5.79-1.26l-2.34-10.73,12.44-11.31,1.93.62-1.41,4.42-4.59,1a3,3,0,0,0,1.26,5.79L217,372l-1.13,3.52a3,3,0,1,0,5.65,1.8l1.13-3.54.83.91a3,3,0,1,0,4.39-4l-3.13-3.44,1.41-4.4,1.93.62,3.58,16.43-8.12,7.39a3,3,0,1,0,4,4.39l5.59-5.08.75,3.46-3.43,3.12a3,3,0,1,0,4,4.39l.9-.82.89,4.1a3,3,0,0,0,5.79-1.26l-.89-4.1,1.16.37a3,3,0,0,0,1.8-5.65l-4.42-1.41-.75-3.46,7.2,2.3A3,3,0,0,0,248,382l-10.46-3.34-3.59-16.5,1.48-1.34,3.15,3.47-1.42,4.43a3,3,0,1,0,5.65,1.8l.37-1.17,2.5,2.75a3,3,0,0,0,4.39-4l-2.49-2.74,1.25-.27a3,3,0,1,0-1.26-5.79l-4.59,1-3.17-3.48,1.47-1.34,16.09,5.14,2.34,10.73a3,3,0,1,0,5.79-1.26l-1.61-7.38,3.37,1.08,1,4.53a3,3,0,1,0,5.79-1.26l-.26-1.19,4,1.28a3,3,0,0,0,1.8-5.65Z" transform="translate(-9.81 -146.62)"/><path class="cls-3" d="M365.18,250.75l-3-3,1.17-.31a3,3,0,1,0-1.54-5.73l-4.48,1.2-2.5-2.5,7.3-2a3,3,0,0,0-1.54-5.73L350,235.6l-12-12,.51-1.91,4.58,1.23,1.22,4.54a3,3,0,1,0,5.73-1.54l-.33-1.23,3.57,1a3,3,0,1,0,1.53-5.73l-3.59-1,.87-.87a3,3,0,1,0-4.19-4.19l-3.29,3.29L340.1,216l.51-1.91L357,209.71l7.77,7.76a3,3,0,1,0,4.19-4.19l-5.34-5.34L367,207l3.28,3.28a3,3,0,0,0,4.19-4.19l-.86-.86,4.05-1.09a3,3,0,1,0-1.54-5.73l-4.05,1.09.31-1.17a3,3,0,0,0-5.73-1.53l-1.2,4.48-3.42.92,2-7.3a3,3,0,1,0-5.73-1.53L355.42,204l-16.31,4.37-1.41-1.41,3.33-3.33,4.54,1.22a3,3,0,0,0,1.53-5.73l-1.23-.33,2.61-2.62a3,3,0,0,0-4.19-4.19l-2.63,2.63-.32-1.19a3,3,0,0,0-5.73,1.54l1.21,4.5-3.32,3.32-1.41-1.41L336.47,185l10.61-2.84a3,3,0,0,0-1.54-5.73l-7.3,2,.92-3.42,4.48-1.2a3,3,0,1,0-1.54-5.73l-1.17.31,1.09-4.05a3,3,0,0,0-5.73-1.53l-1.09,4.05-.86-.86a3,3,0,1,0-4.19,4.19l3.28,3.28-.92,3.42-5.34-5.34a3,3,0,0,0-4.19,4.19l7.77,7.76-4.35,16.24-2,.53-1.2-4.47,3.29-3.29a3,3,0,0,0-4.19-4.19l-.87.87-1-3.59a3,3,0,0,0-5.73,1.54l1,3.57-1.23-.33A3,3,0,1,0,313,196.1l4.54,1.22,1.2,4.48-2,.53-11.89-11.89,2.84-10.61a3,3,0,1,0-5.73-1.53l-2,7.3-2.5-2.5,1.2-4.48a3,3,0,0,0-5.73-1.53l-.31,1.17-3-3a3,3,0,0,0-4.19,4.19l3,3-1.17.31a3,3,0,1,0,1.54,5.73l4.48-1.2,2.5,2.5-7.3,2a3,3,0,1,0,1.54,5.73l10.61-2.84,11.86,11.86-.53,2-4.43-1.19-1.21-4.5a3,3,0,0,0-5.73,1.54l.32,1.19-3.59-1a3,3,0,0,0-1.53,5.73l3.57,1-.9.9a3,3,0,1,0,4.19,4.19L306,213l4.45,1.19-.53,2-16.2,4.34L286,212.76a3,3,0,1,0-4.19,4.19l5.35,5.35-3.42.92-3.28-3.28a3,3,0,0,0-4.19,4.19l.86.86L273,226.07a3,3,0,1,0,1.54,5.73l4.05-1.09-.31,1.17a3,3,0,0,0,5.73,1.53l1.2-4.48,3.42-.92-2,7.3a3,3,0,0,0,5.73,1.53l2.84-10.61,16.24-4.35,1.44,1.44-3.28,3.28-4.54-1.22a3,3,0,0,0-1.53,5.73l1.23.33-2.61,2.62a3,3,0,1,0,4.19,4.19l2.63-2.63.32,1.19a3,3,0,0,0,5.73-1.54l-1.21-4.5,3.27-3.27,1.43,1.43-4.35,16.24L303.61,248a3,3,0,1,0,1.54,5.73l7.3-2-.92,3.42-4.48,1.2a3,3,0,1,0,1.54,5.73l1.17-.31-1.09,4.05a3,3,0,0,0,5.73,1.53l1.09-4.05.86.86a3,3,0,1,0,4.19-4.19l-3.28-3.28.92-3.42,5.35,5.35a3,3,0,1,0,4.19-4.19l-7.77-7.77,4.37-16.31,1.93-.52,1.21,4.53-3.29,3.29a3,3,0,1,0,4.19,4.19l.87-.87,1,3.59a3,3,0,0,0,5.73-1.54l-1-3.57,1.23.33a3,3,0,0,0,1.53-5.73l-4.54-1.22L332,228.37l1.92-.52,11.94,11.94L343,250.4a3,3,0,0,0,5.73,1.53l2-7.3,2.5,2.5-1.2,4.48a3,3,0,0,0,5.73,1.53L358,252l3,3a3,3,0,0,0,4.19-4.19Z" transform="translate(-9.81 -146.62)"/><path class="cls-4" d="M191.85,277.13l-2.06-2.06.81-.22a2.06,2.06,0,1,0-1.07-4l-3.11.83L184.68,270l5.08-1.36a2.06,2.06,0,1,0-1.07-4l-7.37,2L173,258.29l.36-1.33,3.18.85.85,3.16a2.06,2.06,0,1,0,4-1.07l-.23-.86,2.48.66a2.06,2.06,0,1,0,1.07-4l-2.49-.67.6-.6a2.06,2.06,0,1,0-2.91-2.91l-2.29,2.29-3.17-.85.35-1.33,11.36-3,5.4,5.4a2.06,2.06,0,1,0,2.91-2.91l-3.71-3.71,2.38-.64,2.28,2.28a2.06,2.06,0,0,0,2.91-2.91l-.6-.6,2.82-.75a2.06,2.06,0,1,0-1.07-4l-2.82.75.22-.81a2.06,2.06,0,0,0-4-1.07l-.83,3.11-2.38.64,1.36-5.08a2.06,2.06,0,1,0-4-1.07l-2,7.37-11.34,3-1-1,2.31-2.31,3.16.84a2.06,2.06,0,0,0,1.07-4l-.86-.23,1.82-1.82a2.06,2.06,0,0,0-2.91-2.91l-1.83,1.83-.22-.83a2.06,2.06,0,0,0-4,1.07l.84,3.12-2.3,2.3-1-1,3-11.33,7.37-2a2.06,2.06,0,1,0-1.07-4l-5.08,1.36.64-2.38,3.11-.83a2.06,2.06,0,0,0-1.07-4l-.81.22.75-2.82a2.06,2.06,0,1,0-4-1.07l-.75,2.82-.6-.6a2.06,2.06,0,0,0-2.91,2.91l2.28,2.28-.64,2.38-3.71-3.71a2.06,2.06,0,1,0-2.91,2.91l5.4,5.4-3,11.29-1.36.37-.83-3.1,2.29-2.29a2.06,2.06,0,1,0-2.91-2.91l-.6.6-.67-2.49a2.06,2.06,0,1,0-4,1.07l.67,2.48-.86-.23a2.06,2.06,0,0,0-1.07,4l3.16.84.84,3.12-1.36.37-8.26-8.26,2-7.37a2.06,2.06,0,1,0-4-1.07l-1.36,5.08-1.74-1.74.83-3.11a2.06,2.06,0,0,0-4-1.07l-.22.81-2.06-2.06a2.06,2.06,0,1,0-2.91,2.91l2.06,2.06-.81.22a2.06,2.06,0,1,0,1.07,4l3.11-.83,1.74,1.74-5.07,1.36a2.06,2.06,0,1,0,1.07,4l7.37-2,8.24,8.24-.37,1.38-3.08-.83L151,243.8a2.06,2.06,0,0,0-4,1.07l.22.83-2.49-.67a2.06,2.06,0,0,0-1.07,4l2.48.66-.63.63a2.06,2.06,0,1,0,2.91,2.91l2.31-2.31,3.09.83-.37,1.38-11.26,3-5.4-5.4a2.06,2.06,0,0,0-2.91,2.91l3.72,3.71-2.38.64-2.28-2.28a2.06,2.06,0,1,0-2.91,2.91l.6.6-2.82.75a2.06,2.06,0,1,0,1.07,4l2.82-.75-.22.81a2.06,2.06,0,0,0,4,1.07l.83-3.11,2.38-.64-1.36,5.07a2.06,2.06,0,1,0,4,1.07l2-7.37,11.29-3,1,1-2.28,2.28-3.16-.84a2.06,2.06,0,1,0-1.07,4l.86.23-1.82,1.82a2.06,2.06,0,1,0,2.91,2.91l1.83-1.83.22.83a2.06,2.06,0,0,0,4-1.07l-.84-3.12,2.27-2.27,1,1-3,11.29-7.37,2a2.06,2.06,0,1,0,1.07,4l5.07-1.36-.64,2.38-3.11.83a2.06,2.06,0,1,0,1.07,4l.81-.22-.75,2.82a2.06,2.06,0,1,0,4,1.07l.75-2.82.6.6a2.06,2.06,0,0,0,2.91-2.91l-2.28-2.28.64-2.38,3.72,3.72a2.06,2.06,0,0,0,2.91-2.91l-5.4-5.4,3-11.33,1.34-.36.84,3.15-2.29,2.29a2.06,2.06,0,1,0,2.91,2.91l.6-.6.67,2.49a2.06,2.06,0,0,0,4-1.07l-.67-2.48.86.23a2.06,2.06,0,0,0,1.07-4l-3.16-.84-.85-3.16,1.34-.36,8.3,8.3-2,7.37a2.06,2.06,0,0,0,4,1.07l1.36-5.07,1.74,1.74-.83,3.11a2.06,2.06,0,0,0,4,1.07l.22-.81,2.06,2.06a2.06,2.06,0,1,0,2.91-2.91Z" transform="translate(-9.81 -146.62)"/><path class="cls-4" d="M196.78,498.74l-.11-2.91.75.39a2.06,2.06,0,1,0,1.92-3.64l-2.85-1.5-.09-2.46,4.65,2.45a2.06,2.06,0,1,0,1.92-3.64l-6.75-3.56-.45-11.75,1.16-.73,1.75,2.79-1.52,2.89A2.06,2.06,0,0,0,200.8,479l.41-.79,1.37,2.17a2.06,2.06,0,1,0,3.49-2.19L204.69,476l.85,0a2.06,2.06,0,1,0-.16-4.12l-3.23.12-1.75-2.78,1.16-.73,10.4,5.49.29,7.63a2.06,2.06,0,1,0,4.12-.16l-.2-5.25,2.18,1.15.12,3.22a2.06,2.06,0,1,0,4.12-.16l0-.84,2.58,1.36a2.06,2.06,0,1,0,1.92-3.64l-2.58-1.36.71-.45A2.06,2.06,0,1,0,223,472l-2.73,1.72-2.18-1.15,4.45-2.8a2.06,2.06,0,1,0-2.19-3.49l-6.46,4.07-10.38-5.48-.05-1.38,3.27-.12,1.74,2.76a2.06,2.06,0,0,0,3.49-2.19l-.47-.75,2.57-.1a2.06,2.06,0,0,0-.16-4.12l-2.58.1.4-.76a2.06,2.06,0,0,0-3.64-1.92l-1.51,2.86-3.26.12-.05-1.39,9.93-6.25,6.75,3.56a2.06,2.06,0,1,0,1.92-3.64l-4.65-2.45,2.08-1.31,2.85,1.5a2.06,2.06,0,0,0,1.92-3.64l-.75-.39,2.47-1.55a2.06,2.06,0,0,0-2.19-3.49l-2.47,1.55,0-.84a2.06,2.06,0,0,0-4.12.16l.12,3.22L215,445.66l-.2-5.25a2.06,2.06,0,0,0-4.12.16l.29,7.63-9.89,6.22-1.25-.66,1.5-2.84,3.23-.12a2.06,2.06,0,0,0-.16-4.12l-.85,0,1.2-2.28a2.06,2.06,0,0,0-3.64-1.92l-1.2,2.27-.47-.75a2.06,2.06,0,1,0-3.49,2.19l1.74,2.76-1.51,2.85-1.25-.66-.45-11.67,6.46-4.07a2.06,2.06,0,0,0-2.19-3.49l-4.45,2.8-.09-2.46,2.73-1.72a2.06,2.06,0,1,0-2.19-3.49l-.71.45-.11-2.91a2.06,2.06,0,0,0-4.12.16l.11,2.91-.75-.39a2.06,2.06,0,1,0-1.92,3.64l2.85,1.5.09,2.46-4.64-2.45a2.06,2.06,0,1,0-1.92,3.64l6.75,3.56.44,11.65-1.21.76-1.7-2.7,1.51-2.86a2.06,2.06,0,1,0-3.64-1.92l-.4.76L184,443.16a2.06,2.06,0,0,0-3.49,2.19l1.37,2.17-.89,0a2.06,2.06,0,1,0,.16,4.12l3.26-.12,1.71,2.71-1.21.76-10.31-5.44-.29-7.63a2.06,2.06,0,0,0-4.12.16l.2,5.25-2.18-1.15-.12-3.22a2.06,2.06,0,0,0-4.12.16l0,.84-2.58-1.36a2.06,2.06,0,1,0-1.92,3.64l2.58,1.36-.71.45a2.06,2.06,0,1,0,2.19,3.49l2.73-1.72,2.18,1.15-4.44,2.8a2.06,2.06,0,0,0,2.19,3.49l6.46-4.06L183,458.68l.05,1.41-3.22.12-1.74-2.76a2.06,2.06,0,0,0-3.49,2.19l.47.75-2.57.1a2.06,2.06,0,1,0,.16,4.12l2.58-.1-.4.76a2.06,2.06,0,0,0,3.64,1.92l1.51-2.86,3.21-.12.05,1.41-9.89,6.22-6.75-3.56a2.06,2.06,0,1,0-1.92,3.64l4.65,2.45-2.08,1.31-2.85-1.5a2.06,2.06,0,1,0-1.92,3.64l.75.39-2.47,1.55a2.06,2.06,0,1,0,2.19,3.49l2.47-1.55,0,.84a2.06,2.06,0,0,0,4.12-.16l-.12-3.22,2.08-1.31.2,5.25a2.06,2.06,0,0,0,4.12-.16l-.29-7.63,9.93-6.25,1.23.65-1.52,2.88-3.23.12a2.06,2.06,0,1,0,.16,4.12l.85,0-1.2,2.28a2.06,2.06,0,0,0,3.64,1.92l1.2-2.27.47.75a2.06,2.06,0,1,0,3.49-2.19l-1.74-2.76,1.53-2.89,1.22.65.45,11.73-6.46,4.06a2.06,2.06,0,1,0,2.19,3.49l4.44-2.8.09,2.46-2.73,1.72a2.06,2.06,0,1,0,2.19,3.49l.71-.45.11,2.91a2.06,2.06,0,0,0,4.12-.16Z" transform="translate(-9.81 -146.62)"/><path class="cls-4" d="M260.65,209.37l-2.5-1.5.74-.41a2.06,2.06,0,1,0-2-3.6l-2.82,1.56L252,204.15l4.6-2.55a2.06,2.06,0,1,0-2-3.6l-6.68,3.7-10.08-6.06,0-1.37,3.29.06,1.58,2.86a2.06,2.06,0,0,0,3.6-2l-.43-.78,2.57,0a2.06,2.06,0,1,0,.07-4.12l-2.58,0,.44-.73a2.06,2.06,0,0,0-3.53-2.12l-1.67,2.77-3.28-.06,0-1.37,10.29-5.7,6.54,3.93a2.06,2.06,0,1,0,2.12-3.53l-4.5-2.7,2.15-1.19,2.76,1.66a2.06,2.06,0,1,0,2.12-3.53l-.72-.43,2.55-1.41a2.06,2.06,0,1,0-2-3.6l-2.55,1.41v-.84a2.06,2.06,0,0,0-4.12-.07l-.06,3.22-2.15,1.19.09-5.25a2.06,2.06,0,1,0-4.12-.07l-.13,7.63L236,185.16l-1.19-.71,1.68-2.8,3.27.06a2.06,2.06,0,1,0,.07-4.12l-.89,0,1.32-2.2a2.06,2.06,0,0,0-3.53-2.12l-1.33,2.21-.41-.75a2.06,2.06,0,0,0-3.6,2l1.57,2.83-1.68,2.79-1.19-.71.2-11.73,6.68-3.7a2.06,2.06,0,0,0-2-3.6l-4.6,2.55,0-2.46,2.82-1.56a2.06,2.06,0,1,0-2-3.6l-.74.41.05-2.91a2.06,2.06,0,0,0-4.12-.07l-.05,2.91-.72-.43a2.06,2.06,0,0,0-2.12,3.53l2.76,1.66,0,2.46-4.5-2.7a2.06,2.06,0,0,0-2.12,3.53l6.54,3.93-.2,11.68-1.23.68-1.56-2.81,1.67-2.77a2.06,2.06,0,1,0-3.53-2.12l-.44.73-1.25-2.26a2.06,2.06,0,1,0-3.6,2l1.25,2.25-.89,0a2.06,2.06,0,1,0-.07,4.12l3.27.06,1.56,2.82-1.23.68-10-6,.13-7.63a2.06,2.06,0,1,0-4.12-.07l-.09,5.25-2.11-1.27.06-3.22a2.06,2.06,0,0,0-4.12-.07v.84l-2.5-1.5A2.06,2.06,0,0,0,195,174.7l2.5,1.5-.74.41a2.06,2.06,0,1,0,2,3.6l2.82-1.56,2.11,1.27L199,182.46a2.06,2.06,0,1,0,2,3.6l6.67-3.7,10,6,0,1.42-3.19-.06-1.57-2.83a2.06,2.06,0,1,0-3.6,2l.41.75-2.58,0a2.06,2.06,0,1,0-.07,4.12l2.57,0-.46.76a2.06,2.06,0,1,0,3.53,2.12l1.68-2.8,3.2.06,0,1.42L207.39,201l-6.54-3.93a2.06,2.06,0,1,0-2.12,3.53l4.5,2.71-2.15,1.19-2.76-1.66a2.06,2.06,0,1,0-2.12,3.53l.72.43-2.55,1.41a2.06,2.06,0,1,0,2,3.6l2.55-1.41v.84a2.06,2.06,0,0,0,4.12.07l.06-3.22,2.15-1.19-.09,5.25a2.06,2.06,0,0,0,4.12.07l.13-7.63,10.22-5.66,1.21.73-1.66,2.76-3.27-.06a2.06,2.06,0,1,0-.07,4.12l.89,0-1.32,2.2a2.06,2.06,0,1,0,3.53,2.12l1.33-2.21.41.75a2.06,2.06,0,1,0,3.6-2l-1.57-2.83,1.65-2.75,1.21.73-.2,11.68-6.67,3.7a2.06,2.06,0,1,0,2,3.6l4.59-2.55,0,2.46L222.41,223a2.06,2.06,0,1,0,2,3.6l.74-.41-.05,2.91a2.06,2.06,0,0,0,4.12.07l.05-2.91.72.43a2.06,2.06,0,0,0,2.12-3.53l-2.76-1.66,0-2.46,4.5,2.71a2.06,2.06,0,0,0,2.12-3.53l-6.54-3.93.2-11.73,1.21-.67,1.58,2.85-1.67,2.77a2.06,2.06,0,1,0,3.53,2.12l.44-.73,1.25,2.26a2.06,2.06,0,1,0,3.6-2l-1.25-2.25.89,0a2.06,2.06,0,0,0,.07-4.12l-3.27-.06-1.59-2.86,1.21-.67,10.06,6-.13,7.63a2.06,2.06,0,1,0,4.12.07l.09-5.25,2.11,1.27-.06,3.22a2.06,2.06,0,0,0,4.12.07v-.84l2.5,1.5a2.06,2.06,0,1,0,2.12-3.53Z" transform="translate(-9.81 -146.62)"/><path class="cls-4" d="M163.41,353.24l-2.91-.07.44-.72a2.06,2.06,0,1,0-3.52-2.14l-1.67,2.75-2.46-.06,2.73-4.49a2.06,2.06,0,1,0-3.52-2.14l-4,6.52-11.76-.27-.66-1.2,2.89-1.58,2.79,1.7a2.06,2.06,0,0,0,2.14-3.52l-.76-.46,2.25-1.23a2.06,2.06,0,1,0-2-3.61L141.18,344l0-.85a2.06,2.06,0,1,0-4.12-.09l-.07,3.23-2.88,1.58-.66-1.2,6.11-10.05,7.63.17a2.06,2.06,0,1,0,.09-4.12l-5.25-.12,1.28-2.1,3.22.07a2.06,2.06,0,0,0,.09-4.12l-.84,0,1.51-2.49a2.06,2.06,0,1,0-3.52-2.14l-1.51,2.49-.4-.74a2.06,2.06,0,0,0-3.61,2l1.55,2.83-1.28,2.1L136,325.75a2.06,2.06,0,0,0-3.61,2l3.67,6.7-6.1,10-1.38,0,.07-3.27,2.87-1.57a2.06,2.06,0,0,0-2-3.61l-.78.43.06-2.57a2.06,2.06,0,0,0-4.12-.09l-.06,2.58-.73-.44a2.06,2.06,0,0,0-2.14,3.52l2.76,1.68-.07,3.26-1.39,0L117.43,334l4-6.52a2.06,2.06,0,0,0-3.52-2.14l-2.73,4.49L114,327.67l1.67-2.75a2.06,2.06,0,0,0-3.52-2.14l-.44.72-1.4-2.56a2.06,2.06,0,0,0-3.61,2l1.4,2.56-.84,0a2.06,2.06,0,0,0-.09,4.12l3.22.07,1.18,2.16-5.25-.12a2.06,2.06,0,1,0-.09,4.12l7.63.17,5.61,10.25-.73,1.21-2.75-1.67.07-3.23a2.06,2.06,0,1,0-4.12-.09l0,.85-2.21-1.34a2.06,2.06,0,0,0-2.14,3.52l2.2,1.34-.78.43a2.06,2.06,0,0,0,2,3.61l2.87-1.57,2.76,1.68-.73,1.2-11.68-.27-3.67-6.7a2.06,2.06,0,0,0-3.61,2l2.52,4.61-2.46-.06-1.55-2.83a2.06,2.06,0,1,0-3.61,2l.4.74-2.91-.07a2.06,2.06,0,1,0-.09,4.12l2.91.07-.44.72a2.06,2.06,0,1,0,3.52,2.14l1.67-2.75,2.46.06-2.73,4.49a2.06,2.06,0,1,0,3.52,2.14l4-6.52,11.65.27.68,1.25-2.8,1.53-2.76-1.68a2.06,2.06,0,1,0-2.14,3.52l.73.44-2.26,1.24a2.06,2.06,0,1,0,2,3.61l2.25-1.23,0,.89a2.06,2.06,0,1,0,4.12.09l.07-3.27,2.81-1.54.68,1.25-6.06,10-7.63-.17a2.06,2.06,0,0,0-.09,4.12l5.25.12-1.28,2.1-3.22-.07a2.06,2.06,0,1,0-.09,4.12l.84,0-1.51,2.49a2.06,2.06,0,1,0,3.52,2.14l1.51-2.49.4.74a2.06,2.06,0,1,0,3.61-2l-1.55-2.83,1.28-2.1,2.52,4.61a2.06,2.06,0,0,0,3.61-2l-3.66-6.69,6.07-10,1.41,0-.07,3.22-2.87,1.57a2.06,2.06,0,1,0,2,3.61l.78-.43-.06,2.57a2.06,2.06,0,1,0,4.12.09l.06-2.58.73.44a2.06,2.06,0,0,0,2.14-3.52L128,367.85l.07-3.21,1.41,0,5.61,10.25-4,6.52a2.06,2.06,0,1,0,3.52,2.14l2.73-4.49,1.18,2.16L136.92,384a2.06,2.06,0,1,0,3.52,2.14l.44-.72,1.4,2.56a2.06,2.06,0,0,0,3.61-2l-1.4-2.56.84,0a2.06,2.06,0,1,0,.09-4.12l-3.22-.07L141,377.11l5.25.12a2.06,2.06,0,1,0,.09-4.12l-7.63-.17-5.63-10.29.72-1.19,2.78,1.69-.07,3.23a2.06,2.06,0,1,0,4.12.09l0-.85,2.21,1.34a2.06,2.06,0,0,0,2.14-3.52l-2.2-1.34.78-.43a2.06,2.06,0,0,0-2-3.61l-2.87,1.57-2.79-1.7.72-1.18,11.73.27,3.66,6.69a2.06,2.06,0,1,0,3.61-2l-2.52-4.61,2.46.06,1.55,2.83a2.06,2.06,0,0,0,3.61-2l-.4-.74,2.91.07a2.06,2.06,0,0,0,.09-4.12Z" transform="translate(-9.81 -146.62)"/><path class="cls-5" d="M151.77,522.31l-1.5-1,.48-.22a1.29,1.29,0,0,0-1.1-2.32l-1.82.86-1.26-.87,3-1.4a1.29,1.29,0,0,0-1.1-2.32l-4.31,2-6-4.18.07-.85,2,.17.87,1.84a1.29,1.29,0,1,0,2.32-1.1l-.24-.5,1.6.13A1.29,1.29,0,1,0,145,510l-1.61-.13.3-.44a1.29,1.29,0,0,0-2.11-1.46l-1.15,1.66-2-.17.07-.85,6.63-3.14,3.91,2.71a1.29,1.29,0,1,0,1.46-2.11l-2.69-1.86,1.39-.66,1.65,1.14a1.29,1.29,0,0,0,1.46-2.11l-.43-.3,1.64-.78a1.29,1.29,0,0,0-1.1-2.32l-1.64.78,0-.52a1.29,1.29,0,0,0-2.56-.21l-.16,2-1.39.66.27-3.27a1.29,1.29,0,0,0-2.56-.21l-.39,4.75-6.62,3.13-.71-.49,1.16-1.68,2,.17a1.29,1.29,0,1,0,.21-2.56l-.55,0,.91-1.32a1.29,1.29,0,0,0-2.11-1.46l-.92,1.32-.23-.48a1.29,1.29,0,0,0-2.32,1.1l.86,1.82-1.16,1.67-.71-.49.6-7.3,4.31-2a1.29,1.29,0,1,0-1.1-2.32l-3,1.4.13-1.53,1.82-.86a1.29,1.29,0,1,0-1.1-2.32l-.48.22.15-1.81a1.29,1.29,0,1,0-2.56-.21l-.15,1.81-.43-.3a1.29,1.29,0,0,0-1.46,2.11l1.65,1.14-.13,1.53-2.69-1.86a1.29,1.29,0,0,0-1.46,2.11l3.91,2.71-.6,7.26-.8.38-.86-1.81,1.15-1.66a1.29,1.29,0,1,0-2.11-1.46l-.3.44-.69-1.46a1.29,1.29,0,0,0-2.32,1.1l.69,1.45-.55,0a1.29,1.29,0,0,0-.21,2.56l2,.17.86,1.82-.8.38-6-4.15.39-4.75a1.29,1.29,0,1,0-2.56-.21l-.27,3.27-1.26-.87.16-2a1.29,1.29,0,0,0-2.56-.21l0,.52-1.5-1a1.29,1.29,0,0,0-1.46,2.11l1.5,1-.48.22a1.29,1.29,0,1,0,1.1,2.32l1.82-.86,1.26.87-3,1.4a1.29,1.29,0,1,0,1.1,2.32l4.3-2,6,4.14-.07.89-2-.16-.86-1.82a1.29,1.29,0,0,0-2.32,1.1l.23.48-1.61-.13a1.29,1.29,0,1,0-.21,2.56l1.6.13-.32.46a1.29,1.29,0,1,0,2.11,1.46l1.16-1.68,2,.16-.07.89L119,515,115,512.24a1.29,1.29,0,0,0-1.46,2.11l2.69,1.87-1.39.66-1.65-1.14a1.29,1.29,0,1,0-1.46,2.11l.43.3-1.64.78a1.29,1.29,0,1,0,1.1,2.32l1.64-.78,0,.52a1.29,1.29,0,0,0,2.56.21l.16-2,1.39-.66-.27,3.27a1.29,1.29,0,1,0,2.56.21l.39-4.74,6.59-3.12.72.5-1.15,1.65-2-.17a1.29,1.29,0,1,0-.21,2.56l.55,0-.91,1.32a1.29,1.29,0,1,0,2.11,1.46l.92-1.32.23.48a1.29,1.29,0,0,0,2.32-1.1l-.86-1.82,1.14-1.65.72.5-.6,7.26-4.3,2a1.29,1.29,0,1,0,1.1,2.32l3-1.4-.13,1.53-1.82.86a1.29,1.29,0,1,0,1.1,2.32l.48-.22-.15,1.81a1.29,1.29,0,1,0,2.56.21l.15-1.81.43.3a1.29,1.29,0,1,0,1.46-2.11l-1.65-1.14.13-1.53,2.69,1.87a1.29,1.29,0,0,0,1.46-2.11l-3.92-2.71.6-7.3.78-.37.87,1.84-1.15,1.66a1.29,1.29,0,1,0,2.11,1.46l.3-.44.69,1.46a1.29,1.29,0,0,0,2.32-1.1l-.69-1.45.55,0a1.29,1.29,0,1,0,.21-2.56l-2-.17-.87-1.84.78-.37,6,4.17-.39,4.74a1.29,1.29,0,0,0,2.56.21l.27-3.27,1.26.87-.16,2a1.29,1.29,0,1,0,2.56.21l0-.52,1.5,1a1.29,1.29,0,1,0,1.46-2.11Z" transform="translate(-9.81 -146.62)"/><path class="cls-5" d="M155.39,192.55l-1.5-1,.48-.22a1.29,1.29,0,0,0-1.1-2.32l-1.82.86-1.26-.87,3-1.4a1.29,1.29,0,0,0-1.1-2.32l-4.31,2-6-4.18.07-.85,2,.17.87,1.84a1.29,1.29,0,0,0,2.32-1.1l-.24-.5,1.6.13a1.29,1.29,0,1,0,.21-2.56l-1.61-.13.3-.44a1.29,1.29,0,1,0-2.11-1.46L144,179.83l-2-.17.07-.85,6.63-3.14,3.91,2.71a1.29,1.29,0,0,0,1.46-2.11l-2.69-1.86,1.39-.66,1.65,1.14a1.29,1.29,0,0,0,1.46-2.11l-.43-.3,1.64-.78a1.29,1.29,0,0,0-1.1-2.32l-1.64.78,0-.52a1.29,1.29,0,1,0-2.56-.21l-.16,2-1.39.66.27-3.27a1.29,1.29,0,0,0-2.56-.21l-.39,4.75L141,176.48l-.71-.49,1.16-1.68,2,.17a1.29,1.29,0,1,0,.21-2.56l-.55,0,.91-1.32a1.29,1.29,0,0,0-2.11-1.46l-.92,1.32-.23-.48a1.29,1.29,0,0,0-2.32,1.1l.86,1.82-1.16,1.67-.71-.49.6-7.3,4.31-2a1.29,1.29,0,0,0-1.1-2.32l-3,1.4.13-1.53,1.82-.86a1.29,1.29,0,0,0-1.1-2.32l-.48.22.15-1.81a1.29,1.29,0,0,0-2.56-.21l-.15,1.81-.43-.3a1.29,1.29,0,0,0-1.46,2.11l1.65,1.14-.13,1.53L133,161.71a1.29,1.29,0,1,0-1.46,2.11l3.91,2.71-.6,7.26-.8.38-.86-1.81,1.15-1.66a1.29,1.29,0,0,0-2.11-1.46l-.3.44-.69-1.46a1.29,1.29,0,1,0-2.32,1.1l.69,1.45-.55,0a1.29,1.29,0,0,0-.21,2.56l2,.17.86,1.82-.8.38-6-4.15.39-4.75a1.29,1.29,0,0,0-2.56-.21l-.27,3.27-1.26-.87.16-2a1.29,1.29,0,1,0-2.56-.21l0,.52-1.5-1a1.29,1.29,0,1,0-1.46,2.11l1.5,1-.48.22a1.29,1.29,0,1,0,1.1,2.32l1.82-.86,1.26.87-3,1.4a1.29,1.29,0,1,0,1.1,2.32l4.3-2,6,4.14-.07.89-2-.16-.86-1.82a1.29,1.29,0,1,0-2.32,1.1l.23.48-1.61-.13a1.29,1.29,0,0,0-.21,2.56l1.6.13-.32.46a1.29,1.29,0,1,0,2.11,1.46l1.16-1.68,2,.16-.07.89-6.57,3.11-3.92-2.71a1.29,1.29,0,0,0-1.46,2.11l2.69,1.87-1.39.66L116.85,186a1.29,1.29,0,1,0-1.46,2.11l.43.3-1.64.78a1.29,1.29,0,1,0,1.1,2.32l1.64-.78,0,.52a1.29,1.29,0,1,0,2.56.21l.16-2,1.39-.66-.27,3.27a1.29,1.29,0,0,0,2.56.21l.39-4.74,6.59-3.12.72.5-1.15,1.65-2-.17a1.29,1.29,0,1,0-.21,2.56l.55,0-.91,1.32a1.29,1.29,0,1,0,2.11,1.46l.92-1.32.23.48a1.29,1.29,0,0,0,2.32-1.1L132,188l1.14-1.65.72.5-.6,7.26-4.3,2a1.29,1.29,0,1,0,1.1,2.32l3-1.4-.13,1.53-1.82.86a1.29,1.29,0,1,0,1.1,2.32l.48-.22-.15,1.81a1.29,1.29,0,0,0,2.56.21l.15-1.81.43.3a1.29,1.29,0,0,0,1.46-2.11l-1.65-1.14.13-1.53,2.69,1.87A1.29,1.29,0,0,0,139.7,197l-3.92-2.71.6-7.3.78-.37.87,1.84-1.15,1.66a1.29,1.29,0,1,0,2.11,1.46l.3-.44.69,1.46a1.29,1.29,0,0,0,2.32-1.1l-.69-1.45.55,0a1.29,1.29,0,0,0,.21-2.56l-2-.17-.87-1.84.78-.37,6,4.17-.39,4.74a1.29,1.29,0,0,0,2.56.21l.27-3.27,1.26.87-.16,2a1.29,1.29,0,0,0,2.56.21l0-.52,1.5,1a1.29,1.29,0,1,0,1.46-2.11Z" transform="translate(-9.81 -146.62)"/><path class="cls-5" d="M134.51,436.31l-1.8-.22.32-.42a1.29,1.29,0,1,0-2.05-1.55l-1.21,1.6-1.52-.19,2-2.62a1.29,1.29,0,1,0-2.05-1.55l-2.87,3.8-7.28-.9-.33-.79,1.89-.8,1.63,1.23a1.29,1.29,0,0,0,1.55-2.05l-.44-.33,1.48-.63a1.29,1.29,0,1,0-1-2.37l-1.48.63.07-.53a1.29,1.29,0,1,0-2.55-.31l-.25,2-1.88.8-.33-.79,4.42-5.86,4.72.58a1.29,1.29,0,0,0,.31-2.55l-3.25-.4.92-1.23,2,.25a1.29,1.29,0,1,0,.31-2.55l-.52-.06,1.09-1.45a1.29,1.29,0,1,0-2.05-1.55L123.2,417l-.21-.48a1.29,1.29,0,1,0-2.37,1l.78,1.85-.92,1.23-1.28-3a1.29,1.29,0,1,0-2.37,1l1.86,4.38-4.41,5.85-.86-.11.25-2,1.88-.8a1.29,1.29,0,0,0-1-2.37l-.51.22.2-1.59a1.29,1.29,0,0,0-2.55-.31l-.2,1.6-.43-.32a1.29,1.29,0,0,0-1.55,2.05l1.61,1.21-.25,2-.86-.11-2.86-6.74,2.87-3.8a1.29,1.29,0,1,0-2.05-1.55l-2,2.62-.6-1.41,1.21-1.6a1.29,1.29,0,1,0-2.05-1.55l-.32.42-.71-1.67a1.29,1.29,0,0,0-2.37,1l.71,1.67-.52-.06a1.29,1.29,0,1,0-.31,2.55l2,.25.6,1.41-3.25-.4a1.29,1.29,0,0,0-.31,2.55l4.72.58,2.85,6.71-.53.7-1.6-1.21.25-2a1.29,1.29,0,1,0-2.55-.31l-.07.53-1.29-1a1.29,1.29,0,1,0-1.55,2.05l1.28,1-.51.22a1.29,1.29,0,1,0,1,2.37l1.88-.8,1.61,1.21-.53.7-7.23-.89-1.86-4.38a1.29,1.29,0,0,0-2.37,1l1.28,3-1.52-.19-.78-1.85a1.29,1.29,0,0,0-2.37,1l.21.48-1.8-.22a1.29,1.29,0,0,0-.31,2.55l1.8.22-.32.42a1.29,1.29,0,1,0,2.05,1.55l1.21-1.6,1.52.19-2,2.62a1.29,1.29,0,1,0,2.05,1.55l2.87-3.8,7.22.89.35.82-1.83.78-1.61-1.21a1.29,1.29,0,1,0-1.55,2.05l.43.32-1.48.63a1.29,1.29,0,0,0,1,2.37l1.48-.63-.07.55a1.29,1.29,0,1,0,2.55.31l.25-2,1.84-.78.35.82L102,445l-4.73-.58A1.29,1.29,0,0,0,97,447l3.25.4-.92,1.23-2-.25a1.29,1.29,0,1,0-.31,2.55l.52.06-1.09,1.45A1.29,1.29,0,1,0,98.49,454l1.09-1.45.21.48a1.29,1.29,0,1,0,2.37-1l-.78-1.85.92-1.23,1.28,3a1.29,1.29,0,0,0,2.37-1l-1.86-4.38,4.39-5.82.87.11-.25,2-1.88.8a1.29,1.29,0,1,0,1,2.37l.51-.22-.2,1.59a1.29,1.29,0,1,0,2.55.31l.2-1.6.43.32a1.29,1.29,0,0,0,1.55-2.05l-1.61-1.21.24-2,.87.11,2.85,6.71-2.87,3.8a1.29,1.29,0,1,0,2.05,1.55l2-2.62.6,1.41-1.21,1.6a1.29,1.29,0,1,0,2.05,1.55l.32-.42.71,1.67a1.29,1.29,0,1,0,2.37-1l-.71-1.67.52.06a1.29,1.29,0,0,0,.31-2.55l-2-.25-.6-1.41,3.25.4a1.29,1.29,0,1,0,.31-2.55L118,447l-2.86-6.74.52-.69,1.62,1.22-.25,2a1.29,1.29,0,1,0,2.55.31l.07-.53,1.29,1a1.29,1.29,0,0,0,1.55-2.05l-1.28-1,.51-.22a1.29,1.29,0,0,0-1-2.37l-1.88.8-1.63-1.23.52-.69,7.27.89,1.86,4.38a1.29,1.29,0,0,0,2.37-1l-1.28-3,1.52.19.78,1.85a1.29,1.29,0,1,0,2.37-1l-.21-.48,1.8.22a1.29,1.29,0,0,0,.31-2.55Z" transform="translate(-9.81 -146.62)"/><path class="cls-5" d="M77,332.9l-1.65-.77.43-.3a1.29,1.29,0,0,0-1.47-2.11l-1.65,1.15-1.39-.65,2.69-1.88a1.29,1.29,0,1,0-1.47-2.11L68.57,329l-6.65-3.1-.07-.85,2-.18,1.17,1.67A1.29,1.29,0,0,0,67.17,325l-.32-.45,1.6-.14a1.29,1.29,0,1,0-.22-2.56l-1.6.14.23-.48a1.29,1.29,0,1,0-2.33-1.09l-.85,1.83-2,.18-.07-.85,6-4.21,4.31,2A1.29,1.29,0,0,0,73,317.08l-3-1.38,1.26-.88,1.82.85a1.29,1.29,0,0,0,1.09-2.33l-.48-.22,1.49-1A1.29,1.29,0,1,0,73.69,310l-1.49,1,0-.52a1.29,1.29,0,0,0-2.56.22l.18,2-1.26.88-.29-3.27a1.29,1.29,0,1,0-2.56.22l.42,4.74-6,4.2-.78-.37.86-1.85,2-.18a1.29,1.29,0,0,0-.22-2.56l-.55,0,.68-1.45a1.29,1.29,0,0,0-2.33-1.09l-.68,1.46-.31-.44a1.29,1.29,0,0,0-2.11,1.47l1.16,1.65L57,318l-.78-.37-.64-7.29,3.9-2.73A1.29,1.29,0,1,0,58,305.55l-2.69,1.88-.13-1.53,1.65-1.15a1.29,1.29,0,1,0-1.47-2.11l-.43.3-.16-1.81a1.29,1.29,0,1,0-2.56.22l.16,1.81-.48-.22a1.29,1.29,0,0,0-1.09,2.33l1.82.85.13,1.53-3-1.38a1.29,1.29,0,0,0-1.09,2.33l4.31,2,.64,7.26-.72.5-1.15-1.64.85-1.83a1.29,1.29,0,1,0-2.33-1.09l-.23.48L49.13,313A1.29,1.29,0,0,0,47,314.46l.92,1.31-.55,0a1.29,1.29,0,0,0,.22,2.56l2-.18,1.15,1.65-.72.5-6.6-3.08-.42-4.74a1.29,1.29,0,1,0-2.56.22l.29,3.27-1.39-.65-.18-2a1.29,1.29,0,1,0-2.56.22l0,.52-1.65-.77A1.29,1.29,0,0,0,34,315.68l1.65.77-.43.3a1.29,1.29,0,1,0,1.47,2.11l1.65-1.15,1.39.65L37,320.23a1.29,1.29,0,1,0,1.47,2.11l3.9-2.73L49,322.68l.08.89-2,.17-1.16-1.65a1.29,1.29,0,0,0-2.11,1.47l.31.44-1.6.14a1.29,1.29,0,0,0,.22,2.56l1.6-.14-.23.5a1.29,1.29,0,1,0,2.33,1.09l.86-1.85,2-.17.08.89-6,4.17-4.32-2A1.29,1.29,0,1,0,38,331.5l3,1.39-1.26.88-1.82-.85a1.29,1.29,0,0,0-1.09,2.33l.48.22-1.49,1a1.29,1.29,0,1,0,1.47,2.11l1.49-1,0,.52a1.29,1.29,0,1,0,2.56-.22l-.18-2,1.26-.88.29,3.26a1.29,1.29,0,1,0,2.56-.22l-.41-4.74,6-4.18.8.37-.85,1.82-2,.18A1.29,1.29,0,1,0,49,334l.55,0-.68,1.45a1.29,1.29,0,1,0,2.33,1.09l.68-1.46.31.44A1.29,1.29,0,0,0,54.28,334l-1.16-1.65.85-1.82.8.37.64,7.26-3.9,2.73A1.29,1.29,0,1,0,53,343l2.68-1.88.13,1.53-1.65,1.15a1.29,1.29,0,1,0,1.47,2.11l.43-.3.16,1.81a1.29,1.29,0,0,0,2.56-.22l-.16-1.81.48.22a1.29,1.29,0,1,0,1.09-2.33l-1.82-.85-.13-1.53,3,1.39A1.29,1.29,0,1,0,62.28,340L58,338l-.64-7.29.71-.5,1.17,1.66-.85,1.83a1.29,1.29,0,1,0,2.33,1.09l.23-.48.92,1.32a1.29,1.29,0,0,0,2.11-1.47L63,332.81l.55,0a1.29,1.29,0,1,0-.22-2.56l-2,.18-1.17-1.67.71-.5,6.63,3.09.41,4.74a1.29,1.29,0,0,0,2.56-.22l-.29-3.26,1.39.65.18,2A1.29,1.29,0,1,0,74.3,335l0-.52,1.65.77A1.29,1.29,0,1,0,77,332.9Z" transform="translate(-9.81 -146.62)"/><path class="cls-5" d="M97.73,251.33l-.7-1.68.52.07a1.29,1.29,0,1,0,.33-2.55l-2-.26-.59-1.42,3.25.42a1.29,1.29,0,1,0,.33-2.55l-4.72-.61L91.32,236l.52-.68,1.63,1.24-.26,2a1.29,1.29,0,1,0,2.55.33l.07-.55,1.28,1a1.29,1.29,0,1,0,1.56-2l-1.28-1,.49-.21a1.29,1.29,0,0,0-1-2.37l-1.86.78-1.63-1.24.52-.68,7.28.93,1.84,4.39a1.29,1.29,0,1,0,2.37-1l-1.26-3,1.52.19.78,1.85a1.29,1.29,0,1,0,2.37-1l-.2-.49,1.8.23a1.29,1.29,0,1,0,.33-2.55l-1.8-.23.32-.42a1.29,1.29,0,1,0-2-1.56l-1.22,1.6-1.52-.2,2-2.61a1.29,1.29,0,0,0-2-1.56L101.51,231,94.25,230l-.33-.8,1.88-.79,1.62,1.23a1.29,1.29,0,0,0,1.56-2l-.44-.34,1.48-.62a1.29,1.29,0,0,0-1-2.37l-1.49.62.07-.53a1.29,1.29,0,0,0-2.55-.33l-.26,2-1.88.78-.33-.8L97,220.25l4.72.61a1.29,1.29,0,0,0,.33-2.55l-3.25-.42.93-1.22,2,.26a1.29,1.29,0,1,0,.33-2.55l-.52-.07,1.1-1.45a1.29,1.29,0,1,0-2-1.56l-1.1,1.45-.2-.49a1.29,1.29,0,0,0-2.37,1l.78,1.85-.93,1.22-1.26-3a1.29,1.29,0,1,0-2.37,1L95,218.69l-4.42,5.8-.87-.11.25-2,1.86-.78a1.29,1.29,0,0,0-1-2.37l-.49.21.2-1.6a1.29,1.29,0,1,0-2.55-.33l-.2,1.59-.44-.34a1.29,1.29,0,0,0-1.56,2l1.62,1.23-.26,2-.87-.11-2.81-6.72,2.89-3.79a1.29,1.29,0,1,0-2-1.56l-2,2.61-.59-1.42,1.22-1.6a1.29,1.29,0,1,0-2-1.56l-.32.42-.7-1.68a1.29,1.29,0,0,0-2.37,1l.7,1.68-.52-.07a1.29,1.29,0,1,0-.33,2.55l2,.26.59,1.42-3.25-.42a1.29,1.29,0,1,0-.33,2.55l4.72.6,2.81,6.71-.54.71-1.58-1.21.26-2a1.29,1.29,0,1,0-2.55-.33l-.07.53-1.28-1a1.29,1.29,0,0,0-1.56,2l1.28,1-.51.21a1.29,1.29,0,1,0,1,2.37l1.88-.79,1.59,1.21-.54.71L74,227.45l-1.84-4.39a1.29,1.29,0,1,0-2.37,1l1.26,3-1.52-.2L68.81,225a1.29,1.29,0,1,0-2.37,1l.2.49-1.8-.23a1.29,1.29,0,1,0-.33,2.55l1.8.23-.32.42A1.29,1.29,0,1,0,68,231l1.22-1.6,1.52.19-2,2.61a1.29,1.29,0,0,0,2,1.56L73.72,230l7.23.93.34.81-1.86.78-1.62-1.23a1.29,1.29,0,0,0-1.56,2l.44.34-1.48.62a1.29,1.29,0,1,0,1,2.37l1.49-.62-.07.53a1.29,1.29,0,0,0,2.55.33l.26-2,1.85-.77.34.81-4.42,5.8-4.72-.6a1.29,1.29,0,1,0-.33,2.55l3.25.42-.93,1.22-2-.26a1.29,1.29,0,1,0-.33,2.55l.52.07-1.1,1.45a1.29,1.29,0,1,0,2,1.56l1.1-1.45.2.49a1.29,1.29,0,1,0,2.37-1l-.78-1.85.93-1.22,1.26,3a1.29,1.29,0,1,0,2.37-1l-1.84-4.39,4.44-5.82.86.11-.26,2-1.86.78a1.29,1.29,0,1,0,1,2.37l.49-.21-.2,1.6a1.29,1.29,0,0,0,2.55.33l.2-1.59.44.34a1.29,1.29,0,0,0,1.56-2l-1.62-1.23.26-2,.86.11,2.82,6.75-2.88,3.79a1.29,1.29,0,1,0,2,1.56l2-2.61.59,1.42-1.22,1.6a1.29,1.29,0,1,0,2,1.56l.32-.42.7,1.68a1.29,1.29,0,0,0,2.37-1Z" transform="translate(-9.81 -146.62)"/><path class="cls-6" d="M68.5,194.3l-.77-1.21.41,0a1,1,0,0,0-.09-2l-1.58.07-.65-1L68.4,190a1,1,0,0,0-.09-2l-3.75.17-3.11-4.88.31-.6,1.44.75.07,1.6a1,1,0,1,0,2-.09l0-.44,1.12.58a1,1,0,1,0,.93-1.8l-1.13-.59.35-.23a1,1,0,0,0-1.09-1.71l-1.34.86-1.43-.74.31-.6,5.78-.26,2,3.16a1,1,0,0,0,1.71-1.09l-1.39-2.18,1.21-.05.85,1.34a1,1,0,1,0,1.71-1.09l-.22-.35,1.43-.06a1,1,0,0,0-.09-2l-1.43.06.19-.37a1,1,0,0,0-1.8-.93l-.73,1.41-1.21.05,1.19-2.29a1,1,0,0,0-1.8-.93L68.69,178l-5.77.26-.37-.57,1.36-.87,1.43.74a1,1,0,0,0,.93-1.8l-.39-.2,1.07-.68a1,1,0,0,0-1.09-1.71l-1.07.68,0-.42a1,1,0,0,0-2,.09l.07,1.59-1.35.86-.37-.58,2.66-5.12,3.75-.17a1,1,0,0,0-.09-2l-2.58.11.56-1.07L67,167a1,1,0,0,0-.09-2l-.41,0,.66-1.27a1,1,0,0,0-1.8-.93l-.66,1.27-.22-.35a1,1,0,1,0-1.71,1.09l.85,1.34L63,167.24l-1.39-2.18a1,1,0,1,0-1.71,1.09l2,3.16-2.65,5.1-.69,0-.07-1.58,1.34-.86a1,1,0,0,0-1.09-1.71l-.35.23-.06-1.27a1,1,0,1,0-2,.09l.06,1.26-.39-.2a1,1,0,0,0-.93,1.8l1.43.74.07,1.59-.69,0-3.09-4.84,1.73-3.33a1,1,0,0,0-1.8-.93l-1.19,2.29-.65-1,.73-1.41a1,1,0,0,0-1.8-.93l-.19.37-.77-1.21a1,1,0,1,0-1.71,1.09l.77,1.21-.41,0a1,1,0,1,0,.09,2l1.58-.07.65,1-2.58.11a1,1,0,1,0,.09,2l3.75-.17,3.08,4.83-.32.62-1.39-.72L52.4,174a1,1,0,1,0-2,.09l0,.42-1.13-.59a1,1,0,1,0-.93,1.8l1.12.58-.37.23a1,1,0,1,0,1.09,1.71l1.35-.86,1.4.73-.32.62-5.73.25-2-3.16a1,1,0,0,0-1.71,1.09l1.39,2.18-1.21.05-.85-1.34a1,1,0,1,0-1.71,1.09l.22.35-1.43.06a1,1,0,1,0,.09,2l1.43-.06-.19.37a1,1,0,0,0,1.8.93l.73-1.41,1.21-.05-1.19,2.29a1,1,0,0,0,1.8.93L47,181l5.74-.25.37.59-1.34.85-1.43-.74a1,1,0,1,0-.93,1.8l.39.2-1.07.68a1,1,0,1,0,1.09,1.71l1.07-.68,0,.42a1,1,0,1,0,2-.09l-.07-1.59,1.33-.85.37.58-2.65,5.1-3.75.17a1,1,0,1,0,.09,2l2.58-.11-.56,1.07-1.58.07a1,1,0,1,0,.09,2l.41,0-.66,1.27a1,1,0,0,0,1.8.93l.66-1.27.22.35a1,1,0,1,0,1.71-1.09l-.85-1.34.56-1.07L54,193.88a1,1,0,0,0,1.71-1.09l-2-3.16,2.66-5.12.68,0,.07,1.6-1.34.86a1,1,0,1,0,1.09,1.71l.35-.23.06,1.27a1,1,0,1,0,2-.09l-.06-1.26.39.2a1,1,0,0,0,.93-1.8L59.14,186l-.07-1.61.68,0,3.1,4.87-1.73,3.33a1,1,0,0,0,1.8.93l1.19-2.29.65,1L64,193.62a1,1,0,1,0,1.8.93l.19-.37.77,1.21a1,1,0,1,0,1.71-1.09Z" transform="translate(-9.81 -146.62)"/><path class="cls-6" d="M79.19,502.65l-1.2-.79.37-.19a1,1,0,1,0-.91-1.81l-1.42.71-1-.67,2.31-1.16a1,1,0,0,0-.91-1.81l-3.36,1.68-4.83-3.18,0-.67,1.62.09.72,1.44a1,1,0,0,0,1.81-.91l-.2-.39,1.26.07a1,1,0,1,0,.12-2L72.34,493l.23-.35a1,1,0,0,0-1.69-1.11L70,492.85l-1.61-.09,0-.67,5.17-2.6,3.13,2.06a1,1,0,0,0,1.11-1.69l-2.16-1.42,1.08-.54,1.32.87a1,1,0,0,0,1.11-1.69l-.35-.23,1.28-.64a1,1,0,1,0-.91-1.81L78,485l0-.41a1,1,0,0,0-2-.12l-.09,1.58-1.08.54.15-2.58a1,1,0,0,0-2-.12l-.22,3.75-5.16,2.59-.57-.37.88-1.34,1.6.09a1,1,0,0,0,.12-2l-.44,0,.69-1.06a1,1,0,0,0-1.69-1.11l-.7,1.06-.19-.38a1,1,0,0,0-1.81.91l.71,1.42-.88,1.34-.57-.38.34-5.76L68.4,481a1,1,0,0,0-.91-1.81l-2.31,1.16.07-1.21,1.42-.71a1,1,0,1,0-.91-1.81l-.37.19.08-1.43a1,1,0,0,0-2-.12l-.08,1.43-.35-.23a1,1,0,0,0-1.11,1.69l1.32.87-.07,1.21L61,478.76a1,1,0,1,0-1.11,1.69L63,482.52l-.34,5.74-.62.31-.71-1.41.87-1.33a1,1,0,1,0-1.69-1.11l-.23.35-.57-1.13a1,1,0,1,0-1.81.91l.57,1.13-.44,0a1,1,0,1,0-.12,2l1.6.09.71,1.42-.62.31-4.8-3.16.22-3.75a1,1,0,1,0-2-.12l-.15,2.58-1-.67L52,483.1a1,1,0,0,0-2-.12l0,.41-1.2-.79a1,1,0,0,0-1.11,1.69l1.2.79-.37.19a1,1,0,1,0,.91,1.81l1.42-.71,1,.66-2.31,1.16a1,1,0,1,0,.91,1.81l3.35-1.68,4.79,3.15,0,.7-1.57-.09-.71-1.42a1,1,0,0,0-1.81.91l.19.38-1.27-.07a1,1,0,0,0-.12,2l1.26.07-.24.36a1,1,0,1,0,1.69,1.11l.88-1.34,1.57.09,0,.7-5.12,2.57L50,495.4a1,1,0,0,0-1.11,1.69l2.16,1.42-1.08.54-1.32-.87a1,1,0,0,0-1.11,1.69l.35.23-1.28.64a1,1,0,1,0,.91,1.81l1.28-.64,0,.41a1,1,0,0,0,2,.12l.09-1.58,1.08-.54-.15,2.58a1,1,0,0,0,2,.12l.22-3.75,5.14-2.58.58.38-.87,1.32-1.6-.09a1,1,0,0,0-.12,2l.44,0L57,501.42a1,1,0,1,0,1.69,1.11l.7-1.06.19.38a1,1,0,0,0,1.81-.91l-.71-1.42.87-1.32.58.38-.34,5.74L58.39,506a1,1,0,1,0,.91,1.81l2.31-1.16-.07,1.21-1.42.71a1,1,0,1,0,.91,1.81l.37-.19-.08,1.43a1,1,0,0,0,2,.12l.08-1.43.35.23a1,1,0,0,0,1.11-1.69L63.56,508l.07-1.21,2.16,1.42a1,1,0,0,0,1.11-1.69l-3.14-2.06.34-5.76.61-.31.72,1.43-.87,1.33a1,1,0,1,0,1.69,1.11l.23-.35.57,1.13a1,1,0,0,0,1.81-.91L68.3,501l.44,0a1,1,0,0,0,.12-2l-1.6-.09-.72-1.44.61-.31L72,500.32l-.22,3.75a1,1,0,0,0,2,.12l.15-2.58,1,.66-.09,1.58a1,1,0,1,0,2,.12l0-.41,1.2.79a1,1,0,0,0,1.11-1.69Z" transform="translate(-9.81 -146.62)"/><path class="cls-6" d="M51.4,405.06,50,404.83l.26-.32a1,1,0,1,0-1.58-1.27l-1,1.23-1.2-.19,1.63-2A1,1,0,1,0,46.52,401l-2.36,2.92-5.71-.9-.24-.63,1.51-.58,1.25,1a1,1,0,0,0,1.27-1.58l-.34-.27,1.18-.45a1,1,0,1,0-.73-1.89l-1.19.46.07-.42a1,1,0,1,0-2-.32L39,399.91l-1.51.58-.24-.63,3.64-4.5,3.71.58a1,1,0,0,0,.32-2l-2.55-.4.76-.94,1.57.25a1,1,0,1,0,.32-2l-.41-.06.9-1.11a1,1,0,1,0-1.58-1.27l-.9,1.11-.15-.39a1,1,0,0,0-1.89.73l.57,1.48-.76.94-.93-2.41a1,1,0,0,0-1.89.73l1.35,3.5-3.63,4.49-.67-.11.25-1.59,1.5-.58a1,1,0,1,0-.73-1.89l-.41.16.2-1.25a1,1,0,0,0-2-.32l-.2,1.25-.33-.26A1,1,0,0,0,32,395.57l1.24,1L33,398.15l-.67-.11-2.07-5.39,2.36-2.92A1,1,0,1,0,31,388.47l-1.63,2L29,389.35l1-1.23a1,1,0,0,0-1.58-1.27l-.26.32-.51-1.34a1,1,0,0,0-1.89.73l.51,1.34-.41-.06a1,1,0,0,0-.32,2l1.57.25.43,1.13L25,390.8a1,1,0,0,0-.32,2l3.71.58,2.06,5.36-.44.54-1.23-1,.25-1.57a1,1,0,0,0-2-.32l-.07.42-1-.8a1,1,0,0,0-1.27,1.58l1,.79-.41.16a1,1,0,1,0,.73,1.89l1.5-.58,1.23,1-.44.54-5.68-.9L21.25,397a1,1,0,0,0-1.89.73l.93,2.41-1.2-.19-.57-1.48a1,1,0,0,0-1.89.73l.15.39-1.42-.22a1,1,0,0,0-.32,2l1.42.22-.26.32a1,1,0,1,0,1.58,1.27l1-1.23,1.19.19-1.62,2a1,1,0,1,0,1.58,1.27l2.36-2.92,5.66.89.25.65-1.46.56-1.24-1a1,1,0,1,0-1.27,1.58l.33.26-1.19.46a1,1,0,1,0,.73,1.89l1.18-.45-.07.43a1,1,0,1,0,2,.32l.25-1.59,1.47-.57.25.65-3.6,4.46-3.71-.59a1,1,0,0,0-.32,2l2.55.4-.76.94-1.57-.25a1,1,0,0,0-.32,2l.41.06-.9,1.11A1,1,0,1,0,22.54,418l.9-1.11.15.39a1,1,0,1,0,1.89-.73l-.57-1.48.76-.94.93,2.41a1,1,0,0,0,1.89-.73l-1.35-3.5,3.61-4.47.69.11-.25,1.57-1.5.58a1,1,0,1,0,.73,1.89l.41-.16-.2,1.25a1,1,0,1,0,2,.32l.2-1.25.33.26a1,1,0,0,0,1.27-1.58l-1.24-1,.25-1.56.68.11,2.06,5.36-2.36,2.92A1,1,0,1,0,35.41,418l1.62-2,.43,1.13-1,1.23A1,1,0,1,0,38,419.58l.26-.32.51,1.34a1,1,0,0,0,1.89-.73l-.51-1.34.41.06a1,1,0,0,0,.32-2l-1.57-.25-.43-1.13,2.55.4a1,1,0,0,0,.32-2L38.09,413,36,407.65l.43-.53,1.25,1-.25,1.57a1,1,0,1,0,2,.32l.07-.42,1,.8a1,1,0,0,0,1.27-1.58l-1-.79.41-.16a1,1,0,1,0-.73-1.89l-1.5.58-1.25-1,.43-.53,5.7.9,1.35,3.5a1,1,0,1,0,1.89-.73l-.93-2.41,1.19.19.57,1.48a1,1,0,0,0,1.89-.73l-.15-.39,1.42.22a1,1,0,0,0,.32-2Z" transform="translate(-9.81 -146.62)"/><path class="cls-6" d="M55.84,258.43l-1.35-.49.32-.27a1,1,0,0,0-1.3-1.56l-1.22,1-1.14-.42,2-1.66a1,1,0,1,0-1.3-1.56L49,255.92l-5.43-2-.12-.67L45,253l1,1.23a1,1,0,0,0,1.56-1.3l-.28-.33,1.25-.22a1,1,0,1,0-.35-2l-1.25.22.14-.39a1,1,0,1,0-1.9-.7L44.66,251l-1.59.28L43,250.6l4.44-3.71,3.52,1.29a1,1,0,1,0,.7-1.9l-2.43-.89.93-.78,1.49.55a1,1,0,0,0,.7-1.9l-.39-.14,1.1-.92a1,1,0,1,0-1.3-1.56l-1.1.92-.07-.41a1,1,0,0,0-2,.35l.27,1.56-.93.78-.44-2.55a1,1,0,1,0-2,.35l.64,3.7L41.67,249,41,248.8l.55-1.51,1.58-.28a1,1,0,0,0-.35-2l-.43.07.43-1.19a1,1,0,0,0-1.9-.7l-.44,1.19-.27-.32a1,1,0,0,0-1.56,1.3l1,1.22-.55,1.5-.64-.23-1-5.69,2.88-2.41a1,1,0,1,0-1.3-1.56l-2,1.66-.21-1.19,1.22-1a1,1,0,1,0-1.3-1.56l-.32.27L36.24,235a1,1,0,1,0-2,.35l.25,1.41-.39-.14a1,1,0,1,0-.7,1.9l1.49.55.21,1.19-2.43-.89a1,1,0,1,0-.7,1.9l3.52,1.29,1,5.66-.53.44-1-1.21.55-1.49a1,1,0,0,0-1.9-.7l-.14.39-.81-1a1,1,0,1,0-1.56,1.3l.81,1-.43.07a1,1,0,1,0,.35,2l1.58-.28,1,1.22-.53.44-5.39-2-.64-3.7a1,1,0,0,0-2,.35l.44,2.55-1.14-.42-.27-1.56a1,1,0,0,0-2,.35l.07.41-1.35-.49a1,1,0,1,0-.7,1.9l1.35.49-.32.27a1,1,0,1,0,1.3,1.56l1.22-1,1.14.42-2,1.66a1,1,0,1,0,1.3,1.56l2.88-2.41,5.38,2,.12.69-1.55.27-1-1.22a1,1,0,0,0-1.56,1.3l.27.32-1.25.22a1,1,0,1,0,.35,2l1.25-.22-.15.41a1,1,0,1,0,1.9.7l.55-1.51,1.55-.27.12.69-4.4,3.68L25.82,258a1,1,0,1,0-.7,1.9l2.43.89-.93.78-1.49-.55a1,1,0,1,0-.7,1.9l.39.14-1.1.92a1,1,0,1,0,1.3,1.56l1.1-.92.07.41a1,1,0,0,0,2-.35l-.27-1.56.93-.78.44,2.54a1,1,0,0,0,2-.35l-.64-3.7,4.41-3.68.65.24-.55,1.49-1.58.28a1,1,0,1,0,.35,2l.43-.07-.43,1.19a1,1,0,1,0,1.9.7l.44-1.19.27.32a1,1,0,1,0,1.56-1.3l-1-1.22.54-1.48.65.24,1,5.66-2.88,2.41a1,1,0,1,0,1.3,1.56l2-1.66.21,1.19-1.22,1a1,1,0,1,0,1.3,1.56l.32-.27.25,1.41a1,1,0,0,0,2-.35l-.25-1.41.39.14a1,1,0,1,0,.7-1.9l-1.49-.55L41.64,266l2.43.89a1,1,0,1,0,.7-1.9l-3.53-1.29-1-5.68.52-.44,1,1.23-.55,1.49a1,1,0,1,0,1.9.7l.14-.39.81,1a1,1,0,1,0,1.56-1.3l-.81-1,.43-.07a1,1,0,0,0-.35-2l-1.58.28-1-1.23.52-.44,5.42,2,.64,3.7a1,1,0,0,0,2-.35l-.44-2.54,1.14.42.27,1.56a1,1,0,0,0,2-.35l-.07-.41,1.35.49a1,1,0,1,0,.7-1.9Z" transform="translate(-9.81 -146.62)"/></g><g id="Layer_2_copy_3" data-name="Layer 2 copy 3"><path class="cls-3" d="M430,472.93l4.19-.15-.64-1a3,3,0,0,1,5-3.15l2.46,3.93,3.54-.13-4-6.41a3,3,0,1,1,5-3.15l5.83,9.31,16.91-.61.93-1.75-4.19-2.22-4,2.49a3,3,0,1,1-3.15-5l1.08-.68-3.27-1.73a3,3,0,1,1,2.78-5.24l3.28,1.74,0-1.23a3,3,0,0,1,5.93-.21l.17,4.65,4.17,2.21.93-1.74-9-14.35-11,.39a3,3,0,1,1-.21-5.93l7.55-.27-1.88-3-4.63.17a3,3,0,1,1-.21-5.93l1.21,0-2.23-3.56a3,3,0,0,1,5-3.15l2.23,3.56.57-1.07a3,3,0,1,1,5.24,2.78l-2.17,4.1,1.88,3,3.54-6.68a3,3,0,0,1,5.24,2.78l-5.15,9.7,9,14.31,2-.07-.17-4.7-4.15-2.2a3,3,0,0,1,2.78-5.24l1.13.6-.13-3.7a3,3,0,0,1,5.93-.21l.13,3.71,1-.65a3,3,0,0,1,3.15,5l-3.94,2.47.17,4.69,2-.07,7.91-14.92L490,435.07a3,3,0,0,1,5-3.15l4,6.41,1.66-3.13-2.46-3.93a3,3,0,0,1,5-3.15l.64,1,2-3.71a3,3,0,0,1,5.24,2.78l-2,3.71,1.21,0a3,3,0,0,1,.21,5.93l-4.63.17-1.66,3.13,7.55-.27a3,3,0,0,1,.21,5.93l-11,.39L493.16,462l1.08,1.72,3.92-2.45-.17-4.65a3,3,0,0,1,5.93-.21l0,1.23,3.15-2a3,3,0,0,1,3.15,5l-3.13,2,1.13.6a3,3,0,0,1-2.78,5.24l-4.15-2.2-3.94,2.46,1.08,1.72,16.8-.6,5.15-9.7a3,3,0,1,1,5.24,2.78l-3.54,6.68,3.54-.13,2.17-4.1a3,3,0,0,1,5.24,2.78l-.57,1.07,4.19-.15a3,3,0,1,1,.21,5.93l-4.19.15.64,1a3,3,0,1,1-5,3.15l-2.46-3.93-3.54.13,4,6.41a3,3,0,1,1-5,3.15l-5.83-9.31-16.76.6-1,1.81,4.05,2.15,3.94-2.47a3,3,0,0,1,3.15,5l-1,.65,3.28,1.74a3,3,0,1,1-2.78,5.24l-3.27-1.73,0,1.28a3,3,0,1,1-5.93.21l-.17-4.7L495,483.45l-1,1.81,8.9,14.22,11-.39a3,3,0,1,1,.21,5.93l-7.56.27,1.88,3,4.63-.17a3,3,0,0,1,.21,5.93l-1.21,0,2.23,3.56a3,3,0,1,1-5,3.15L507,517.23l-.57,1.07a3,3,0,1,1-5.24-2.78l2.17-4.1-1.88-3L498,515.11a3,3,0,0,1-5.24-2.78l5.15-9.7L489,488.38l-2,.07.17,4.64,4.15,2.2a3,3,0,1,1-2.78,5.24l-1.13-.6.13,3.7a3,3,0,1,1-5.93.21l-.13-3.71-1,.65a3,3,0,0,1-3.15-5l3.94-2.47-.17-4.62-2,.07-7.88,14.85,5.83,9.31a3,3,0,1,1-5,3.15l-4-6.41-1.66,3.13,2.46,3.93a3,3,0,1,1-5,3.15l-.64-1-2,3.71a3,3,0,0,1-5.24-2.78l2-3.71-1.21,0a3,3,0,0,1-.21-5.93L461,510l1.66-3.13-7.56.27a3,3,0,1,1-.21-5.93l11-.39,7.91-14.92-1.06-1.69-4,2.49.17,4.65a3,3,0,1,1-5.93.21l0-1.23-3.15,2a3,3,0,1,1-3.15-5l3.13-2-1.13-.6a3,3,0,1,1,2.78-5.24l4.15,2.2,4-2.5-1.06-1.69-16.88.6-5.15,9.7a3,3,0,1,1-5.24-2.78l3.54-6.68-3.54.13-2.17,4.1a3,3,0,1,1-5.24-2.78l.57-1.07-4.19.15a3,3,0,1,1-.21-5.93Z" transform="translate(-9.81 -146.62)"/><path class="cls-3" d="M517.32,361.52l4-1.28-.9-.82a3,3,0,1,1,4-4.39l3.43,3.12,3.37-1.08L525.62,352a3,3,0,0,1,4-4.39l8.13,7.39,16.12-5.15.42-1.93-4.63-1-3.16,3.48a3,3,0,1,1-4.39-4l.86-.94-3.61-.79a3,3,0,1,1,1.26-5.79l3.63.79-.37-1.17a3,3,0,0,1,5.65-1.8l1.42,4.43,4.61,1,.42-1.93L543.43,328.8,533,332.15a3,3,0,0,1-1.8-5.65l7.2-2.3-2.62-2.38-4.42,1.41a3,3,0,0,1-1.8-5.65l1.16-.37-3.1-2.82a3,3,0,0,1,4-4.39l3.1,2.82.26-1.19a3,3,0,0,1,5.79,1.26l-1,4.53,2.62,2.38,1.61-7.39a3,3,0,1,1,5.79,1.26l-2.34,10.73,12.49,11.36,1.9-.61-1.43-4.48-4.59-1a3,3,0,0,1,1.26-5.79l1.25.27-1.13-3.52a3,3,0,0,1,5.65-1.8l1.13,3.54.83-.91a3,3,0,0,1,4.39,4L566,328.9l1.43,4.47,1.9-.61,3.59-16.5-8.13-7.39a3,3,0,1,1,4-4.39l5.59,5.09.75-3.46L571.73,303a3,3,0,0,1,4-4.39l.9.82.89-4.1a3,3,0,0,1,5.79,1.26l-.89,4.1,1.16-.37a3,3,0,1,1,1.8,5.65L581,307.37l-.75,3.46,7.2-2.3a3,3,0,1,1,1.8,5.65l-10.46,3.34L575.17,334l1.5,1.37,3.11-3.42-1.42-4.43a3,3,0,0,1,5.65-1.8l.37,1.17,2.5-2.75a3,3,0,0,1,4.39,4l-2.49,2.74,1.25.27a3,3,0,1,1-1.26,5.79l-4.59-1-3.12,3.44,1.5,1.36,16-5.12,2.34-10.73a3,3,0,0,1,5.79,1.26l-1.61,7.39,3.37-1.08,1-4.53a3,3,0,0,1,5.79,1.26l-.26,1.19,4-1.28a3,3,0,0,1,1.8,5.65l-4,1.28.9.82a3,3,0,1,1-4,4.39L610.28,338l-3.37,1.08,5.59,5.08a3,3,0,1,1-4,4.39l-8.12-7.39-16,5.11-.44,2,4.49,1,3.13-3.44a3,3,0,0,1,4.39,4l-.83.91,3.63.79a3,3,0,0,1-1.26,5.79l-3.61-.79.39,1.22a3,3,0,1,1-5.65,1.8l-1.43-4.48-4.5-1-.44,2,12.41,11.28L605.14,364a3,3,0,1,1,1.8,5.65l-7.2,2.3,2.62,2.38,4.42-1.41a3,3,0,0,1,1.8,5.65l-1.16.37,3.1,2.82a3,3,0,1,1-4,4.39l-3.1-2.82-.26,1.19a3,3,0,1,1-5.79-1.26l1-4.53-2.62-2.38-1.61,7.38a3,3,0,1,1-5.79-1.26l2.34-10.73-12.44-11.31-1.93.62,1.41,4.42,4.59,1a3,3,0,0,1-1.26,5.79l-1.25-.27,1.13,3.52a3,3,0,1,1-5.65,1.8l-1.13-3.54-.83.91a3,3,0,1,1-4.39-4l3.13-3.44-1.41-4.4-1.93.62-3.58,16.43,8.12,7.39a3,3,0,1,1-4,4.39l-5.59-5.08-.75,3.46,3.43,3.12a3,3,0,1,1-4,4.39l-.9-.82-.89,4.1a3,3,0,1,1-5.79-1.26l.89-4.1-1.16.37a3,3,0,0,1-1.8-5.65l4.42-1.41.75-3.46-7.2,2.3a3,3,0,0,1-1.8-5.65l10.46-3.34,3.59-16.5-1.48-1.34-3.15,3.47,1.42,4.43a3,3,0,1,1-5.65,1.8l-.37-1.17-2.5,2.75a3,3,0,0,1-4.39-4l2.49-2.74-1.25-.27a3,3,0,0,1,1.26-5.79l4.59,1,3.17-3.48-1.47-1.34-16.09,5.14-2.34,10.73a3,3,0,1,1-5.79-1.26l1.61-7.38-3.37,1.08-1,4.53a3,3,0,1,1-5.79-1.26l.26-1.19-4,1.28a3,3,0,0,1-1.8-5.65Z" transform="translate(-9.81 -146.62)"/><path class="cls-3" d="M431.68,250.75l3-3-1.17-.31a3,3,0,1,1,1.54-5.73l4.48,1.2,2.5-2.5-7.3-2a3,3,0,1,1,1.54-5.73l10.61,2.84,12-12-.51-1.91L453.72,223l-1.22,4.54a3,3,0,1,1-5.73-1.54l.33-1.23-3.57,1A3,3,0,1,1,442,220l3.59-1-.87-.87a3,3,0,1,1,4.19-4.19l3.29,3.29,4.56-1.22-.51-1.91-16.35-4.38-7.77,7.76a3,3,0,0,1-4.19-4.19l5.34-5.34-3.42-.92-3.28,3.28a3,3,0,1,1-4.19-4.19l.86-.86-4.05-1.09a3,3,0,1,1,1.54-5.73l4.05,1.09-.31-1.17a3,3,0,0,1,5.73-1.53l1.2,4.48,3.42.92-2-7.3a3,3,0,1,1,5.73-1.53L441.44,204l16.31,4.37,1.41-1.41-3.33-3.33-4.54,1.22a3,3,0,0,1-1.53-5.73l1.23-.33-2.61-2.62a3,3,0,0,1,4.19-4.19l2.63,2.63.32-1.19a3,3,0,0,1,5.73,1.54l-1.21,4.5,3.32,3.32,1.41-1.41L460.4,185l-10.61-2.84a3,3,0,1,1,1.54-5.73l7.3,2-.92-3.42-4.48-1.2a3,3,0,1,1,1.54-5.73l1.17.31-1.09-4.05a3,3,0,0,1,5.73-1.53l1.09,4.05.86-.86a3,3,0,1,1,4.19,4.19l-3.28,3.28.92,3.42,5.34-5.34a3,3,0,0,1,4.19,4.19l-7.77,7.76,4.35,16.24,2,.53,1.2-4.47-3.29-3.29a3,3,0,1,1,4.19-4.19l.87.87,1-3.59a3,3,0,0,1,5.73,1.54l-1,3.57,1.23-.33a3,3,0,1,1,1.53,5.73l-4.54,1.22-1.2,4.48,2,.53L492,190.44l-2.84-10.61a3,3,0,1,1,5.73-1.53l2,7.3,2.5-2.5-1.2-4.48a3,3,0,0,1,5.73-1.53l.31,1.17,3-3a3,3,0,1,1,4.19,4.19l-3,3,1.17.31a3,3,0,1,1-1.54,5.73l-4.48-1.2-2.5,2.5,7.3,2a3,3,0,1,1-1.54,5.73l-10.61-2.84-11.86,11.86.53,2,4.43-1.19,1.21-4.5a3,3,0,0,1,5.73,1.54l-.32,1.19,3.59-1a3,3,0,0,1,1.53,5.73l-3.57,1,.9.9a3,3,0,1,1-4.19,4.19L490.86,213l-4.45,1.19.53,2,16.2,4.34,7.77-7.77A3,3,0,1,1,515.1,217l-5.35,5.35,3.42.92,3.28-3.28a3,3,0,0,1,4.19,4.19l-.86.86,4.05,1.09a3,3,0,1,1-1.54,5.73l-4.05-1.09.31,1.17a3,3,0,0,1-5.73,1.53l-1.2-4.48-3.42-.92,2,7.3a3,3,0,1,1-5.73,1.53l-2.84-10.61-16.24-4.35-1.44,1.44,3.28,3.28,4.54-1.22a3,3,0,0,1,1.53,5.73l-1.23.33,2.61,2.62a3,3,0,1,1-4.19,4.19l-2.63-2.63-.32,1.19a3,3,0,0,1-5.73-1.54l1.21-4.5-3.27-3.27L478.3,229l4.35,16.24L493.25,248a3,3,0,1,1-1.54,5.73l-7.3-2,.92,3.42,4.48,1.2a3,3,0,1,1-1.54,5.73l-1.17-.31,1.09,4.05a3,3,0,0,1-5.73,1.53l-1.09-4.05-.86.86a3,3,0,0,1-4.19-4.19l3.28-3.28-.92-3.42-5.35,5.35a3,3,0,1,1-4.19-4.19l7.77-7.77-4.37-16.31-1.93-.52-1.21,4.53,3.29,3.29a3,3,0,1,1-4.19,4.19l-.87-.87-1,3.59a3,3,0,0,1-5.73-1.54l1-3.57-1.23.33a3,3,0,0,1-1.53-5.73l4.54-1.22,1.22-4.55-1.92-.52L451,239.79l2.84,10.61a3,3,0,1,1-5.73,1.53l-2-7.3-2.5,2.5,1.2,4.48a3,3,0,1,1-5.73,1.53l-.31-1.17-3,3a3,3,0,1,1-4.19-4.19Z" transform="translate(-9.81 -146.62)"/><path class="cls-4" d="M605,277.13l2.06-2.06-.81-.22a2.06,2.06,0,1,1,1.07-4l3.11.83,1.74-1.74-5.08-1.36a2.06,2.06,0,1,1,1.07-4l7.37,2,8.32-8.31L623.5,257l-3.18.85-.85,3.16a2.06,2.06,0,1,1-4-1.07l.23-.86-2.48.66a2.06,2.06,0,1,1-1.07-4l2.49-.67-.6-.6a2.06,2.06,0,1,1,2.91-2.91l2.29,2.29,3.17-.85-.35-1.33-11.36-3-5.4,5.4a2.06,2.06,0,1,1-2.91-2.91l3.71-3.71-2.38-.64L601.47,249a2.06,2.06,0,0,1-2.91-2.91l.6-.6-2.82-.75a2.06,2.06,0,1,1,1.07-4l2.82.75-.22-.81a2.06,2.06,0,0,1,4-1.07l.83,3.11,2.38.64-1.36-5.08a2.06,2.06,0,1,1,4-1.07l2,7.37,11.34,3,1-1-2.31-2.31-3.16.84a2.06,2.06,0,0,1-1.07-4l.86-.23-1.82-1.82a2.06,2.06,0,0,1,2.91-2.91l1.83,1.83.22-.83a2.06,2.06,0,0,1,4,1.07l-.84,3.12,2.3,2.3,1-1-3-11.33-7.37-2a2.06,2.06,0,0,1,1.07-4l5.08,1.36-.64-2.38-3.11-.83a2.06,2.06,0,1,1,1.07-4l.81.22-.75-2.82a2.06,2.06,0,1,1,4-1.07l.75,2.82.6-.6a2.06,2.06,0,0,1,2.91,2.91l-2.28,2.28.64,2.38,3.71-3.71a2.06,2.06,0,1,1,2.91,2.91l-5.4,5.4,3,11.29,1.36.37.83-3.1-2.29-2.29a2.06,2.06,0,1,1,2.91-2.91l.6.6.67-2.49a2.06,2.06,0,1,1,4,1.07l-.67,2.48.86-.23a2.06,2.06,0,0,1,1.07,4l-3.16.84-.84,3.12,1.36.37,8.26-8.26-2-7.37a2.06,2.06,0,0,1,4-1.07l1.36,5.08,1.74-1.74-.83-3.11a2.06,2.06,0,0,1,4-1.07l.22.81,2.06-2.06a2.06,2.06,0,1,1,2.91,2.91l-2.06,2.06.81.22a2.06,2.06,0,1,1-1.07,4L655,233l-1.74,1.74,5.07,1.36a2.06,2.06,0,1,1-1.07,4l-7.37-2-8.24,8.24.37,1.38,3.08-.83.84-3.12a2.06,2.06,0,0,1,4,1.07l-.22.83,2.49-.67a2.06,2.06,0,0,1,1.07,4l-2.48.66.63.63a2.06,2.06,0,1,1-2.91,2.91l-2.31-2.31-3.09.83.37,1.38,11.26,3,5.4-5.4a2.06,2.06,0,0,1,2.91,2.91l-3.72,3.71,2.38.64,2.28-2.28a2.06,2.06,0,1,1,2.91,2.91l-.6.6,2.82.75a2.06,2.06,0,1,1-1.07,4l-2.82-.75.22.81a2.06,2.06,0,0,1-4,1.07l-.83-3.11-2.38-.64,1.36,5.07a2.06,2.06,0,1,1-4,1.07l-2-7.37-11.29-3-1,1,2.28,2.28,3.16-.84a2.06,2.06,0,0,1,1.07,4l-.86.23,1.82,1.82a2.06,2.06,0,1,1-2.91,2.91L644,266.63l-.22.83a2.06,2.06,0,0,1-4-1.07l.84-3.12L638.4,261l-1,1,3,11.29,7.37,2a2.06,2.06,0,1,1-1.07,4l-5.07-1.36.64,2.38,3.11.83a2.06,2.06,0,1,1-1.07,4l-.81-.22.75,2.82a2.06,2.06,0,1,1-4,1.07l-.75-2.82-.6.6a2.06,2.06,0,0,1-2.91-2.91l2.28-2.28-.64-2.38L634,282.65a2.06,2.06,0,0,1-2.91-2.91l5.4-5.4-3-11.33-1.34-.36-.84,3.15,2.29,2.29A2.06,2.06,0,1,1,630.6,271l-.6-.6-.67,2.49a2.06,2.06,0,1,1-4-1.07l.67-2.48-.86.23a2.06,2.06,0,0,1-1.07-4l3.16-.84.85-3.16-1.34-.36-8.3,8.3,2,7.37a2.06,2.06,0,0,1-4,1.07l-1.36-5.07-1.74,1.74.83,3.11a2.06,2.06,0,0,1-4,1.07L610,278,607.92,280a2.06,2.06,0,1,1-2.91-2.91Z" transform="translate(-9.81 -146.62)"/><path class="cls-4" d="M600.08,498.74l.11-2.91-.75.39a2.06,2.06,0,1,1-1.92-3.64l2.85-1.5.09-2.46-4.65,2.45a2.06,2.06,0,1,1-1.92-3.64l6.75-3.56.45-11.75-1.16-.73-1.75,2.79,1.52,2.89a2.06,2.06,0,1,1-3.64,1.92l-.41-.79-1.37,2.17a2.06,2.06,0,1,1-3.49-2.19l1.38-2.19-.85,0a2.06,2.06,0,1,1,.16-4.12l3.23.12,1.75-2.78-1.16-.73-10.4,5.49-.29,7.63a2.06,2.06,0,1,1-4.12-.16l.2-5.25-2.18,1.15-.12,3.22a2.06,2.06,0,1,1-4.12-.16l0-.84-2.58,1.36a2.06,2.06,0,1,1-1.92-3.64l2.58-1.36-.71-.45a2.06,2.06,0,1,1,2.19-3.49l2.73,1.72,2.18-1.15-4.45-2.8a2.06,2.06,0,0,1,2.19-3.49L583,470.3l10.38-5.48.05-1.38-3.27-.12-1.74,2.76a2.06,2.06,0,1,1-3.49-2.19l.47-.75-2.57-.1a2.06,2.06,0,0,1,.16-4.12l2.58.1-.4-.76a2.06,2.06,0,0,1,3.64-1.92l1.51,2.86,3.26.12.05-1.39-9.93-6.25-6.75,3.56A2.06,2.06,0,1,1,575,451.6l4.65-2.45-2.08-1.31-2.85,1.5a2.06,2.06,0,1,1-1.92-3.64l.75-.39-2.47-1.55a2.06,2.06,0,0,1,2.19-3.49l2.47,1.55,0-.84a2.06,2.06,0,0,1,4.12.16l-.12,3.22,2.08,1.31.2-5.25a2.06,2.06,0,1,1,4.12.16l-.29,7.63,9.89,6.22,1.25-.66-1.5-2.84-3.23-.12a2.06,2.06,0,0,1,.16-4.12l.85,0-1.2-2.28a2.06,2.06,0,0,1,3.64-1.92l1.2,2.27.47-.75a2.06,2.06,0,1,1,3.49,2.19L599.14,449l1.51,2.85,1.25-.66.45-11.67-6.46-4.07a2.06,2.06,0,0,1,2.19-3.49l4.45,2.8.09-2.46-2.73-1.72a2.06,2.06,0,1,1,2.19-3.49l.71.45.11-2.91a2.06,2.06,0,0,1,4.12.16l-.11,2.91.75-.39a2.06,2.06,0,1,1,1.92,3.64l-2.85,1.5-.09,2.46,4.64-2.45a2.06,2.06,0,1,1,1.92,3.64l-6.75,3.56L606,451.31l1.21.76,1.7-2.7-1.51-2.86a2.06,2.06,0,1,1,3.64-1.92l.4.76,1.38-2.19a2.06,2.06,0,1,1,3.49,2.19l-1.37,2.17.89,0a2.06,2.06,0,1,1-.16,4.12l-3.26-.12-1.71,2.71,1.21.76,10.31-5.44.29-7.63a2.06,2.06,0,0,1,4.12.16l-.2,5.25,2.18-1.15.12-3.22a2.06,2.06,0,1,1,4.12.16l0,.84,2.58-1.36a2.06,2.06,0,1,1,1.92,3.64l-2.58,1.36.71.45a2.06,2.06,0,1,1-2.19,3.49l-2.73-1.72L628.36,451l4.44,2.8a2.06,2.06,0,1,1-2.19,3.49l-6.46-4.06-10.33,5.45-.05,1.41,3.22.12,1.74-2.76a2.06,2.06,0,0,1,3.49,2.19l-.47.75,2.57.1a2.06,2.06,0,1,1-.16,4.12l-2.58-.1.4.76a2.06,2.06,0,0,1-3.64,1.92l-1.51-2.86-3.21-.12-.05,1.41,9.89,6.22,6.75-3.56a2.06,2.06,0,1,1,1.92,3.64l-4.65,2.45,2.08,1.31,2.85-1.5a2.06,2.06,0,1,1,1.92,3.64l-.75.39,2.47,1.55a2.06,2.06,0,1,1-2.19,3.49l-2.47-1.55,0,.84a2.06,2.06,0,0,1-4.12-.16l.12-3.22-2.08-1.31-.2,5.25A2.06,2.06,0,1,1,621,483l.29-7.63-9.93-6.25-1.23.65,1.52,2.88,3.23.12a2.06,2.06,0,1,1-.16,4.12l-.85,0,1.2,2.28a2.06,2.06,0,0,1-3.64,1.92l-1.2-2.27-.47.75a2.06,2.06,0,1,1-3.49-2.19l1.74-2.76-1.53-2.89-1.22.65L604.77,484l6.46,4.06a2.06,2.06,0,1,1-2.19,3.49l-4.44-2.8-.09,2.46,2.73,1.72a2.06,2.06,0,1,1-2.19,3.49l-.71-.45-.11,2.91a2.06,2.06,0,0,1-4.12-.16Z" transform="translate(-9.81 -146.62)"/><path class="cls-4" d="M536.21,209.37l2.5-1.5-.74-.41a2.06,2.06,0,1,1,2-3.6l2.82,1.56,2.11-1.27-4.6-2.55a2.06,2.06,0,0,1,2-3.6l6.68,3.7,10.08-6.06,0-1.37-3.29.06-1.58,2.86a2.06,2.06,0,0,1-3.6-2l.43-.78-2.57,0a2.06,2.06,0,1,1-.07-4.12l2.58,0-.44-.73a2.06,2.06,0,0,1,3.53-2.12l1.67,2.77,3.28-.06,0-1.37-10.29-5.7L542.1,187a2.06,2.06,0,1,1-2.12-3.53l4.5-2.7-2.15-1.19-2.76,1.66a2.06,2.06,0,1,1-2.12-3.53l.72-.43-2.55-1.41a2.06,2.06,0,1,1,2-3.6l2.55,1.41v-.84a2.06,2.06,0,1,1,4.12-.07l.06,3.22,2.15,1.19-.09-5.25a2.06,2.06,0,0,1,4.12-.07l.13,7.63,10.26,5.69,1.19-.71-1.68-2.8-3.27.06a2.06,2.06,0,1,1-.07-4.12l.89,0-1.32-2.2a2.06,2.06,0,0,1,3.53-2.12l1.33,2.21.41-.75a2.06,2.06,0,0,1,3.6,2l-1.57,2.83,1.68,2.79,1.19-.71-.2-11.73-6.68-3.7a2.06,2.06,0,1,1,2-3.6l4.6,2.55,0-2.46-2.82-1.56a2.06,2.06,0,0,1,2-3.6l.74.41-.05-2.91a2.06,2.06,0,0,1,4.12-.07l.05,2.91.72-.43a2.06,2.06,0,1,1,2.12,3.53l-2.76,1.66,0,2.46,4.5-2.7a2.06,2.06,0,0,1,2.12,3.53l-6.54,3.93.2,11.68,1.23.68,1.56-2.81-1.67-2.77a2.06,2.06,0,1,1,3.53-2.12l.44.73,1.25-2.26a2.06,2.06,0,1,1,3.6,2l-1.25,2.25.89,0a2.06,2.06,0,1,1,.07,4.12l-3.27.06-1.56,2.82,1.23.68,10-6-.13-7.63a2.06,2.06,0,1,1,4.12-.07l.09,5.25,2.11-1.27-.06-3.22a2.06,2.06,0,1,1,4.12-.07v.84l2.5-1.5a2.06,2.06,0,0,1,2.12,3.53l-2.5,1.5.74.41a2.06,2.06,0,1,1-2,3.6l-2.82-1.56-2.11,1.27,4.59,2.55a2.06,2.06,0,1,1-2,3.6l-6.67-3.7-10,6,0,1.42,3.19-.06,1.57-2.83a2.06,2.06,0,1,1,3.6,2l-.41.75,2.58,0a2.06,2.06,0,1,1,.07,4.12l-2.57,0,.46.76a2.06,2.06,0,1,1-3.53,2.12l-1.68-2.8-3.2.06,0,1.42L589.47,201l6.54-3.93a2.06,2.06,0,0,1,2.12,3.53l-4.5,2.71,2.15,1.19,2.76-1.66a2.06,2.06,0,1,1,2.12,3.53l-.72.43,2.55,1.41a2.06,2.06,0,1,1-2,3.6l-2.55-1.41v.84a2.06,2.06,0,1,1-4.12.07l-.06-3.22-2.15-1.19.09,5.25a2.06,2.06,0,1,1-4.12.07l-.13-7.63-10.22-5.66-1.21.73,1.66,2.76,3.27-.06a2.06,2.06,0,1,1,.07,4.12l-.89,0,1.32,2.2a2.06,2.06,0,1,1-3.53,2.12l-1.33-2.21-.41.75a2.06,2.06,0,1,1-3.6-2l1.57-2.83-1.65-2.75-1.21.73.2,11.68,6.67,3.7a2.06,2.06,0,1,1-2,3.6l-4.59-2.55,0,2.46,2.82,1.56a2.06,2.06,0,1,1-2,3.6l-.74-.41.05,2.91a2.06,2.06,0,0,1-4.12.07l-.05-2.91-.72.43a2.06,2.06,0,0,1-2.12-3.53l2.76-1.66,0-2.46-4.5,2.71a2.06,2.06,0,1,1-2.12-3.53l6.54-3.93-.2-11.73-1.21-.67-1.58,2.85,1.67,2.77a2.06,2.06,0,1,1-3.53,2.12l-.44-.73-1.25,2.26a2.06,2.06,0,1,1-3.6-2l1.25-2.25-.89,0a2.06,2.06,0,0,1-.07-4.12l3.27-.06,1.59-2.86-1.21-.67-10.06,6,.13,7.63a2.06,2.06,0,1,1-4.12.07l-.09-5.25-2.11,1.27.06,3.22a2.06,2.06,0,0,1-4.12.07v-.84l-2.5,1.5a2.06,2.06,0,1,1-2.12-3.53Z" transform="translate(-9.81 -146.62)"/><path class="cls-4" d="M633.45,353.24l2.91-.07-.44-.72a2.06,2.06,0,1,1,3.52-2.14l1.67,2.75,2.46-.06-2.73-4.49a2.06,2.06,0,1,1,3.52-2.14l4,6.52,11.76-.27.66-1.2-2.89-1.58-2.79,1.7a2.06,2.06,0,1,1-2.14-3.52l.76-.46-2.25-1.23a2.06,2.06,0,1,1,2-3.61l2.26,1.24,0-.85a2.06,2.06,0,1,1,4.12-.09l.07,3.23,2.88,1.58.66-1.2-6.11-10.05-7.63.17a2.06,2.06,0,1,1-.09-4.12l5.25-.12-1.28-2.1-3.22.07a2.06,2.06,0,1,1-.09-4.12l.84,0-1.51-2.49a2.06,2.06,0,1,1,3.52-2.14l1.51,2.49.4-.74a2.06,2.06,0,0,1,3.61,2l-1.55,2.83,1.28,2.1,2.52-4.61a2.06,2.06,0,0,1,3.61,2l-3.67,6.7,6.1,10,1.38,0-.07-3.27-2.87-1.57a2.06,2.06,0,0,1,2-3.61l.78.43-.06-2.57a2.06,2.06,0,0,1,4.12-.09l.06,2.58.73-.44a2.06,2.06,0,0,1,2.14,3.52l-2.76,1.68.07,3.26,1.39,0L679.43,334l-4-6.52a2.06,2.06,0,0,1,3.52-2.14l2.73,4.49,1.18-2.16-1.67-2.75a2.06,2.06,0,0,1,3.52-2.14l.44.72,1.4-2.56a2.06,2.06,0,1,1,3.61,2l-1.4,2.56.84,0a2.06,2.06,0,0,1,.09,4.12l-3.22.07-1.18,2.16,5.25-.12a2.06,2.06,0,1,1,.09,4.12L683,336l-5.61,10.25.73,1.21,2.75-1.67-.07-3.23a2.06,2.06,0,1,1,4.12-.09l0,.85,2.21-1.34a2.06,2.06,0,0,1,2.14,3.52l-2.2,1.34.78.43a2.06,2.06,0,0,1-2,3.61l-2.87-1.57L680.31,351l.73,1.2,11.68-.27,3.67-6.7a2.06,2.06,0,0,1,3.61,2l-2.52,4.61,2.46-.06,1.55-2.83a2.06,2.06,0,1,1,3.61,2l-.4.74,2.91-.07a2.06,2.06,0,0,1,.09,4.12l-2.91.07.44.72a2.06,2.06,0,1,1-3.52,2.14L700,355.85l-2.46.06,2.73,4.49a2.06,2.06,0,1,1-3.52,2.14l-4-6.52-11.65.27-.68,1.25,2.8,1.53,2.76-1.68a2.06,2.06,0,0,1,2.14,3.52l-.73.44,2.26,1.24a2.06,2.06,0,1,1-2,3.61L685.48,365l0,.89a2.06,2.06,0,1,1-4.12.09l-.07-3.27-2.81-1.54-.68,1.25,6.06,10,7.63-.17a2.06,2.06,0,1,1,.09,4.12l-5.25.12,1.28,2.1,3.22-.07a2.06,2.06,0,0,1,.09,4.12l-.84,0,1.51,2.49a2.06,2.06,0,1,1-3.52,2.14l-1.51-2.49-.4.74a2.06,2.06,0,1,1-3.61-2l1.55-2.83-1.28-2.1-2.52,4.61a2.06,2.06,0,0,1-3.61-2l3.66-6.69-6.07-10-1.41,0,.07,3.22,2.87,1.57a2.06,2.06,0,0,1-2,3.61l-.78-.43.06,2.57a2.06,2.06,0,1,1-4.12.09l-.06-2.58-.73.44a2.06,2.06,0,0,1-2.14-3.52l2.76-1.68-.07-3.21-1.41,0-5.61,10.25,4,6.52a2.06,2.06,0,1,1-3.52,2.14l-2.73-4.49-1.18,2.16,1.67,2.75a2.06,2.06,0,1,1-3.52,2.14l-.44-.72-1.4,2.56a2.06,2.06,0,0,1-3.61-2l1.4-2.56-.84,0a2.06,2.06,0,1,1-.09-4.12l3.22-.07,1.18-2.16-5.25.12a2.06,2.06,0,0,1-.09-4.12l7.63-.17,5.63-10.29-.72-1.19-2.78,1.69.07,3.23a2.06,2.06,0,1,1-4.12.09l0-.85L654,367a2.06,2.06,0,0,1-2.14-3.52l2.2-1.34-.78-.43a2.06,2.06,0,0,1,2-3.61l2.87,1.57,2.79-1.7-.72-1.18-11.73.27-3.66,6.69a2.06,2.06,0,1,1-3.61-2l2.52-4.61-2.46.06L639.67,360a2.06,2.06,0,0,1-3.61-2l.4-.74-2.91.07a2.06,2.06,0,0,1-.09-4.12Z" transform="translate(-9.81 -146.62)"/><path class="cls-5" d="M645.09,522.31l1.5-1-.48-.22a1.29,1.29,0,1,1,1.1-2.32l1.82.86,1.26-.87-3-1.4a1.29,1.29,0,1,1,1.1-2.32l4.31,2,6-4.18-.07-.85-2,.17-.87,1.84a1.29,1.29,0,0,1-2.32-1.1l.24-.5-1.6.13a1.29,1.29,0,1,1-.21-2.56l1.61-.13-.3-.44a1.29,1.29,0,0,1,2.11-1.46l1.15,1.66,2-.17-.07-.85-6.63-3.14-3.91,2.71A1.29,1.29,0,1,1,646.4,506l2.69-1.86-1.39-.66-1.65,1.14a1.29,1.29,0,0,1-1.46-2.11l.43-.3-1.64-.78a1.29,1.29,0,1,1,1.1-2.32l1.64.78,0-.52a1.29,1.29,0,0,1,2.56-.21l.16,2,1.39.66-.27-3.27a1.29,1.29,0,1,1,2.56-.21l.39,4.75,6.62,3.13.71-.49L659,504.08l-2,.17a1.29,1.29,0,1,1-.21-2.56l.55,0-.91-1.32a1.29,1.29,0,0,1,2.11-1.46l.92,1.32.23-.48a1.29,1.29,0,0,1,2.32,1.1l-.86,1.82,1.16,1.67.71-.49-.6-7.3-4.31-2a1.29,1.29,0,1,1,1.1-2.32l3,1.4-.13-1.53-1.82-.86a1.29,1.29,0,1,1,1.1-2.32l.48.22-.15-1.81a1.29,1.29,0,1,1,2.56-.21l.15,1.81.43-.3a1.29,1.29,0,0,1,1.46,2.11l-1.65,1.14.13,1.53,2.69-1.86a1.29,1.29,0,0,1,1.46,2.11L665,496.29l.6,7.26.8.38.86-1.81-1.15-1.66a1.29,1.29,0,1,1,2.11-1.46l.3.44.69-1.46a1.29,1.29,0,0,1,2.32,1.1l-.69,1.45.55,0a1.29,1.29,0,0,1,.21,2.56l-2,.17-.86,1.82.8.38,6-4.15-.39-4.75a1.29,1.29,0,1,1,2.56-.21l.27,3.27,1.26-.87-.16-2a1.29,1.29,0,0,1,2.56-.21l0,.52,1.5-1a1.29,1.29,0,0,1,1.46,2.11l-1.5,1,.48.22a1.29,1.29,0,1,1-1.1,2.32l-1.82-.86-1.26.87,3,1.4a1.29,1.29,0,1,1-1.1,2.32l-4.3-2-6,4.14.07.89,2-.16.86-1.82a1.29,1.29,0,0,1,2.32,1.1L676,508l1.61-.13a1.29,1.29,0,1,1,.21,2.56l-1.6.13.32.46a1.29,1.29,0,1,1-2.11,1.46l-1.16-1.68-2,.16.07.89,6.57,3.11,3.92-2.71a1.29,1.29,0,0,1,1.46,2.11l-2.69,1.87,1.39.66,1.65-1.14a1.29,1.29,0,1,1,1.46,2.11l-.43.3,1.64.78a1.29,1.29,0,1,1-1.1,2.32l-1.64-.78,0,.52a1.29,1.29,0,0,1-2.56.21l-.16-2-1.39-.66.27,3.27a1.29,1.29,0,1,1-2.56.21l-.39-4.74-6.59-3.12-.72.5,1.15,1.65,2-.17a1.29,1.29,0,1,1,.21,2.56l-.55,0,.91,1.32a1.29,1.29,0,1,1-2.11,1.46l-.92-1.32-.23.48a1.29,1.29,0,0,1-2.32-1.1l.86-1.82-1.14-1.65-.72.5.6,7.26,4.3,2a1.29,1.29,0,1,1-1.1,2.32l-3-1.4.13,1.53,1.82.86a1.29,1.29,0,1,1-1.1,2.32l-.48-.22.15,1.81a1.29,1.29,0,0,1-2.56.21l-.15-1.81-.43.3a1.29,1.29,0,0,1-1.46-2.11l1.65-1.14-.13-1.53-2.69,1.87a1.29,1.29,0,1,1-1.46-2.11l3.92-2.71-.6-7.3-.78-.37-.87,1.84,1.15,1.66a1.29,1.29,0,1,1-2.11,1.46l-.3-.44-.69,1.46a1.29,1.29,0,0,1-2.32-1.1l.69-1.45-.55,0a1.29,1.29,0,1,1-.21-2.56l2-.17.87-1.84-.78-.37-6,4.17.39,4.74a1.29,1.29,0,1,1-2.56.21l-.27-3.27-1.26.87.16,2a1.29,1.29,0,1,1-2.56.21l0-.52-1.5,1a1.29,1.29,0,0,1-1.46-2.11Z" transform="translate(-9.81 -146.62)"/><path class="cls-5" d="M641.47,192.55l1.5-1-.48-.22a1.29,1.29,0,0,1,1.1-2.32l1.82.86,1.26-.87-3-1.4a1.29,1.29,0,1,1,1.1-2.32l4.31,2,6-4.18-.07-.85-2,.17-.87,1.84a1.29,1.29,0,1,1-2.32-1.1l.24-.5-1.6.13a1.29,1.29,0,1,1-.21-2.56l1.61-.13-.3-.44a1.29,1.29,0,1,1,2.11-1.46l1.15,1.66,2-.17-.07-.85-6.63-3.14-3.91,2.71a1.29,1.29,0,0,1-1.46-2.11l2.69-1.86-1.39-.66-1.65,1.14a1.29,1.29,0,0,1-1.46-2.11l.43-.3-1.64-.78a1.29,1.29,0,1,1,1.1-2.32l1.64.78,0-.52a1.29,1.29,0,1,1,2.56-.21l.16,2,1.39.66-.27-3.27a1.29,1.29,0,0,1,2.56-.21l.39,4.75,6.62,3.13.71-.49-1.16-1.68-2,.17a1.29,1.29,0,1,1-.21-2.56l.55,0-.91-1.32a1.29,1.29,0,0,1,2.11-1.46l.92,1.32.23-.48a1.29,1.29,0,0,1,2.32,1.1l-.86,1.82,1.16,1.67.71-.49-.6-7.3-4.31-2a1.29,1.29,0,0,1,1.1-2.32l3,1.4-.13-1.53-1.82-.86a1.29,1.29,0,0,1,1.1-2.32l.48.22-.15-1.81a1.29,1.29,0,0,1,2.56-.21l.15,1.81.43-.3a1.29,1.29,0,0,1,1.46,2.11L661,162l.13,1.53,2.69-1.86a1.29,1.29,0,1,1,1.46,2.11l-3.91,2.71.6,7.26.8.38.86-1.81-1.15-1.66a1.29,1.29,0,1,1,2.11-1.46l.3.44.69-1.46a1.29,1.29,0,0,1,2.32,1.1l-.69,1.45.55,0a1.29,1.29,0,0,1,.21,2.56l-2,.17-.86,1.82.8.38,6-4.15-.39-4.75a1.29,1.29,0,0,1,2.56-.21l.27,3.27,1.26-.87-.16-2a1.29,1.29,0,1,1,2.56-.21l0,.52,1.5-1a1.29,1.29,0,1,1,1.46,2.11l-1.5,1,.48.22a1.29,1.29,0,1,1-1.1,2.32L677,171l-1.26.87,3,1.4a1.29,1.29,0,1,1-1.1,2.32l-4.3-2-6,4.14.07.89,2-.16.86-1.82a1.29,1.29,0,0,1,2.32,1.1l-.23.48,1.61-.13a1.29,1.29,0,0,1,.21,2.56l-1.6.13.32.46a1.29,1.29,0,1,1-2.11,1.46L669.63,181l-2,.16.07.89,6.57,3.11,3.92-2.71a1.29,1.29,0,1,1,1.46,2.11L677,186.46l1.39.66L680,186a1.29,1.29,0,1,1,1.46,2.11l-.43.3,1.64.78a1.29,1.29,0,1,1-1.1,2.32l-1.64-.78,0,.52a1.29,1.29,0,1,1-2.56.21l-.16-2-1.39-.66.27,3.27a1.29,1.29,0,1,1-2.56.21l-.39-4.74-6.59-3.12-.72.5,1.15,1.65,2-.17a1.29,1.29,0,1,1,.21,2.56l-.55,0,.91,1.32a1.29,1.29,0,1,1-2.11,1.46l-.92-1.32-.23.48a1.29,1.29,0,1,1-2.32-1.1l.86-1.82-1.14-1.65-.72.5.6,7.26,4.3,2a1.29,1.29,0,1,1-1.1,2.32l-3-1.4.13,1.53,1.82.86a1.29,1.29,0,1,1-1.1,2.32l-.48-.22.15,1.81a1.29,1.29,0,0,1-2.56.21l-.15-1.81-.43.3a1.29,1.29,0,1,1-1.46-2.11l1.65-1.14-.13-1.53-2.69,1.87a1.29,1.29,0,0,1-1.46-2.11l3.92-2.71-.6-7.3-.78-.37-.87,1.84,1.15,1.66a1.29,1.29,0,1,1-2.11,1.46l-.3-.44-.69,1.46a1.29,1.29,0,1,1-2.32-1.1l.69-1.45-.55,0a1.29,1.29,0,0,1-.21-2.56l2-.17.87-1.84-.78-.37-6,4.17.39,4.74a1.29,1.29,0,1,1-2.56.21l-.27-3.27-1.26.87.16,2a1.29,1.29,0,1,1-2.56.21l0-.52-1.5,1a1.29,1.29,0,1,1-1.46-2.11Z" transform="translate(-9.81 -146.62)"/><path class="cls-5" d="M662.35,436.31l1.8-.22-.32-.42a1.29,1.29,0,1,1,2.05-1.55l1.21,1.6,1.52-.19-2-2.62a1.29,1.29,0,0,1,2.05-1.55l2.87,3.8,7.28-.9.33-.79-1.89-.8-1.63,1.23a1.29,1.29,0,0,1-1.55-2.05l.44-.33-1.48-.63a1.29,1.29,0,1,1,1-2.37l1.48.63-.07-.53a1.29,1.29,0,1,1,2.55-.31l.25,2,1.88.8.33-.79-4.42-5.86-4.72.58a1.29,1.29,0,1,1-.31-2.55l3.25-.4-.92-1.23-2,.25a1.29,1.29,0,1,1-.31-2.55l.52-.06-1.09-1.45a1.29,1.29,0,0,1,2.05-1.55l1.09,1.45.21-.48a1.29,1.29,0,1,1,2.37,1l-.78,1.85.92,1.23,1.28-3a1.29,1.29,0,1,1,2.37,1l-1.86,4.38,4.41,5.85.86-.11-.25-2-1.88-.8a1.29,1.29,0,0,1,1-2.37l.51.22-.2-1.59a1.29,1.29,0,0,1,2.55-.31l.2,1.6.43-.32a1.29,1.29,0,0,1,1.55,2.05l-1.61,1.21.25,2,.86-.11,2.86-6.74-2.87-3.8a1.29,1.29,0,0,1,2.05-1.55l2,2.62.6-1.41-1.21-1.6a1.29,1.29,0,0,1,2.05-1.55l.32.42.71-1.67a1.29,1.29,0,1,1,2.37,1l-.71,1.67.52-.06a1.29,1.29,0,0,1,.31,2.55l-2,.25-.6,1.41,3.25-.4a1.29,1.29,0,0,1,.31,2.55l-4.72.58-2.85,6.71.53.7,1.6-1.21-.25-2a1.29,1.29,0,1,1,2.55-.31l.07.53,1.29-1a1.29,1.29,0,1,1,1.55,2.05l-1.28,1,.51.22a1.29,1.29,0,0,1-1,2.37l-1.88-.8L691.29,432l.53.7,7.23-.89,1.86-4.38a1.29,1.29,0,1,1,2.37,1l-1.28,3,1.52-.19.78-1.85a1.29,1.29,0,0,1,2.37,1l-.21.48,1.8-.22a1.29,1.29,0,0,1,.31,2.55l-1.8.22.32.42A1.29,1.29,0,1,1,705,435.4l-1.21-1.6-1.52.19,2,2.62a1.29,1.29,0,1,1-2.05,1.55l-2.87-3.8-7.22.89-.35.82,1.83.78,1.61-1.21a1.29,1.29,0,0,1,1.55,2.05l-.43.32,1.48.63a1.29,1.29,0,1,1-1,2.37l-1.48-.63.07.55a1.29,1.29,0,1,1-2.55.31l-.25-2-1.84-.78-.35.82,4.38,5.81,4.73-.58a1.29,1.29,0,1,1,.31,2.55l-3.25.4.92,1.23,2-.25a1.29,1.29,0,1,1,.31,2.55l-.52.06,1.09,1.45a1.29,1.29,0,1,1-2.05,1.55l-1.09-1.45-.21.48a1.29,1.29,0,1,1-2.37-1l.78-1.85-.92-1.23-1.28,3a1.29,1.29,0,0,1-2.37-1l1.86-4.38-4.39-5.82-.87.11.25,2,1.88.8a1.29,1.29,0,1,1-1,2.37l-.51-.22.2,1.59a1.29,1.29,0,1,1-2.55.31l-.2-1.6-.43.32a1.29,1.29,0,0,1-1.55-2.05l1.61-1.21-.24-2-.87.11L681.25,448l2.87,3.8a1.29,1.29,0,1,1-2.05,1.55l-2-2.62-.6,1.41,1.21,1.6a1.29,1.29,0,1,1-2.05,1.55l-.32-.42-.71,1.67a1.29,1.29,0,1,1-2.37-1l.71-1.67-.52.06a1.29,1.29,0,1,1-.31-2.55l2-.25.6-1.41-3.25.4a1.29,1.29,0,0,1-.31-2.55l4.73-.58,2.86-6.74-.52-.69-1.62,1.22.25,2a1.29,1.29,0,1,1-2.55.31l-.07-.53-1.29,1a1.29,1.29,0,0,1-1.55-2.05l1.28-1-.51-.22a1.29,1.29,0,1,1,1-2.37l1.88.8,1.63-1.23-.52-.69-7.27.89L670,442.11a1.29,1.29,0,0,1-2.37-1l1.28-3-1.52.19-.78,1.85a1.29,1.29,0,1,1-2.37-1l.21-.48-1.8.22a1.29,1.29,0,0,1-.31-2.55Z" transform="translate(-9.81 -146.62)"/><path class="cls-5" d="M719.87,332.9l1.65-.77-.43-.3a1.29,1.29,0,0,1,1.47-2.11l1.65,1.15,1.39-.65-2.69-1.88a1.29,1.29,0,1,1,1.47-2.11l3.9,2.73,6.65-3.1L735,325l-2-.18-1.17,1.67a1.29,1.29,0,1,1-2.11-1.47l.32-.45-1.6-.14a1.29,1.29,0,1,1,.22-2.56l1.6.14-.23-.48a1.29,1.29,0,1,1,2.33-1.09l.85,1.83,2,.18.07-.85-6-4.21-4.31,2a1.29,1.29,0,0,1-1.09-2.33l3-1.38-1.26-.88-1.82.85a1.29,1.29,0,0,1-1.09-2.33l.48-.22-1.49-1a1.29,1.29,0,1,1,1.47-2.11l1.49,1,0-.52a1.29,1.29,0,0,1,2.56.22l-.18,2,1.26.88.29-3.27a1.29,1.29,0,0,1,2.56.22l-.42,4.74,6,4.2.78-.37-.86-1.85-2-.18a1.29,1.29,0,1,1,.22-2.56l.55,0-.68-1.45a1.29,1.29,0,0,1,2.33-1.09l.68,1.46.31-.44a1.29,1.29,0,0,1,2.11,1.47L739,316.2l.86,1.84.78-.37.64-7.29-3.9-2.73a1.29,1.29,0,0,1,1.47-2.11l2.69,1.88.13-1.53-1.65-1.15a1.29,1.29,0,0,1,1.47-2.11l.43.3.16-1.81a1.29,1.29,0,1,1,2.56.22l-.16,1.81.48-.22a1.29,1.29,0,0,1,1.09,2.33l-1.82.85-.13,1.53,3-1.38a1.29,1.29,0,1,1,1.09,2.33l-4.31,2-.64,7.26.72.5,1.15-1.64-.85-1.83a1.29,1.29,0,0,1,2.33-1.09l.23.48.92-1.32a1.29,1.29,0,1,1,2.11,1.47l-.92,1.31.55,0a1.29,1.29,0,1,1-.22,2.56l-2-.18-1.15,1.65.72.5,6.6-3.08.42-4.74a1.29,1.29,0,1,1,2.56.22l-.29,3.27,1.39-.65.18-2a1.29,1.29,0,1,1,2.56.22l0,.52,1.65-.77a1.29,1.29,0,0,1,1.09,2.33l-1.65.77.43.3a1.29,1.29,0,1,1-1.47,2.11l-1.65-1.15-1.39.65,2.68,1.88a1.29,1.29,0,1,1-1.47,2.11l-3.9-2.73-6.59,3.07-.08.89,2,.17,1.16-1.65a1.29,1.29,0,1,1,2.11,1.47l-.31.44,1.6.14a1.29,1.29,0,1,1-.22,2.56l-1.6-.14.23.5a1.29,1.29,0,1,1-2.33,1.09l-.86-1.85-2-.17-.08.89,6,4.17,4.32-2a1.29,1.29,0,1,1,1.09,2.33l-3,1.39,1.26.88,1.82-.85a1.29,1.29,0,0,1,1.09,2.33l-.48.22,1.49,1a1.29,1.29,0,1,1-1.47,2.11l-1.49-1,0,.52a1.29,1.29,0,1,1-2.56-.22l.18-2-1.26-.88-.29,3.26a1.29,1.29,0,1,1-2.56-.22l.41-4.74-6-4.18-.8.37.85,1.82,2,.18a1.29,1.29,0,1,1-.22,2.56l-.55,0,.68,1.45a1.29,1.29,0,1,1-2.33,1.09l-.68-1.46-.31.44a1.29,1.29,0,1,1-2.11-1.47l1.16-1.65-.85-1.82-.8.37-.64,7.26,3.9,2.73a1.29,1.29,0,1,1-1.47,2.11l-2.68-1.88-.13,1.53,1.65,1.15a1.29,1.29,0,1,1-1.47,2.11l-.43-.3-.16,1.81a1.29,1.29,0,0,1-2.56-.22l.16-1.81-.48.22a1.29,1.29,0,0,1-1.09-2.33l1.82-.85.13-1.53-3,1.39a1.29,1.29,0,0,1-1.09-2.33l4.32-2,.64-7.29-.71-.5-1.17,1.66.85,1.83a1.29,1.29,0,1,1-2.33,1.09l-.23-.48L735,335.6a1.29,1.29,0,0,1-2.11-1.47l.92-1.31-.55,0a1.29,1.29,0,1,1,.22-2.56l2,.18,1.17-1.67-.71-.5-6.63,3.09-.41,4.74a1.29,1.29,0,0,1-2.56-.22l.29-3.26-1.39.65-.18,2a1.29,1.29,0,0,1-2.56-.22l0-.52-1.65.77a1.29,1.29,0,1,1-1.09-2.33Z" transform="translate(-9.81 -146.62)"/><path class="cls-5" d="M699.13,251.33l.7-1.68-.52.07a1.29,1.29,0,1,1-.33-2.55l2-.26.59-1.42-3.25.42a1.29,1.29,0,0,1-.33-2.55l4.72-.61,2.83-6.77-.52-.68-1.63,1.24.26,2a1.29,1.29,0,1,1-2.55.33l-.07-.55-1.28,1a1.29,1.29,0,1,1-1.56-2l1.28-1-.49-.21a1.29,1.29,0,0,1,1-2.37l1.86.78,1.63-1.24-.52-.68-7.28.93-1.84,4.39a1.29,1.29,0,1,1-2.37-1l1.26-3-1.52.19-.78,1.85a1.29,1.29,0,1,1-2.37-1l.2-.49-1.8.23a1.29,1.29,0,1,1-.33-2.55l1.8-.23-.32-.42a1.29,1.29,0,0,1,2-1.56l1.22,1.6,1.52-.2-2-2.61a1.29,1.29,0,0,1,2-1.56l2.89,3.79,7.26-.93.33-.8-1.88-.79-1.62,1.23a1.29,1.29,0,0,1-1.56-2l.44-.34-1.48-.62a1.29,1.29,0,0,1,1-2.37l1.49.62-.07-.53a1.29,1.29,0,0,1,2.55-.33l.26,2,1.88.78.33-.8-4.44-5.82-4.72.61a1.29,1.29,0,1,1-.33-2.55l3.25-.42-.93-1.22-2,.26a1.29,1.29,0,1,1-.33-2.55l.52-.07-1.1-1.45a1.29,1.29,0,1,1,2-1.56l1.1,1.45.2-.49a1.29,1.29,0,0,1,2.37,1l-.78,1.85.93,1.22,1.26-3a1.29,1.29,0,1,1,2.37,1l-1.84,4.39,4.42,5.8.87-.11-.25-2-1.86-.78a1.29,1.29,0,0,1,1-2.37l.49.21-.2-1.6a1.29,1.29,0,1,1,2.55-.33l.2,1.59.44-.34a1.29,1.29,0,0,1,1.56,2l-1.62,1.23.26,2,.87-.11,2.81-6.72-2.89-3.79a1.29,1.29,0,1,1,2-1.56l2,2.61.59-1.42-1.22-1.6a1.29,1.29,0,1,1,2-1.56l.32.42.7-1.68a1.29,1.29,0,0,1,2.37,1l-.7,1.68.52-.07a1.29,1.29,0,1,1,.33,2.55l-2,.26-.59,1.42,3.25-.42a1.29,1.29,0,1,1,.33,2.55l-4.72.6L713,224.92l.54.71,1.58-1.21-.26-2a1.29,1.29,0,1,1,2.55-.33l.07.53,1.28-1a1.29,1.29,0,0,1,1.56,2l-1.28,1,.51.21a1.29,1.29,0,1,1-1,2.37l-1.88-.79-1.59,1.21.54.71,7.21-.92,1.84-4.39a1.29,1.29,0,1,1,2.37,1l-1.26,3,1.52-.2.78-1.85a1.29,1.29,0,0,1,2.37,1l-.2.49,1.8-.23a1.29,1.29,0,1,1,.33,2.55l-1.8.23.32.42a1.29,1.29,0,0,1-2,1.56l-1.22-1.6-1.52.19,2,2.61a1.29,1.29,0,0,1-2,1.56L723.14,230l-7.23.93-.34.81,1.86.78,1.62-1.23a1.29,1.29,0,0,1,1.56,2l-.44.34,1.48.62a1.29,1.29,0,1,1-1,2.37l-1.49-.62.07.53a1.29,1.29,0,1,1-2.55.33l-.26-2-1.85-.77-.34.81,4.42,5.8,4.72-.6a1.29,1.29,0,1,1,.33,2.55l-3.25.42.93,1.22,2-.26a1.29,1.29,0,1,1,.33,2.55l-.52.07,1.1,1.45a1.29,1.29,0,0,1-2,1.56l-1.1-1.45-.2.49a1.29,1.29,0,1,1-2.37-1l.78-1.85-.93-1.22-1.26,3a1.29,1.29,0,0,1-2.37-1l1.84-4.39-4.44-5.82-.86.11.26,2,1.86.78a1.29,1.29,0,1,1-1,2.37l-.49-.21.2,1.6a1.29,1.29,0,1,1-2.55.33l-.2-1.59-.44.34a1.29,1.29,0,0,1-1.56-2l1.62-1.23-.26-2-.86.11-2.82,6.75,2.88,3.79a1.29,1.29,0,1,1-2,1.56l-2-2.61-.59,1.42,1.22,1.6a1.29,1.29,0,1,1-2,1.56l-.32-.42-.7,1.68a1.29,1.29,0,0,1-2.37-1Z" transform="translate(-9.81 -146.62)"/><path class="cls-6" d="M728.37,194.3l.77-1.21-.41,0a1,1,0,1,1,.09-2l1.58.07.65-1-2.58-.11a1,1,0,1,1,.09-2l3.75.17,3.11-4.88-.31-.6-1.44.75-.07,1.6a1,1,0,1,1-2-.09l0-.44-1.12.58a1,1,0,1,1-.93-1.8l1.13-.59-.35-.23a1,1,0,1,1,1.09-1.71l1.34.86,1.43-.74-.31-.6-5.78-.26-2,3.16a1,1,0,0,1-1.71-1.09l1.39-2.18-1.21-.05-.85,1.34a1,1,0,1,1-1.71-1.09l.22-.35-1.43-.06a1,1,0,1,1,.09-2l1.43.06-.19-.37a1,1,0,0,1,1.8-.93l.73,1.41,1.21.05-1.19-2.29a1,1,0,1,1,1.8-.93l1.73,3.33,5.77.26.37-.57-1.36-.87-1.43.74a1,1,0,1,1-.93-1.8l.39-.2-1.07-.68a1,1,0,0,1,1.09-1.71l1.07.68,0-.42a1,1,0,0,1,2,.09l-.07,1.59,1.35.86.37-.58-2.66-5.12-3.75-.17a1,1,0,1,1,.09-2l2.58.11-.56-1.07-1.58-.07a1,1,0,1,1,.09-2l.41,0-.66-1.27a1,1,0,0,1,1.8-.93l.66,1.27.22-.35a1,1,0,1,1,1.71,1.09l-.85,1.34.56,1.07,1.39-2.18a1,1,0,1,1,1.71,1.09l-2,3.16,2.65,5.1.69,0,.07-1.58L737,172a1,1,0,1,1,1.09-1.71l.35.23.06-1.27a1,1,0,1,1,2,.09l-.06,1.26.39-.2a1,1,0,1,1,.93,1.8l-1.43.74-.07,1.59.69,0,3.09-4.84-1.73-3.33a1,1,0,0,1,1.8-.93l1.19,2.29.65-1-.73-1.41a1,1,0,0,1,1.8-.93l.19.37.77-1.21a1,1,0,0,1,1.71,1.09l-.77,1.21.41,0a1,1,0,1,1-.09,2l-1.58-.07-.65,1,2.58.11a1,1,0,1,1-.09,2l-3.75-.17-3.08,4.83.32.62,1.39-.72.07-1.59a1,1,0,1,1,2,.09l0,.42,1.13-.59a1,1,0,1,1,.93,1.8l-1.12.58.37.23a1,1,0,1,1-1.09,1.71l-1.35-.86-1.4.73.32.62,5.73.25,2-3.16a1,1,0,0,1,1.71,1.09l-1.39,2.18,1.21.05.85-1.34a1,1,0,1,1,1.71,1.09l-.22.35,1.43.06a1,1,0,1,1-.09,2l-1.43-.06.19.37a1,1,0,1,1-1.8.93l-.73-1.41-1.21-.05,1.19,2.29a1,1,0,0,1-1.8.93L749.89,181l-5.74-.25-.37.59,1.34.85,1.43-.74a1,1,0,1,1,.93,1.8l-.39.2,1.07.68a1,1,0,1,1-1.09,1.71l-1.07-.68,0,.42a1,1,0,1,1-2-.09l.07-1.59-1.33-.85-.37.58,2.65,5.1,3.75.17a1,1,0,1,1-.09,2l-2.58-.11.56,1.07,1.58.07a1,1,0,1,1-.09,2l-.41,0,.66,1.27a1,1,0,1,1-1.8.93l-.66-1.27-.22.35a1,1,0,0,1-1.71-1.09l.85-1.34-.56-1.07-1.39,2.18a1,1,0,0,1-1.71-1.09l2-3.16-2.66-5.12-.68,0-.07,1.6,1.34.86a1,1,0,1,1-1.09,1.71l-.35-.23-.06,1.27a1,1,0,1,1-2-.09l.06-1.26-.39.2a1,1,0,1,1-.93-1.8l1.43-.74.07-1.61-.68,0-3.1,4.87,1.73,3.33a1,1,0,0,1-1.8.93l-1.19-2.29-.65,1,.73,1.41a1,1,0,1,1-1.8.93l-.19-.37-.77,1.21a1,1,0,1,1-1.71-1.09Z" transform="translate(-9.81 -146.62)"/><path class="cls-6" d="M717.68,502.65l1.2-.79-.37-.19a1,1,0,1,1,.91-1.81l1.42.71,1-.67-2.31-1.16a1,1,0,0,1,.91-1.81l3.36,1.68,4.83-3.18,0-.67-1.62.09-.72,1.44a1,1,0,1,1-1.81-.91l.2-.39-1.26.07a1,1,0,1,1-.12-2l1.27-.07-.23-.35a1,1,0,0,1,1.69-1.11l.87,1.33,1.61-.09,0-.67-5.17-2.6-3.13,2.06a1,1,0,0,1-1.11-1.69l2.16-1.42-1.08-.54-1.32.87a1,1,0,1,1-1.11-1.69l.35-.23-1.28-.64a1,1,0,1,1,.91-1.81l1.28.64,0-.41a1,1,0,0,1,2-.12l.09,1.58,1.08.54-.15-2.58a1,1,0,0,1,2-.12l.22,3.75,5.16,2.59.57-.37-.88-1.34-1.6.09a1,1,0,0,1-.12-2l.44,0-.69-1.06a1,1,0,0,1,1.69-1.11l.7,1.06.19-.38a1,1,0,0,1,1.81.91l-.71,1.42.88,1.34.57-.38-.34-5.76L728.46,481a1,1,0,0,1,.91-1.81l2.31,1.16-.07-1.21-1.42-.71a1,1,0,1,1,.91-1.81l.37.19-.08-1.43a1,1,0,0,1,2-.12l.08,1.43.35-.23A1,1,0,0,1,735,478.1l-1.32.87.07,1.21,2.16-1.42a1,1,0,1,1,1.11,1.69l-3.13,2.06.34,5.74.62.31.71-1.41-.87-1.33a1,1,0,1,1,1.69-1.11l.23.35.57-1.13a1,1,0,0,1,1.81.91l-.57,1.13.44,0a1,1,0,1,1,.12,2l-1.6.09-.71,1.42.62.31,4.8-3.16-.22-3.75a1,1,0,1,1,2-.12l.15,2.58,1-.67-.09-1.58a1,1,0,0,1,2-.12l0,.41,1.2-.79a1,1,0,1,1,1.11,1.69l-1.2.79.37.19a1,1,0,1,1-.91,1.81l-1.42-.71-1,.66,2.31,1.16a1,1,0,1,1-.91,1.81l-3.35-1.68-4.79,3.15,0,.7,1.57-.09.71-1.42a1,1,0,0,1,1.81.91l-.19.38,1.27-.07a1,1,0,0,1,.12,2l-1.26.07.24.36a1,1,0,1,1-1.69,1.11l-.88-1.34-1.57.09,0,.7,5.12,2.57,3.14-2.06a1,1,0,1,1,1.11,1.69l-2.16,1.42,1.08.54,1.32-.87a1,1,0,0,1,1.11,1.69l-.35.23,1.28.64a1,1,0,1,1-.91,1.81l-1.28-.64,0,.41a1,1,0,1,1-2,.12l-.09-1.58-1.08-.54.15,2.58a1,1,0,0,1-2,.12l-.22-3.75-5.14-2.58-.58.38.87,1.32,1.6-.09a1,1,0,1,1,.12,2l-.44,0,.69,1.06a1,1,0,1,1-1.69,1.11l-.7-1.06-.19.38a1,1,0,0,1-1.81-.91l.71-1.42-.87-1.32-.58.38.34,5.74,3.35,1.68a1,1,0,1,1-.91,1.81l-2.31-1.16.07,1.21,1.42.71a1,1,0,1,1-.91,1.81l-.37-.19.08,1.43a1,1,0,1,1-2,.12l-.08-1.43-.35.23a1,1,0,0,1-1.11-1.69l1.32-.87-.07-1.21-2.16,1.42a1,1,0,0,1-1.11-1.69l3.14-2.06-.34-5.76-.61-.31-.72,1.43.87,1.33a1,1,0,1,1-1.69,1.11l-.23-.35-.57,1.13a1,1,0,1,1-1.81-.91l.57-1.13-.44,0a1,1,0,1,1-.12-2l1.6-.09.72-1.44-.61-.31-4.82,3.17.22,3.75a1,1,0,0,1-2,.12l-.15-2.58-1,.66.09,1.58a1,1,0,1,1-2,.12l0-.41-1.2.79a1,1,0,1,1-1.11-1.69Z" transform="translate(-9.81 -146.62)"/><path class="cls-6" d="M745.46,405.06l1.42-.22-.26-.32a1,1,0,1,1,1.58-1.27l1,1.23,1.2-.19-1.63-2a1,1,0,0,1,1.58-1.27l2.36,2.92,5.71-.9.24-.63-1.51-.58-1.25,1a1,1,0,1,1-1.27-1.58L755,401l-1.18-.45a1,1,0,1,1,.73-1.89l1.19.46-.07-.42a1,1,0,0,1,2-.32l.25,1.57,1.51.58.24-.63-3.64-4.5-3.71.58a1,1,0,0,1-.32-2l2.55-.4-.76-.94-1.57.25a1,1,0,1,1-.32-2l.41-.06-.9-1.11a1,1,0,1,1,1.58-1.27l.9,1.11.15-.39a1,1,0,0,1,1.89.73l-.57,1.48.76.94.93-2.41a1,1,0,1,1,1.89.73l-1.35,3.5,3.63,4.49.67-.11-.25-1.59-1.5-.58a1,1,0,0,1,.73-1.89l.41.16-.2-1.25a1,1,0,0,1,2-.32l.2,1.25.33-.26a1,1,0,0,1,1.27,1.58l-1.24,1,.25,1.58.67-.11,2.07-5.39-2.36-2.92a1,1,0,1,1,1.58-1.27l1.63,2,.43-1.13-1-1.23a1,1,0,1,1,1.58-1.27l.26.32.51-1.34a1,1,0,1,1,1.89.73l-.51,1.34.41-.06a1,1,0,0,1,.32,2l-1.57.25-.43,1.13,2.55-.4a1,1,0,0,1,.32,2l-3.71.58-2.06,5.36.44.54,1.23-1-.25-1.57a1,1,0,1,1,2-.32l.07.42,1-.8a1,1,0,0,1,1.27,1.58l-1,.79.41.16a1,1,0,1,1-.73,1.89l-1.5-.58-1.23,1,.44.54,5.68-.9,1.35-3.5a1,1,0,0,1,1.89.73l-.93,2.41,1.2-.19.57-1.48a1,1,0,0,1,1.89.73l-.15.39,1.42-.22a1,1,0,0,1,.32,2l-1.42.22.26.32a1,1,0,1,1-1.58,1.27l-1-1.23-1.19.19,1.62,2a1,1,0,1,1-1.58,1.27l-2.36-2.92-5.66.89-.25.65,1.46.56,1.24-1a1,1,0,1,1,1.27,1.58l-.33.26,1.19.46a1,1,0,0,1-.73,1.89l-1.18-.45.07.43a1,1,0,1,1-2,.32l-.25-1.59-1.47-.57-.25.65,3.6,4.46,3.71-.59a1,1,0,0,1,.32,2l-2.55.4.76.94,1.57-.25a1,1,0,1,1,.32,2l-.41.06.9,1.11a1,1,0,1,1-1.58,1.27l-.9-1.11-.15.39a1,1,0,1,1-1.89-.73l.57-1.48-.76-.94-.93,2.41a1,1,0,0,1-1.89-.73l1.35-3.5-3.61-4.47-.69.11.25,1.57,1.5.58a1,1,0,1,1-.73,1.89l-.41-.16.2,1.25a1,1,0,1,1-2,.32l-.2-1.25-.33.26a1,1,0,1,1-1.27-1.58l1.24-1-.25-1.56-.68.11-2.06,5.36,2.36,2.92a1,1,0,1,1-1.58,1.27l-1.62-2-.43,1.13,1,1.23a1,1,0,1,1-1.58,1.27l-.26-.32L758,420.6a1,1,0,0,1-1.89-.73l.51-1.34-.41.06a1,1,0,0,1-.32-2l1.57-.25.43-1.13-2.55.4a1,1,0,1,1-.32-2l3.71-.59,2.07-5.39-.43-.53-1.25,1,.25,1.57a1,1,0,1,1-2,.32l-.07-.42-1,.8a1,1,0,1,1-1.27-1.58l1-.79-.41-.16a1,1,0,0,1,.73-1.89l1.5.58,1.25-1-.43-.53-5.7.9-1.35,3.5a1,1,0,1,1-1.89-.73l.93-2.41-1.19.19-.57,1.48a1,1,0,0,1-1.89-.73l.15-.39-1.42.22a1,1,0,0,1-.32-2Z" transform="translate(-9.81 -146.62)"/><path class="cls-6" d="M741,258.43l1.35-.49-.32-.27a1,1,0,0,1,1.3-1.56l1.22,1,1.14-.42-2-1.66a1,1,0,0,1,1.3-1.56l2.88,2.41,5.43-2,.12-.67-1.6-.28-1,1.23a1,1,0,1,1-1.56-1.3l.28-.33-1.25-.22a1,1,0,1,1,.35-2l1.25.22-.14-.39a1,1,0,1,1,1.9-.7l.55,1.49,1.59.28.12-.66-4.44-3.71-3.52,1.29a1,1,0,1,1-.7-1.9l2.43-.89-.93-.78-1.49.55a1,1,0,1,1-.7-1.9l.39-.14-1.1-.92a1,1,0,1,1,1.3-1.56l1.1.92.07-.41a1,1,0,0,1,2,.35l-.27,1.56.93.78.44-2.55a1,1,0,1,1,2,.35l-.64,3.7,4.43,3.7.64-.23-.55-1.51L753.7,247a1,1,0,0,1,.35-2l.43.07-.43-1.19a1,1,0,0,1,1.9-.7l.44,1.19.27-.32a1,1,0,0,1,1.56,1.3l-1,1.22.55,1.5.64-.23,1-5.69-2.88-2.41a1,1,0,0,1,1.3-1.56l2,1.66.21-1.19-1.22-1a1,1,0,0,1,1.3-1.56l.32.27.25-1.41a1,1,0,1,1,2,.35l-.25,1.41.39-.14a1,1,0,0,1,.7,1.9L762,239l-.21,1.19,2.43-.89a1,1,0,0,1,.7,1.9l-3.52,1.29-1,5.66.53.44,1-1.21-.55-1.49a1,1,0,1,1,1.9-.7l.14.39.81-1a1,1,0,1,1,1.56,1.3l-.81,1,.43.07a1,1,0,1,1-.35,2l-1.58-.28-1,1.22.53.44,5.39-2,.64-3.7a1,1,0,0,1,2,.35l-.44,2.55,1.14-.42.27-1.56a1,1,0,0,1,2,.35l-.07.41,1.35-.49a1,1,0,0,1,.7,1.9l-1.35.49.32.27a1,1,0,1,1-1.3,1.56l-1.22-1-1.14.42,2,1.66a1,1,0,1,1-1.3,1.56l-2.88-2.41-5.38,2-.12.69,1.55.27,1-1.22a1,1,0,0,1,1.56,1.3l-.27.32,1.25.22a1,1,0,1,1-.35,2l-1.25-.22.15.41a1,1,0,1,1-1.9.7l-.55-1.51-1.55-.27-.12.69,4.4,3.68L771,258a1,1,0,1,1,.7,1.9l-2.43.89.93.78,1.49-.55a1,1,0,1,1,.7,1.9l-.39.14,1.1.92a1,1,0,1,1-1.3,1.56l-1.1-.92-.07.41a1,1,0,1,1-2-.35l.27-1.56-.93-.78-.44,2.54a1,1,0,1,1-2-.35l.64-3.7-4.41-3.68-.65.24.55,1.49,1.58.28a1,1,0,1,1-.35,2l-.43-.07.43,1.19a1,1,0,1,1-1.9.7l-.44-1.19-.27.32a1,1,0,1,1-1.56-1.3l1-1.22-.54-1.48-.65.24-1,5.66,2.88,2.41a1,1,0,1,1-1.3,1.56l-2-1.66-.21,1.19,1.22,1a1,1,0,1,1-1.3,1.56l-.32-.27-.25,1.41a1,1,0,0,1-2-.35l.25-1.41-.39.14a1,1,0,0,1-.7-1.9l1.49-.55.21-1.19-2.43.89a1,1,0,0,1-.7-1.9l3.53-1.29,1-5.68-.52-.44-1,1.23.55,1.49a1,1,0,1,1-1.9.7l-.14-.39-.81,1a1,1,0,1,1-1.56-1.3l.81-1-.43-.07a1,1,0,0,1,.35-2l1.58.28,1-1.23-.52-.44-5.42,2-.64,3.7a1,1,0,0,1-2-.35l.44-2.54-1.14.42L745,260.6a1,1,0,1,1-2-.35l.07-.41-1.35.49a1,1,0,0,1-.7-1.9Z" transform="translate(-9.81 -146.62)"/></g></svg>