<svg xmlns="http://www.w3.org/2000/svg" viewBox="0 0 195.03 180.34"><defs><style>.cls-1,.cls-4,.cls-5{font-size:140px;font-family:Qwigley-Regular, Qwigley;}.cls-1,.cls-6{fill:#215c2e;}.cls-2{letter-spacing:0.01em;}.cls-3{letter-spacing:0.01em;}.cls-4{fill:#711626;}.cls-5,.cls-7{fill:#fff;}</style></defs><title>nog_logo_whiteOnRed</title><g id="Nog-logo"><text class="cls-1" transform="translate(28.79 104.85)">N<tspan class="cls-2" x="66.22" y="0">o</tspan><tspan class="cls-3" x="100.65" y="0">g</tspan></text><text class="cls-4" transform="translate(28.1 103.96)">N<tspan class="cls-2" x="66.22" y="0">o</tspan><tspan class="cls-3" x="100.65" y="0">g</tspan></text><text class="cls-5" transform="translate(27.4 102.2)">N<tspan class="cls-2" x="66.22" y="0">o</tspan><tspan class="cls-3" x="100.65" y="0">g</tspan></text></g><g id="lg_flake" data-name="lg flake"><path class="cls-6" d="M211,251.22l-.59-.21a1.72,1.72,0,0,0-2.21-2.45A1.72,1.72,0,0,0,206,246l-2.87,2.46-1.28-.45.14-.11a1.72,1.72,0,0,0,.47-2l.42-.08a1.72,1.72,0,0,0-.63-3.39l-.44.08a1.72,1.72,0,0,0-1.15-1.66l-.17-.05,1-.9,3.56,1.26a1.72,1.72,0,0,0,1.17-3.24,1.72,1.72,0,0,0,1.17-3.08l.48-.41a1.72,1.72,0,0,0-2.24-2.62l-.48.41a1.72,1.72,0,0,0-3.22.69,1.72,1.72,0,0,0-3.38.66l.69,3.71-1,.88q0-.09,0-.17a1.72,1.72,0,0,0-1.48-1.39l.14-.41a1.72,1.72,0,1,0-3.25-1.15l-.15.42a1.72,1.72,0,0,0-2,.17l-.13.13-.25-1.36,2.87-2.46a1.72,1.72,0,0,0-2.22-2.63,1.72,1.72,0,0,0-2.08-2.56l-.12-.62a1.72,1.72,0,1,0-3.39.63l.12.62a1.72,1.72,0,0,0-1,3.13,1.72,1.72,0,0,0-1.12,3.26l3.56,1.26.25,1.36-.17-.07a1.72,1.72,0,0,0-1.94.57l-.29-.34A1.72,1.72,0,0,0,183,238.8l.28.33a1.72,1.72,0,0,0-.88,1.83q0,.09,0,.17l-1.28-.45-.69-3.71a1.72,1.72,0,0,0-3.39.61,1.72,1.72,0,0,0-3.25.52l-.59-.21a1.72,1.72,0,1,0-1.15,3.25l.59.21a1.72,1.72,0,0,0,2.21,2.45,1.72,1.72,0,0,0,2.26,2.6l2.87-2.46,1.3.46-.14.11a1.72,1.72,0,0,0-.47,2l-.44.08h0a1.72,1.72,0,0,0,.63,3.39l.42-.08a1.72,1.72,0,0,0,1.15,1.67l.17,0-1,.88L178,251.2a1.72,1.72,0,0,0-1.17,3.24,1.72,1.72,0,0,0-1.18,3.08l-.48.41a1.72,1.72,0,1,0,2.24,2.62l.48-.41a1.72,1.72,0,0,0,3.22-.69,1.72,1.72,0,0,0,3.38-.66l-.69-3.71,1-.88q0,.09,0,.17a1.72,1.72,0,0,0,1.48,1.39l-.14.41a1.72,1.72,0,1,0,3.25,1.15l.15-.42a1.72,1.72,0,0,0,2-.17l.13-.12L192,258l-2.87,2.46a1.72,1.72,0,0,0,2.22,2.63,1.72,1.72,0,0,0,2.08,2.56l.12.62a1.72,1.72,0,1,0,3.39-.63l-.12-.62a1.72,1.72,0,0,0,1-3.14,1.72,1.72,0,0,0,1.12-3.26l-3.56-1.26-.25-1.36.17.07a1.72,1.72,0,0,0,1.94-.57l.29.34a1.72,1.72,0,0,0,2.62-2.24l-.28-.33a1.72,1.72,0,0,0,.88-1.83q0-.09,0-.17l1.28.45.69,3.71a1.72,1.72,0,0,0,3.39-.6,1.72,1.72,0,0,0,3.25-.52l.59.21a1.72,1.72,0,0,0,1.15-3.25Zm-12.13-4.27-.73-.26.44-.08Zm-.93-3.73-.43.08.58-.5Zm-2.09-3-.59.5.15-.42Zm-3.69-1.06-.15.42-.14-.75Zm-3.67.3.14.75-.29-.33Zm-2.77,2.65.29.34-.73-.26Zm-1.57,3.34.72.25-.43.08Zm.91,3.72.44-.08-.59.5Zm2.09,3,.59-.5-.15.42Zm3.69,1.06.15-.41.14.75Zm3.67-.3-.14-.75.29.34Zm2.77-2.65-.29-.34.73.26Z" transform="translate(-170.9 -198.66)"/><path class="cls-7" d="M210.84,251.8l-1.49-.52.35-.3a1.11,1.11,0,1,0-1.45-1.69l-1.32,1.13-1.26-.44,2.16-1.85a1.11,1.11,0,1,0-1.45-1.69l-3.14,2.69-6-2.11-.14-.73,1.75-.33,1.15,1.34a1.11,1.11,0,0,0,1.69-1.45l-.31-.36,1.37-.26a1.11,1.11,0,1,0-.41-2.19l-1.37.26.15-.44a1.11,1.11,0,1,0-2.1-.74l-.58,1.65-1.74.33-.14-.73,4.83-4.14,3.89,1.37a1.11,1.11,0,1,0,.74-2.1l-2.68-.94,1-.87,1.64.58a1.11,1.11,0,0,0,.74-2.1l-.43-.15,1.2-1a1.11,1.11,0,1,0-1.45-1.69l-1.2,1-.08-.45a1.11,1.11,0,0,0-2.19.41l.32,1.71-1,.87-.52-2.79a1.11,1.11,0,1,0-2.19.41l.76,4.06-4.82,4.13-.71-.25.59-1.67,1.74-.32a1.11,1.11,0,1,0-.41-2.19l-.47.09.46-1.31a1.11,1.11,0,0,0-2.1-.74l-.46,1.32-.3-.35a1.11,1.11,0,0,0-1.69,1.45l1.14,1.33-.59,1.66-.71-.25-1.17-6.24,3.14-2.69a1.11,1.11,0,0,0-1.45-1.69L190,231.64l-.24-1.31L191,229.2a1.11,1.11,0,1,0-1.45-1.69l-.35.3-.29-1.55a1.11,1.11,0,1,0-2.19.41l.29,1.55-.43-.15a1.11,1.11,0,0,0-.74,2.1l1.64.58.24,1.31-2.68-.94a1.11,1.11,0,0,0-.74,2.1l3.89,1.37,1.16,6.21-.58.5L187.69,240l.58-1.65a1.11,1.11,0,0,0-2.1-.74L186,238l-.91-1.06a1.11,1.11,0,0,0-1.69,1.45l.9,1.06-.47.09a1.11,1.11,0,1,0,.41,2.19l1.74-.32,1.14,1.33-.58.5-6-2.1-.76-4.06a1.11,1.11,0,0,0-2.19.41l.52,2.79-1.26-.44-.32-1.71a1.11,1.11,0,0,0-2.19.41l.08.45-1.49-.52a1.11,1.11,0,0,0-.74,2.1l1.49.52-.35.3a1.11,1.11,0,1,0,1.45,1.69l1.32-1.13,1.25.44-2.16,1.85a1.11,1.11,0,1,0,1.45,1.69l3.14-2.69,5.95,2.1.14.76-1.7.32-1.14-1.33a1.11,1.11,0,1,0-1.69,1.45l.3.35-1.37.26a1.11,1.11,0,1,0,.41,2.19l1.37-.26-.16.45a1.11,1.11,0,1,0,2.1.74l.59-1.67,1.7-.32.14.76-4.79,4.1-3.89-1.37a1.11,1.11,0,1,0-.74,2.1l2.68.94-1,.87-1.64-.58a1.11,1.11,0,1,0-.74,2.1l.43.15-1.2,1a1.11,1.11,0,1,0,1.45,1.69l1.2-1,.08.45a1.11,1.11,0,1,0,2.19-.41l-.32-1.71,1-.87.52,2.79a1.11,1.11,0,1,0,2.19-.41l-.76-4.06,4.8-4.11.72.25-.58,1.65-1.74.32a1.11,1.11,0,1,0,.41,2.19l.47-.09-.46,1.31a1.11,1.11,0,1,0,2.1.74l.46-1.32.3.35a1.11,1.11,0,0,0,1.69-1.45l-1.14-1.33.58-1.64.72.25,1.16,6.21-3.14,2.69a1.11,1.11,0,1,0,1.45,1.69l2.16-1.85.24,1.31L192,263.16a1.11,1.11,0,1,0,1.45,1.69l.35-.3.29,1.55a1.11,1.11,0,0,0,2.19-.41l-.29-1.55.43.15a1.11,1.11,0,1,0,.74-2.1l-1.64-.58-.24-1.31,2.68.94a1.11,1.11,0,1,0,.74-2.1l-3.9-1.37-1.17-6.24.57-.49,1.15,1.34-.58,1.65a1.11,1.11,0,1,0,2.1.74l.15-.44.91,1.06a1.11,1.11,0,1,0,1.69-1.45l-.9-1.06.47-.09a1.11,1.11,0,0,0-.41-2.19l-1.74.32-1.15-1.34.57-.49,6,2.11.76,4.06a1.11,1.11,0,1,0,2.19-.41l-.52-2.79,1.25.44.32,1.71a1.11,1.11,0,1,0,2.19-.41l-.08-.45,1.49.52a1.11,1.11,0,1,0,.74-2.1Z" transform="translate(-170.9 -198.66)"/></g><g id="med_flake" data-name="med flake"><path class="cls-6" d="M361.49,300.79l-.23-.28a2.12,2.12,0,0,1,.48-3,1,1,0,0,0-1.14-.84l-2.17.33-.49-.61h.1a1,1,0,0,0,.83-.83l.23.09a1,1,0,0,0,.72-1.86l-.24-.09a1,1,0,0,0-.06-1.17l-.07-.08.79-.12,1.37,1.71a1.15,1.15,0,0,1,1.79-1.12,1,1,0,0,0,1.3-1.28l.36-.06a1,1,0,0,0-.3-2l-.36.06a2.12,2.12,0,0,1-2.37-1.93,1,1,0,0,0-1.29.57l-.79,2-.78.12,0-.09a1,1,0,0,0-.3-1.14l.2-.16a1,1,0,1,0-1.25-1.56l-.2.16a1,1,0,0,0-1-.53l-.1,0,.29-.75,2.17-.33a2.55,2.55,0,0,1,.29-3,1,1,0,0,0-.82-.83l.13-.34a1,1,0,1,0-1.86-.72l-.13.34a2.12,2.12,0,0,1-2.85,1.09,1,1,0,0,0-.15,1.4l1.37,1.71-.29.75-.06-.08a1,1,0,0,0-1.13-.31l0-.25a1,1,0,1,0-2,.3l0,.25a1,1,0,0,0-1,.63l0,.1-.49-.61.79-2a2.55,2.55,0,0,1-2.49-1.77,1,1,0,0,0-1.13.29l-.23-.28a1,1,0,0,0-1.56,1.25l.23.28a2.12,2.12,0,0,1-.48,3,1,1,0,0,0,1.14.84l2.17-.33.5.62h-.1a1,1,0,0,0-.83.82l-.24-.09h0a1,1,0,0,0-.72,1.86l.23.09a1,1,0,0,0,.05,1.18l.07.08-.78.12-1.37-1.71a2.55,2.55,0,0,1-2.78,1.27,1,1,0,0,0-.31,1.13l-.36.06a1,1,0,1,0,.3,2l.36-.06a2.12,2.12,0,0,1,2.37,1.92,1,1,0,0,0,1.29-.57l.79-2,.78-.12,0,.09a1,1,0,0,0,.3,1.14l-.2.16a1,1,0,1,0,1.25,1.56l.2-.16a1,1,0,0,0,1,.53l.1,0-.29.75-2.17.33a2.55,2.55,0,0,1-.29,3,1,1,0,0,0,.63.78l.19.05-.13.34a1,1,0,0,0,1.86.72l.13-.34.18.09a1,1,0,0,1,1.69-1,1,1,0,0,0,1.14-1.56L351.91,299l.29-.75.06.09a1,1,0,0,0,1.13.31l0,.25a1,1,0,1,0,2-.3l0-.25a1,1,0,0,0,1-.63l0-.1.49.61-.79,2a2.55,2.55,0,0,1,2.49,1.77,1,1,0,0,0,1.13-.29l.23.28a1,1,0,0,0,1.56-1.25ZM356.82,295l-.28-.35.24.09Zm.68-2.12-.24-.09.44-.07Zm-.1-2.14-.44.07.2-.16Zm-1.49-1.65-.2.16.16-.41Zm-1.9-1-.16.41,0-.25Zm-2.17.46,0,.26-.28-.35Zm-1.8,1.16.28.34-.24-.09Zm-.69,2.11.24.09-.44.07Zm.1,2.14.44-.07-.2.16Zm1.49,1.65.2-.16-.16.41Zm1.9,1,.16-.41,0,.25Zm2.18-.46,0-.26.28.35Z" transform="translate(-170.9 -198.66)"/><path class="cls-7" d="M361.21,301l-.57-.71.26,0a.65.65,0,1,0-.2-1.28l-1,.15-.48-.6,1.63-.25a.65.65,0,0,0-.2-1.28l-2.37.36L356,294.48l.16-.4,1,.37.16,1a.65.65,0,0,0,1.28-.2l0-.28.75.29a.65.65,0,1,0,.47-1.2l-.75-.29.21-.17a.65.65,0,1,0-.81-1l-.79.63-1-.37.16-.4,3.65-.56,1.5,1.87a.65.65,0,0,0,1-.81l-1-1.29.76-.12.63.79a.65.65,0,1,0,1-.81l-.17-.21.9-.14a.65.65,0,1,0-.2-1.28l-.9.14.1-.25a.65.65,0,1,0-1.2-.47l-.37.94-.76.12.6-1.54a.65.65,0,0,0-1.2-.47l-.87,2.23-3.64.56-.27-.34.8-.64,1,.37a.65.65,0,1,0,.47-1.2l-.26-.1.63-.5a.65.65,0,0,0-.81-1l-.63.51,0-.27a.65.65,0,0,0-1.28.2l.15,1-.8.64-.27-.34,1.34-3.43,2.37-.36a.65.65,0,0,0-.2-1.28l-1.63.25.28-.72,1-.15a.65.65,0,0,0-.2-1.28l-.26,0,.33-.85a.65.65,0,1,0-1.2-.47l-.33.85-.17-.21a.65.65,0,0,0-1,.81l.63.79-.28.72-1-1.29a.65.65,0,0,0-1,.81l1.5,1.87L354,289l-.44.07-.15-1,.79-.63a.65.65,0,0,0-.81-1l-.21.17-.12-.8a.65.65,0,1,0-1.28.2l.12.8-.26-.1a.65.65,0,0,0-.47,1.2l1,.37.15,1-.44.07-2.29-2.86.87-2.23a.65.65,0,0,0-1.2-.47l-.6,1.54-.48-.6.37-.94a.65.65,0,0,0-1.2-.47l-.1.25-.57-.71a.65.65,0,0,0-1,.81l.57.71-.26,0a.65.65,0,1,0,.2,1.28l1-.15.48.6-1.63.25a.65.65,0,1,0,.2,1.28l2.37-.36,2.29,2.85-.16.42-.93-.36-.15-1a.65.65,0,1,0-1.28.2l0,.27-.75-.29a.65.65,0,1,0-.47,1.2l.75.29-.22.17a.65.65,0,1,0,.81,1l.8-.64.94.36-.16.42-3.61.56-1.5-1.87a.65.65,0,0,0-1,.81l1,1.29-.76.12-.63-.79a.65.65,0,1,0-1,.81l.17.21-.9.14a.65.65,0,1,0,.2,1.28l.9-.14-.1.25a.65.65,0,1,0,1.2.47l.37-.94.76-.12-.6,1.54a.65.65,0,1,0,1.2.47l.87-2.23,3.62-.56.28.35-.79.63-1-.37a.65.65,0,0,0-.47,1.2l.26.1-.63.5a.65.65,0,1,0,.81,1l.63-.51,0,.27a.65.65,0,0,0,1.28-.2l-.15-1,.79-.63.28.34-1.33,3.42-2.37.36a.65.65,0,1,0,.2,1.28l1.63-.25-.28.72-1,.15a.65.65,0,1,0,.2,1.28l.26,0-.33.85a.65.65,0,1,0,1.2.47l.33-.85.17.21a.65.65,0,1,0,1-.81l-.63-.79.28-.72,1,1.29a.65.65,0,1,0,1-.81l-1.5-1.87,1.34-3.43.43-.07.16,1-.79.63a.65.65,0,1,0,.81,1l.21-.17.12.8a.65.65,0,0,0,1.28-.2l-.12-.8.26.1a.65.65,0,1,0,.47-1.2l-1-.37-.16-1,.43-.07,2.3,2.87-.87,2.23a.65.65,0,1,0,1.2.47l.6-1.54.48.6-.37.94a.65.65,0,0,0,1.2.47l.1-.25.57.71a.65.65,0,1,0,1-.81Z" transform="translate(-170.9 -198.66)"/></g><g id="sm_flake" data-name="sm flake"><path class="cls-6" d="M342.72,353.11l-.24-.14a1.65,1.65,0,0,1-.49-2.33.78.78,0,0,0-1.06-.29l-1.49.84-.53-.31.07,0a.78.78,0,0,0,.38-.84h.2a.78.78,0,0,0,0-1.56h-.2a.78.78,0,0,0-.37-.84l-.07,0,.54-.31,1.47.86a.78.78,0,0,0,.8-1.34l.19,0a.78.78,0,0,0,.59-1.29l.25-.14A.78.78,0,0,0,342,344l-.25.14a1.65,1.65,0,0,1-2.26-.74.78.78,0,0,0-.78.77v1.71l-.53.3s0-.05,0-.08a.78.78,0,0,0-.54-.75l.1-.17a.78.78,0,1,0-1.34-.79l-.1.17a.78.78,0,0,0-.91-.1l-.07,0v-.62l1.49-.84a2,2,0,0,1-.63-2.3.78.78,0,0,0-.83-.38v-.28a.78.78,0,1,0-1.56,0v.28A1.66,1.66,0,0,1,332,342a.78.78,0,0,0,.28,1.07l1.47.86v.62l-.07,0a.78.78,0,0,0-.91.09l-.1-.17a.78.78,0,1,0-1.36.77l.1.17a.78.78,0,0,0-.55.74s0,.05,0,.08l-.53-.31v-1.71a2,2,0,0,1-2.31-.6.78.78,0,0,0-.74.53l-.24-.14a.78.78,0,1,0-.79,1.34l.24.14a.78.78,0,0,0,.58,1.3l.19,0a.78.78,0,0,0,.78,1.35l1.49-.84.54.32-.07,0a.78.78,0,0,0-.38.83h-.2a.78.78,0,0,0,0,1.56h.2a.78.78,0,0,0,.37.84l.07,0-.53.3-1.47-.87a2,2,0,0,1-1.67,1.7.78.78,0,0,0,.09.91l-.25.14a.78.78,0,1,0,.77,1.36l.25-.14a1.66,1.66,0,0,1,2.26.74.78.78,0,0,0,.78-.77v-1.71l.53-.3s0,.05,0,.08a.78.78,0,0,0,.54.75l-.1.17a.78.78,0,1,0,1.34.79l.1-.17a.78.78,0,0,0,.91.1l.07,0v.62l-1.49.84a2,2,0,0,1,.63,2.3.78.78,0,0,0,.67.39h.16v.28a.78.78,0,1,0,1.56,0V358l.15,0a.78.78,0,0,1,.94-1.22.78.78,0,0,0,.4-1.45l-1.47-.87v-.62l.07,0a.78.78,0,0,0,.91-.09l.1.17a.78.78,0,1,0,1.36-.77l-.1-.17a.78.78,0,0,0,.55-.74s0-.05,0-.08l.53.31v1.71a2,2,0,0,1,2.31.6.78.78,0,0,0,.74-.53l.24.14a.78.78,0,0,0,.79-1.34Zm-5-2.94-.3-.18h.2Zm-.09-1.74h-.2l.3-.17Zm-.66-1.53-.3.17.1-.17Zm-1.55-.79-.1.17v-.35Zm-1.66-.18v.35l-.1-.17Zm-1.46.94.1.18-.3-.18Zm-1,1.35.3.17h-.2Zm.08,1.73h.2l-.3.17Zm.67,1.53.3-.17-.1.17Zm1.55.79.1-.17v.34Zm1.66.19v-.35l.1.17Zm1.46-.94-.1-.18.3.18Z" transform="translate(-170.9 -198.66)"/><path class="cls-7" d="M342.58,353.34,342,353l.18-.1a.5.5,0,1,0-.5-.88l-.69.39-.52-.3,1.12-.64a.5.5,0,0,0-.5-.88l-1.62.92L337,350v-.34h.81l.4.7a.5.5,0,1,0,.88-.5l-.11-.19h.63a.5.5,0,1,0,0-1h-.63l.11-.18a.5.5,0,0,0-.87-.51l-.4.68H337v-.34l2.5-1.42,1.61.95a.5.5,0,1,0,.51-.87l-1.11-.65.52-.3.68.4a.5.5,0,0,0,.51-.87l-.18-.1.62-.35a.5.5,0,0,0-.5-.88l-.62.35v-.21a.5.5,0,0,0-1,0v.79l-.52.3V344.2a.5.5,0,1,0-1,0v1.87l-2.5,1.42-.29-.17.41-.69h.8a.5.5,0,1,0,0-1h-.22l.32-.54a.5.5,0,0,0-.87-.51l-.32.55-.1-.18a.5.5,0,0,0-.88.5l.39.69-.4.69-.29-.17,0-2.87,1.62-.92a.5.5,0,0,0-.5-.88l-1.12.64V342l.69-.39a.5.5,0,1,0-.5-.88l-.18.1v-.71a.5.5,0,0,0-1,0v.71l-.18-.1a.5.5,0,0,0-.51.87l.68.4v.6l-1.11-.65a.5.5,0,0,0-.51.87l1.61.95,0,2.86-.3.17-.39-.68.4-.68a.5.5,0,0,0-.87-.51l-.11.18-.31-.55a.5.5,0,0,0-.88.5l.31.55h-.22a.5.5,0,0,0,0,1h.8l.39.69-.3.17L330.07,346v-1.87a.5.5,0,0,0-1,0v1.29l-.52-.3v-.79a.5.5,0,0,0-1,0v.21l-.62-.36a.5.5,0,0,0-.51.87l.62.36-.18.1a.5.5,0,1,0,.5.88L328,346l.52.3-1.12.64a.5.5,0,1,0,.5.88l1.62-.92,2.46,1.44v.35h-.78l-.39-.69a.5.5,0,1,0-.88.5l.1.18h-.63a.5.5,0,1,0,0,1h.63l-.11.19a.5.5,0,1,0,.87.51l.4-.69H332V350l-2.48,1.41-1.61-.95a.5.5,0,1,0-.51.87l1.11.65-.52.3-.68-.4a.5.5,0,0,0-.51.87l.18.1-.62.35a.5.5,0,1,0,.5.88l.62-.35V354a.5.5,0,1,0,1,0v-.79l.52-.3v1.29a.5.5,0,0,0,1,0v-1.87l2.49-1.41.3.17-.4.68h-.8a.5.5,0,0,0,0,1h.22l-.32.54a.5.5,0,1,0,.87.51l.32-.55.1.18a.5.5,0,1,0,.88-.5l-.39-.69.4-.68.3.17,0,2.86-1.62.92a.5.5,0,1,0,.5.88l1.12-.64v.6l-.69.39a.5.5,0,1,0,.5.88l.18-.1v.71a.5.5,0,1,0,1,0v-.71l.18.1a.5.5,0,1,0,.51-.87l-.68-.4v-.6l1.11.65a.5.5,0,0,0,.51-.87l-1.61-.95,0-2.87.3-.17.39.69-.4.68a.5.5,0,1,0,.87.51l.11-.18.31.55a.5.5,0,0,0,.88-.5l-.31-.55h.22a.5.5,0,1,0,0-1h-.8l-.4-.7.29-.17,2.48,1.45v1.87a.5.5,0,0,0,1,0V353l.52.3v.79a.5.5,0,1,0,1,0v-.21l.62.36a.5.5,0,1,0,.51-.87Z" transform="translate(-170.9 -198.66)"/></g></svg>