<svg xmlns="http://www.w3.org/2000/svg" viewBox="0 0 779.84 482.76"><defs><style>.cls-1{fill:#711626;}.cls-2{fill:#460007;opacity:0.39;}</style></defs><title>redFlakesBg</title><g id="Layer_1" data-name="Layer 1"><rect class="cls-1" width="779.84" height="482.76"/></g><g id="Layer_2" data-name="Layer 2"><path class="cls-2" d="M109.13,552.39,106,549.63l1.15-.39a3,3,0,1,0-1.93-5.61l-4.38,1.51-2.67-2.32,7.15-2.46a3,3,0,1,0-1.93-5.61L93,538.32,80.19,527.22l.38-1.94,4.65.91,1.53,4.45a3,3,0,1,0,5.61-1.93l-.42-1.21,3.63.71a3,3,0,1,0,1.13-5.82l-3.65-.71.81-.93a3,3,0,1,0-4.47-3.89l-3.05,3.51-4.63-.9.38-1.94,16-5.51,8.29,7.21a3,3,0,1,0,3.89-4.47l-5.7-5,3.35-1.15,3.5,3a3,3,0,0,0,3.89-4.47l-.92-.8,4-1.36a3,3,0,1,0-1.93-5.61l-4,1.36.23-1.19a3,3,0,1,0-5.82-1.13L106,503l-3.35,1.15,1.44-7.42a3,3,0,0,0-5.82-1.13l-2.1,10.78-16,5.49-1.5-1.31L81.77,507l4.61.9a3,3,0,1,0,1.13-5.82l-1.25-.24,2.43-2.79a3,3,0,0,0-4.47-3.89L81.78,498l-.4-1.16a3,3,0,0,0-5.61,1.93l1.51,4.4-3.08,3.54-1.51-1.31,3.23-16.57,10.39-3.57a3,3,0,1,0-1.93-5.61l-7.15,2.46.68-3.48,4.38-1.51a3,3,0,1,0-1.93-5.61l-1.15.39.8-4.12a3,3,0,1,0-5.82-1.13l-.8,4.12-.92-.8a3,3,0,1,0-3.89,4.47l3.5,3L71.42,481l-5.7-5a3,3,0,0,0-3.89,4.47l8.29,7.21L66.9,504.18l-1.92.66-1.5-4.37L66.53,497a3,3,0,1,0-4.47-3.89l-.81.93L60,490.48a3,3,0,0,0-5.61,1.93l1.2,3.5-1.25-.24a3,3,0,0,0-1.13,5.82l4.61.9,1.51,4.39-1.92.66-12.68-11,2.1-10.78A3,3,0,0,0,41,484.48l-1.45,7.42-2.67-2.32.89-4.55A3,3,0,0,0,32,483.9l-.23,1.19-3.17-2.75a3,3,0,1,0-3.89,4.47l3.17,2.75-1.15.39a3,3,0,1,0,1.93,5.61L33,494.06l2.67,2.32-7.15,2.46a3,3,0,1,0,1.93,5.61l10.38-3.57,12.66,11-.39,2L48.64,513l-1.51-4.4a3,3,0,0,0-5.61,1.93l.4,1.16L38.27,511a3,3,0,1,0-1.13,5.82l3.63.71-.84,1a3,3,0,1,0,4.47,3.89l3.09-3.55,4.52.88-.39,2-15.86,5.46L27.47,520a3,3,0,1,0-3.89,4.47l5.71,5-3.35,1.15-3.5-3A3,3,0,0,0,18.54,532l.92.8-4,1.36a3,3,0,1,0,1.93,5.61l4-1.36-.23,1.19A3,3,0,0,0,27,540.72l.89-4.55L31.21,535l-1.44,7.42a3,3,0,0,0,5.82,1.13l2.1-10.78,15.9-5.47,1.53,1.33-3,3.5-4.61-.9a3,3,0,0,0-1.13,5.82l1.25.24-2.43,2.79A3,3,0,1,0,49.62,544l2.44-2.8.4,1.16a3,3,0,1,0,5.61-1.93L56.55,536l3-3.49,1.53,1.33-3.21,16.5L47.52,554a3,3,0,1,0,1.93,5.61l7.15-2.46-.68,3.47-4.38,1.51a3,3,0,1,0,1.93,5.61l1.15-.39-.8,4.12a3,3,0,0,0,5.82,1.13l.8-4.12.92.8a3,3,0,1,0,3.89-4.47l-3.5-3,.68-3.48,5.71,5A3,3,0,1,0,72,558.72l-8.29-7.21L67,534.94l1.89-.65,1.53,4.43-3.05,3.51a3,3,0,1,0,4.47,3.89l.81-.93,1.21,3.51a3,3,0,1,0,5.61-1.93l-1.2-3.5,1.25.24a3,3,0,1,0,1.13-5.82l-4.61-.9-1.53-4.45,1.88-.65L89.07,542.8,87,553.58a3,3,0,0,0,5.82,1.13l1.44-7.42,2.67,2.32L96,554.16a3,3,0,0,0,5.82,1.13l.23-1.19,3.17,2.75a3,3,0,1,0,3.89-4.47Z" transform="translate(-6.2 -106.19)"/><path class="cls-2" d="M162.83,417.71,158.7,417l.79-.92a3,3,0,0,0-4.52-3.84l-3,3.53-3.48-.64,4.9-5.76a3,3,0,0,0-4.52-3.84l-7.12,8.37-16.64-3.05-.66-1.86,4.46-1.59,3.58,3a3,3,0,0,0,3.84-4.52l-1-.83,3.48-1.24a3,3,0,1,0-2-5.59l-3.5,1.25.22-1.21a3,3,0,1,0-5.83-1.07l-.84,4.58-4.45,1.58-.66-1.86,11-12.89,10.8,2a3,3,0,0,0,1.07-5.83l-7.43-1.36,2.29-2.7,4.56.84a3,3,0,0,0,1.07-5.83l-1.19-.22,2.72-3.2a3,3,0,0,0-4.52-3.84l-2.72,3.2-.41-1.14a3,3,0,0,0-5.59,2l1.56,4.37-2.29,2.7-2.54-7.12a3,3,0,1,0-5.59,2l3.69,10.35L117.3,397.62l-2-.36.85-4.63,4.43-1.58a3,3,0,1,0-2-5.59l-1.2.43.67-3.64a3,3,0,0,0-5.83-1.07l-.67,3.65-.94-.8a3,3,0,0,0-3.84,4.52l3.55,3-.85,4.61-2-.36-5.67-15.91,7.12-8.37a3,3,0,0,0-4.52-3.84l-4.9,5.76-1.19-3.34,3-3.53a3,3,0,1,0-4.52-3.84l-.79.92-1.41-4a3,3,0,0,0-5.59,2l1.41,4-1.19-.22a3,3,0,1,0-1.07,5.83l4.56.84L94,375.46l-7.43-1.36a3,3,0,1,0-1.07,5.83l10.8,2,5.64,15.84-1.32,1.55-3.52-3,.84-4.58a3,3,0,0,0-5.83-1.07l-.22,1.21L89,389.46A3,3,0,1,0,85.21,394l2.82,2.4-1.2.43a3,3,0,0,0,2,5.59l4.43-1.58,3.54,3-1.31,1.55-16.54-3L75.24,392a3,3,0,1,0-5.59,2l2.54,7.12-3.48-.64-1.56-4.37a3,3,0,0,0-5.59,2l.41,1.14-4.13-.76a3,3,0,1,0-1.07,5.83l4.13.76-.79.92a3,3,0,1,0,4.52,3.84l3-3.53,3.48.64-4.9,5.76a3,3,0,1,0,4.52,3.84l7.12-8.36,16.5,3,.69,1.93-4.32,1.54-3.55-3a3,3,0,1,0-3.84,4.52l.94.8-3.5,1.25a3,3,0,0,0,2,5.59l3.48-1.24L86,423.81a3,3,0,1,0,5.83,1.07l.85-4.62L97,418.7l.69,1.93L86.85,433.41l-10.8-2A3,3,0,1,0,75,437.26l7.44,1.36-2.29,2.7-4.56-.84a3,3,0,0,0-1.07,5.83l1.19.22L73,449.74a3,3,0,1,0,4.52,3.84l2.72-3.2.41,1.14a3,3,0,0,0,5.59-2l-1.56-4.37,2.29-2.7,2.54,7.12a3,3,0,1,0,5.59-2l-3.69-10.34,10.89-12.81,2,.37-.84,4.56L99,431a3,3,0,1,0,2,5.59l1.2-.43-.67,3.64a3,3,0,1,0,5.83,1.07l.67-3.65.94.8a3,3,0,0,0,3.84-4.52l-3.55-3,.83-4.55,2,.37,5.64,15.84-7.12,8.36a3,3,0,1,0,4.52,3.84l4.9-5.76,1.19,3.33-3,3.53a3,3,0,1,0,4.52,3.84l.79-.92,1.41,4a3,3,0,0,0,5.59-2l-1.41-4,1.19.22a3,3,0,1,0,1.07-5.83l-4.56-.84-1.19-3.34,7.44,1.36a3,3,0,1,0,1.07-5.83l-10.81-2-5.67-15.91,1.29-1.52,3.57,3-.84,4.58a3,3,0,1,0,5.83,1.07l.22-1.21,2.83,2.41A3,3,0,0,0,134.4,428l-2.82-2.4,1.2-.43a3,3,0,0,0-2-5.59l-4.43,1.58-3.58-3,1.29-1.52,16.61,3L144.37,430a3,3,0,1,0,5.59-2l-2.54-7.12,3.48.64,1.56,4.37a3,3,0,1,0,5.59-2l-.41-1.14,4.13.76a3,3,0,1,0,1.07-5.83Z" transform="translate(-6.2 -106.19)"/><path class="cls-2" d="M118.66,300.75l-4-1.28.9-.82a3,3,0,0,0-4-4.39l-3.43,3.12-3.37-1.08,5.59-5.09a3,3,0,0,0-4-4.39l-8.13,7.39-16.12-5.15-.42-1.93,4.63-1,3.16,3.48a3,3,0,0,0,4.39-4l-.86-.94,3.61-.79a3,3,0,1,0-1.26-5.79l-3.63.79.37-1.17a3,3,0,1,0-5.65-1.8l-1.42,4.43-4.61,1L80,279.42,92.55,268,103,271.38a3,3,0,0,0,1.8-5.65l-7.2-2.3,2.62-2.38,4.42,1.41a3,3,0,0,0,1.8-5.65l-1.16-.37,3.1-2.82a3,3,0,0,0-4-4.39l-3.1,2.82-.26-1.19a3,3,0,0,0-5.79,1.26l1,4.53L93.62,259,92,251.66a3,3,0,0,0-5.79,1.26l2.34,10.73L76.06,275l-1.9-.61,1.43-4.48,4.59-1a3,3,0,0,0-1.26-5.79l-1.25.27,1.13-3.52a3,3,0,0,0-5.65-1.8L72,261.61l-.83-.91a3,3,0,0,0-4.39,4l3.13,3.44-1.43,4.47-1.9-.61L63,255.49l8.13-7.39a3,3,0,1,0-4-4.39l-5.59,5.09-.75-3.46,3.43-3.12a3,3,0,1,0-4-4.39l-.9.82-.89-4.1a3,3,0,1,0-5.79,1.26l.89,4.1-1.16-.37a3,3,0,1,0-1.8,5.65L55,246.6l.75,3.46-7.2-2.3a3,3,0,1,0-1.8,5.65l10.46,3.34,3.58,16.43-1.5,1.37-3.11-3.42,1.42-4.43a3,3,0,0,0-5.65-1.8l-.37,1.17-2.5-2.75a3,3,0,1,0-4.39,4L47.19,270l-1.25.27a3,3,0,0,0,1.26,5.79l4.59-1,3.12,3.44-1.5,1.36-16-5.12-2.34-10.73a3,3,0,1,0-5.79,1.26l1.61,7.39-3.37-1.08-1-4.53a3,3,0,0,0-5.79,1.26l.26,1.19-4-1.28a3,3,0,0,0-1.8,5.65l4,1.28-.9.82a3,3,0,1,0,4,4.39l3.43-3.12,3.37,1.08-5.59,5.08a3,3,0,1,0,4,4.39l8.12-7.39,16,5.11.44,2-4.49,1-3.13-3.44a3,3,0,0,0-4.39,4l.83.91-3.63.79a3,3,0,0,0,1.26,5.79l3.61-.79L41.69,297a3,3,0,1,0,5.65,1.8l1.43-4.48,4.5-1,.44,2L41.3,306.62l-10.46-3.34a3,3,0,0,0-1.8,5.65l7.2,2.3-2.62,2.38-4.42-1.41a3,3,0,0,0-1.8,5.65l1.16.37L25.44,321a3,3,0,1,0,4,4.39l3.1-2.82.26,1.19a3,3,0,0,0,5.79-1.26l-1-4.53,2.62-2.38L41.83,323a3,3,0,1,0,5.79-1.26L45.29,311,57.72,299.7l1.93.62-1.41,4.42-4.59,1a3,3,0,1,0,1.26,5.79l1.25-.27L55,314.79a3,3,0,1,0,5.65,1.8l1.13-3.54.83.91A3,3,0,0,0,67,310l-3.13-3.44,1.41-4.4,1.93.62,3.58,16.43-8.12,7.39a3,3,0,1,0,4,4.39l5.59-5.08.75,3.46-3.43,3.12a3,3,0,1,0,4,4.39l.9-.82.89,4.1a3,3,0,1,0,5.79-1.26l-.89-4.1,1.16.37a3,3,0,0,0,1.8-5.65l-4.42-1.41-.75-3.46,7.2,2.3a3,3,0,0,0,1.8-5.65l-10.46-3.34L73,301.41l1.48-1.34,3.15,3.47L76.23,308a3,3,0,1,0,5.65,1.8l.37-1.17,2.5,2.75a3,3,0,0,0,4.39-4l-2.49-2.74,1.25-.27a3,3,0,0,0-1.26-5.79l-4.59,1-3.17-3.48,1.47-1.34,16.09,5.14,2.34,10.73a3,3,0,1,0,5.79-1.26L103,302l3.37,1.08,1,4.53a3,3,0,0,0,5.79-1.26l-.26-1.19,4,1.28a3,3,0,0,0,1.8-5.65Z" transform="translate(-6.2 -106.19)"/><path class="cls-2" d="M125.69,205.6l-3-3,1.17-.31a3,3,0,0,0-1.54-5.73l-4.48,1.2-2.5-2.5,7.3-2a3,3,0,0,0-1.54-5.73l-10.61,2.84-12-12,.51-1.91,4.58,1.23,1.22,4.54a3,3,0,1,0,5.73-1.54l-.33-1.23,3.57,1a3,3,0,1,0,1.53-5.73l-3.59-1,.87-.87a3,3,0,1,0-4.19-4.19l-3.29,3.29-4.56-1.22.51-1.91,16.35-4.38,7.77,7.76a3,3,0,1,0,4.19-4.19l-5.34-5.34,3.42-.92,3.28,3.28A3,3,0,0,0,135,161l-.86-.86,4.05-1.09a3,3,0,0,0-1.54-5.73l-4.05,1.09.31-1.17a3,3,0,0,0-5.73-1.53l-1.2,4.48-3.42.92,2-7.3a3,3,0,0,0-5.73-1.53l-2.84,10.61L99.62,163.2l-1.41-1.41,3.33-3.33,4.54,1.22a3,3,0,0,0,1.53-5.73l-1.23-.33L109,151a3,3,0,0,0-4.19-4.19l-2.63,2.63-.32-1.19a3,3,0,0,0-5.73,1.54l1.21,4.5L94,157.6l-1.41-1.41L97,139.88,107.59,137a3,3,0,1,0-1.54-5.73l-7.3,2,.92-3.42,4.48-1.2a3,3,0,1,0-1.54-5.73l-1.17.31,1.09-4.05a3,3,0,0,0-5.73-1.53l-1.09,4.05-.86-.86A3,3,0,0,0,90.65,125l3.28,3.28L93,131.73l-5.34-5.34a3,3,0,0,0-4.19,4.19l7.77,7.76L86.9,154.59l-2,.53-1.2-4.47L87,147.35a3,3,0,1,0-4.19-4.19L82,144l-1-3.59A3,3,0,0,0,75.28,142l1,3.57L75,145.22a3,3,0,1,0-1.53,5.73L78,152.16l1.2,4.48-2,.53L65.36,145.29l2.84-10.61a3,3,0,0,0-5.73-1.53l-2,7.3-2.5-2.5,1.2-4.48a3,3,0,0,0-5.73-1.53l-.31,1.17-3-3A3,3,0,0,0,46,134.33l3,3-1.17.31a3,3,0,1,0,1.54,5.73l4.48-1.2,2.5,2.5-7.3,2a3,3,0,1,0,1.54,5.73l10.61-2.84L73,161.34l-.53,2-4.43-1.19-1.21-4.5a3,3,0,1,0-5.73,1.54l.32,1.19-3.59-1a3,3,0,1,0-1.53,5.73l3.57,1-.9.9a3,3,0,1,0,4.19,4.19l3.32-3.32L71,169l-.53,2-16.2,4.34-7.77-7.77a3,3,0,0,0-4.19,4.19l5.35,5.35-3.42.92-3.28-3.28A3,3,0,0,0,36.73,179l.86.86-4.05,1.09a3,3,0,1,0,1.54,5.73l4.05-1.09-.31,1.17a3,3,0,0,0,5.73,1.53l1.2-4.48,3.42-.92-2,7.3a3,3,0,0,0,5.73,1.53l2.84-10.61L72,176.75l1.44,1.44-3.28,3.28-4.54-1.22A3,3,0,0,0,64.09,186l1.23.33-2.61,2.62a3,3,0,1,0,4.19,4.19l2.63-2.63.32,1.19a3,3,0,0,0,5.73-1.54l-1.21-4.5,3.27-3.27,1.43,1.43-4.35,16.24L64.12,202.9a3,3,0,1,0,1.54,5.73l7.3-2L72,210.08l-4.48,1.2A3,3,0,1,0,69.09,217l1.17-.31-1.09,4.05a3,3,0,1,0,5.73,1.53L76,218.23l.86.86A3,3,0,0,0,81,214.9l-3.28-3.28.92-3.42L84,213.54a3,3,0,0,0,4.19-4.19l-7.77-7.77,4.37-16.31,1.93-.52L88,189.29l-3.29,3.29a3,3,0,1,0,4.19,4.19l.87-.87,1,3.59A3,3,0,0,0,96.43,198l-1-3.57,1.23.33A3,3,0,1,0,98.24,189l-4.54-1.22-1.22-4.55,1.92-.52,11.94,11.94-2.84,10.61a3,3,0,0,0,5.73,1.53l2-7.3,2.5,2.5-1.2,4.48a3,3,0,1,0,5.73,1.53l.31-1.17,3,3a3,3,0,1,0,4.19-4.19Z" transform="translate(-6.2 -106.19)"/><path class="cls-2" d="M192.94,337.53l-2.06-2.06.81-.22a2.06,2.06,0,0,0-1.07-4l-3.11.83-1.74-1.74,5.08-1.36a2.06,2.06,0,1,0-1.07-4l-7.37,2-8.32-8.31.36-1.33,3.18.85.85,3.16a2.06,2.06,0,0,0,4-1.07l-.23-.86,2.48.66a2.06,2.06,0,1,0,1.07-4l-2.49-.67.6-.6a2.06,2.06,0,1,0-2.91-2.91l-2.29,2.29-3.17-.85.35-1.33,11.36-3,5.4,5.4a2.06,2.06,0,0,0,2.91-2.91l-3.71-3.71,2.38-.64,2.28,2.28a2.06,2.06,0,1,0,2.91-2.91l-.6-.6,2.82-.75a2.06,2.06,0,1,0-1.07-4l-2.82.75.22-.81a2.06,2.06,0,1,0-4-1.07l-.83,3.11-2.38.64,1.36-5.08a2.06,2.06,0,1,0-4-1.07l-2,7.37-11.34,3-1-1,2.31-2.31,3.16.84a2.06,2.06,0,1,0,1.07-4l-.86-.23,1.82-1.82a2.06,2.06,0,0,0-2.91-2.91l-1.83,1.83-.22-.83a2.06,2.06,0,0,0-4,1.07l.84,3.12-2.3,2.3-1-1,3-11.33,7.37-2a2.06,2.06,0,1,0-1.07-4l-5.08,1.36.64-2.38,3.11-.83a2.06,2.06,0,1,0-1.07-4l-.81.22.75-2.82a2.06,2.06,0,1,0-4-1.07l-.75,2.82-.6-.6a2.06,2.06,0,1,0-2.91,2.91l2.28,2.28-.64,2.38-3.71-3.71a2.06,2.06,0,0,0-2.91,2.91l5.4,5.4-3,11.29-1.36.37-.83-3.1,2.29-2.29a2.06,2.06,0,1,0-2.91-2.91l-.6.6-.67-2.49a2.06,2.06,0,1,0-4,1.07l.67,2.48-.86-.23a2.06,2.06,0,0,0-1.07,4l3.16.84.84,3.12-1.36.37L151,295.62l2-7.37a2.06,2.06,0,1,0-4-1.07l-1.36,5.08-1.74-1.74.83-3.11a2.06,2.06,0,1,0-4-1.07l-.22.81-2.06-2.06a2.06,2.06,0,0,0-2.91,2.91l2.06,2.06-.81.22a2.06,2.06,0,1,0,1.07,4l3.11-.83,1.74,1.74-5.07,1.36a2.06,2.06,0,1,0,1.07,4l7.37-2,8.24,8.24-.37,1.38-3.08-.83-.84-3.12a2.06,2.06,0,1,0-4,1.07l.22.83-2.49-.67a2.06,2.06,0,0,0-1.07,4l2.48.66-.63.63a2.06,2.06,0,1,0,2.91,2.91l2.31-2.31,3.09.83-.37,1.38-11.26,3-5.4-5.4A2.06,2.06,0,1,0,135,314l3.72,3.71-2.38.64L134,316.12a2.06,2.06,0,0,0-2.91,2.91l.6.6-2.82.75a2.06,2.06,0,1,0,1.07,4l2.82-.75-.22.81a2.06,2.06,0,1,0,4,1.07l.83-3.11,2.38-.64-1.36,5.07a2.06,2.06,0,0,0,4,1.07l2-7.37,11.29-3,1,1-2.28,2.28-3.16-.84a2.06,2.06,0,1,0-1.07,4l.86.23-1.82,1.82a2.06,2.06,0,1,0,2.91,2.91l1.83-1.83.22.83a2.06,2.06,0,0,0,4-1.07l-.84-3.12,2.27-2.27,1,1-3,11.29-7.37,2a2.06,2.06,0,1,0,1.07,4l5.07-1.36-.64,2.38-3.11.83a2.06,2.06,0,1,0,1.07,4l.81-.22-.75,2.82a2.06,2.06,0,0,0,4,1.07l.75-2.82.6.6a2.06,2.06,0,0,0,2.91-2.91l-2.28-2.28.64-2.38L164,343a2.06,2.06,0,0,0,2.91-2.91l-5.4-5.4,3-11.33,1.34-.36.84,3.15-2.29,2.29a2.06,2.06,0,1,0,2.91,2.91l.6-.6.67,2.49a2.06,2.06,0,0,0,4-1.07l-.67-2.48.86.23a2.06,2.06,0,1,0,1.07-4l-3.16-.84-.85-3.16,1.34-.36,8.3,8.3-2,7.37a2.06,2.06,0,0,0,4,1.07l1.36-5.07L184.6,335l-.83,3.11a2.06,2.06,0,0,0,4,1.07l.22-.81,2.06,2.06a2.06,2.06,0,0,0,2.91-2.91Z" transform="translate(-6.2 -106.19)"/><path class="cls-2" d="M258.84,459.73l-2.74-1,.65-.54a2.06,2.06,0,1,0-2.64-3.16l-2.47,2.07-2.31-.85,4-3.37a2.06,2.06,0,0,0-2.64-3.16l-5.86,4.89-11-4-.24-1.35,3.24-.56,2.09,2.51a2.06,2.06,0,0,0,3.16-2.64l-.57-.68,2.53-.44a2.06,2.06,0,1,0-.71-4.06l-2.54.44.29-.8a2.06,2.06,0,1,0-3.87-1.42l-1.11,3-3.23.56-.24-1.35,9-7.54,7.16,2.63a2.06,2.06,0,1,0,1.42-3.87l-4.93-1.81,1.89-1.58,3,1.11a2.06,2.06,0,0,0,1.42-3.87l-.79-.29,2.24-1.87a2.06,2.06,0,1,0-2.64-3.16l-2.24,1.87-.14-.83a2.06,2.06,0,1,0-4.06.71l.55,3.17L242.68,430l-.9-5.18a2.06,2.06,0,0,0-4.06.71l1.31,7.52-9,7.52-1.3-.48,1.13-3.07,3.22-.56a2.06,2.06,0,0,0-.71-4.06l-.87.15.88-2.41a2.06,2.06,0,0,0-3.87-1.42l-.89,2.42-.55-.66a2.06,2.06,0,0,0-3.16,2.64l2.07,2.48-1.12,3.06-1.3-.48-2-11.56,5.86-4.89a2.06,2.06,0,1,0-2.64-3.16l-4,3.37-.42-2.42,2.47-2.07a2.06,2.06,0,1,0-2.64-3.16l-.65.54L219,412a2.06,2.06,0,1,0-4.06.71l.5,2.87-.79-.29a2.06,2.06,0,0,0-1.42,3.87l3,1.11.42,2.42-4.93-1.81a2.06,2.06,0,0,0-1.42,3.87l7.16,2.63,2,11.51-1.08.9-2.06-2.47,1.11-3a2.06,2.06,0,0,0-3.87-1.42l-.29.8-1.65-2a2.06,2.06,0,1,0-3.16,2.64l1.65,2-.87.15a2.06,2.06,0,0,0,.71,4.06l3.22-.56,2.07,2.48-1.08.9-11-4-1.31-7.52a2.06,2.06,0,0,0-4.06.71l.9,5.18-2.31-.85-.55-3.17a2.06,2.06,0,1,0-4.06.71l.14.83-2.74-1a2.06,2.06,0,1,0-1.42,3.87l2.74,1-.65.54a2.06,2.06,0,1,0,2.64,3.16L195,440.7l2.31.85-4,3.37a2.06,2.06,0,1,0,2.64,3.16l5.86-4.89,10.94,4,.24,1.4-3.14.55-2.07-2.48a2.06,2.06,0,1,0-3.16,2.64l.55.66-2.54.44a2.06,2.06,0,0,0,.71,4.06l2.53-.44-.31.83a2.06,2.06,0,1,0,3.87,1.42l1.12-3.07,3.15-.55.24,1.4L205,461.54l-7.17-2.63a2.06,2.06,0,1,0-1.42,3.87l4.93,1.81-1.89,1.58-3-1.11a2.06,2.06,0,0,0-1.42,3.87l.79.29-2.24,1.87a2.06,2.06,0,1,0,2.64,3.16l2.24-1.87.14.83a2.06,2.06,0,0,0,4.06-.71l-.55-3.17,1.89-1.58.9,5.17a2.06,2.06,0,1,0,4.06-.71l-1.31-7.52,9-7.49,1.33.49-1.11,3-3.22.56a2.06,2.06,0,0,0,.71,4.06l.87-.15-.88,2.41a2.06,2.06,0,1,0,3.87,1.42l.89-2.42.55.66a2.06,2.06,0,0,0,3.16-2.64l-2.07-2.48,1.11-3,1.32.48,2,11.51L219.23,476a2.06,2.06,0,1,0,2.64,3.16l4-3.37.42,2.42-2.47,2.07a2.06,2.06,0,1,0,2.64,3.16l.65-.54.5,2.87a2.06,2.06,0,1,0,4.06-.71l-.5-2.87.79.29a2.06,2.06,0,1,0,1.42-3.87l-3-1.11L230,475.1l4.93,1.81a2.06,2.06,0,1,0,1.42-3.87l-7.17-2.63-2-11.56,1.07-.89,2.09,2.5-1.11,3a2.06,2.06,0,1,0,3.87,1.42l.29-.8,1.65,2a2.06,2.06,0,0,0,3.16-2.64l-1.65-2,.87-.15a2.06,2.06,0,1,0-.71-4.06l-3.22.56-2.1-2.51,1.06-.89,11,4,1.31,7.52a2.06,2.06,0,1,0,4.06-.71l-.9-5.17,2.31.85.55,3.17a2.06,2.06,0,0,0,4.06-.71l-.14-.83,2.74,1a2.06,2.06,0,1,0,1.42-3.87Z" transform="translate(-6.2 -106.19)"/><path class="cls-2" d="M219.28,225.9l-2.5-1.5.74-.41a2.06,2.06,0,0,0-2-3.6l-2.82,1.56-2.11-1.27,4.6-2.55a2.06,2.06,0,1,0-2-3.6l-6.68,3.7-10.08-6.06,0-1.37,3.29.06,1.58,2.86a2.06,2.06,0,1,0,3.6-2l-.43-.78,2.57,0a2.06,2.06,0,1,0,.07-4.12l-2.58,0,.44-.73a2.06,2.06,0,1,0-3.53-2.12l-1.67,2.77-3.28-.06,0-1.37,10.29-5.7,6.54,3.93a2.06,2.06,0,1,0,2.12-3.53l-4.5-2.7,2.15-1.19,2.76,1.66a2.06,2.06,0,1,0,2.12-3.53l-.72-.43,2.55-1.41a2.06,2.06,0,1,0-2-3.6l-2.55,1.41v-.84a2.06,2.06,0,1,0-4.12-.07l-.06,3.22L209,193.7l.09-5.25a2.06,2.06,0,1,0-4.12-.07l-.13,7.63-10.26,5.69-1.19-.71,1.68-2.8,3.27.06a2.06,2.06,0,1,0,.07-4.12l-.89,0,1.32-2.2a2.06,2.06,0,0,0-3.53-2.12L194,192l-.41-.75a2.06,2.06,0,0,0-3.6,2l1.57,2.83-1.68,2.79-1.19-.71.2-11.73,6.68-3.7a2.06,2.06,0,0,0-2-3.6l-4.6,2.55,0-2.46,2.82-1.56a2.06,2.06,0,1,0-2-3.6l-.74.41.05-2.91a2.06,2.06,0,0,0-4.12-.07l-.05,2.91-.72-.43a2.06,2.06,0,0,0-2.12,3.53l2.76,1.66,0,2.46-4.5-2.7a2.06,2.06,0,0,0-2.12,3.53l6.54,3.93-.2,11.68-1.23.68-1.56-2.81,1.67-2.77A2.06,2.06,0,1,0,179.9,191l-.44.73-1.25-2.26a2.06,2.06,0,1,0-3.6,2l1.25,2.25-.89,0a2.06,2.06,0,0,0-.07,4.12l3.27.06,1.56,2.82-1.23.68-10-6,.13-7.63a2.06,2.06,0,1,0-4.12-.07l-.09,5.25-2.11-1.27.06-3.22a2.06,2.06,0,0,0-4.12-.07v.84l-2.5-1.5a2.06,2.06,0,1,0-2.12,3.53l2.5,1.5-.74.41a2.06,2.06,0,1,0,2,3.6l2.82-1.56,2.11,1.27L157.67,199a2.06,2.06,0,1,0,2,3.6l6.67-3.7,10,6,0,1.42-3.19-.06-1.57-2.83a2.06,2.06,0,1,0-3.6,2l.41.75-2.58,0a2.06,2.06,0,1,0-.07,4.12l2.57,0-.46.76a2.06,2.06,0,1,0,3.53,2.12l1.68-2.8,3.2.06,0,1.42L166,217.52l-6.54-3.93a2.06,2.06,0,1,0-2.12,3.53l4.5,2.71L159.71,221l-2.76-1.66a2.06,2.06,0,0,0-2.12,3.53l.72.43L153,224.74a2.06,2.06,0,1,0,2,3.6l2.55-1.41v.84a2.06,2.06,0,1,0,4.12.07l.06-3.22,2.15-1.19-.09,5.25a2.06,2.06,0,1,0,4.12.07l.13-7.63,10.22-5.66,1.21.73L177.79,219l-3.27-.06a2.06,2.06,0,1,0-.07,4.12l.89,0-1.32,2.2a2.06,2.06,0,1,0,3.53,2.12l1.33-2.21.41.75a2.06,2.06,0,1,0,3.6-2l-1.57-2.83,1.65-2.75,1.21.73-.2,11.68-6.67,3.7a2.06,2.06,0,1,0,2,3.6l4.59-2.55,0,2.46L181,239.5a2.06,2.06,0,1,0,2,3.6l.74-.41-.05,2.91a2.06,2.06,0,0,0,4.12.07l.05-2.91.72.43a2.06,2.06,0,0,0,2.12-3.53L188,238l0-2.46,4.5,2.71a2.06,2.06,0,1,0,2.12-3.53l-6.54-3.93.2-11.73,1.21-.67,1.58,2.85L189.43,224a2.06,2.06,0,1,0,3.53,2.12l.44-.73,1.25,2.26a2.06,2.06,0,1,0,3.6-2L197,223.41l.89,0a2.06,2.06,0,0,0,.07-4.12l-3.27-.06-1.59-2.86,1.21-.67,10.06,6-.13,7.63a2.06,2.06,0,0,0,4.12.07l.09-5.25,2.11,1.27-.06,3.22a2.06,2.06,0,1,0,4.12.07v-.84l2.5,1.5a2.06,2.06,0,1,0,2.12-3.53Z" transform="translate(-6.2 -106.19)"/><path class="cls-2" d="M212.75,529.32l-2.91-.07.44-.72a2.06,2.06,0,0,0-3.52-2.14l-1.67,2.75-2.46-.06,2.73-4.49a2.06,2.06,0,1,0-3.52-2.14l-4,6.52-11.76-.27-.66-1.2,2.89-1.58,2.79,1.7a2.06,2.06,0,0,0,2.14-3.52l-.76-.46,2.25-1.23a2.06,2.06,0,1,0-2-3.61L190.52,520l0-.85a2.06,2.06,0,1,0-4.12-.09l-.07,3.23-2.88,1.58-.66-1.2,6.11-10.05,7.63.17a2.06,2.06,0,0,0,.09-4.12l-5.25-.12,1.28-2.1,3.22.07a2.06,2.06,0,1,0,.09-4.12l-.84,0,1.51-2.49a2.06,2.06,0,1,0-3.52-2.14l-1.51,2.49-.4-.74a2.06,2.06,0,1,0-3.61,2l1.55,2.83-1.28,2.1-2.52-4.61a2.06,2.06,0,1,0-3.61,2l3.67,6.7-6.1,10-1.38,0,.07-3.27,2.87-1.57a2.06,2.06,0,1,0-2-3.61l-.78.43.06-2.57a2.06,2.06,0,0,0-4.12-.09l-.06,2.58-.73-.44a2.06,2.06,0,0,0-2.14,3.52l2.76,1.68-.07,3.26-1.39,0-5.63-10.29,4-6.52a2.06,2.06,0,1,0-3.52-2.14l-2.73,4.49-1.18-2.16L165,501a2.06,2.06,0,0,0-3.52-2.14l-.44.72-1.4-2.56a2.06,2.06,0,0,0-3.61,2l1.4,2.56-.84,0a2.06,2.06,0,0,0-.09,4.12l3.22.07,1.18,2.16-5.25-.12a2.06,2.06,0,1,0-.09,4.12l7.63.17,5.61,10.25-.73,1.21-2.75-1.67.07-3.23a2.06,2.06,0,0,0-4.12-.09l0,.85L159,518a2.06,2.06,0,0,0-2.14,3.52l2.2,1.34-.78.43a2.06,2.06,0,1,0,2,3.61l2.87-1.57L165.9,527l-.73,1.2L153.49,528l-3.67-6.7a2.06,2.06,0,1,0-3.61,2l2.52,4.61-2.46-.06L144.72,525a2.06,2.06,0,0,0-3.61,2l.4.74-2.91-.07a2.06,2.06,0,0,0-.09,4.12l2.91.07-.44.72a2.06,2.06,0,1,0,3.52,2.14l1.67-2.75,2.46.06-2.73,4.49a2.06,2.06,0,1,0,3.52,2.14l4-6.52,11.65.27.68,1.25-2.8,1.53-2.76-1.68A2.06,2.06,0,1,0,158,537l.73.44-2.26,1.24a2.06,2.06,0,1,0,2,3.61l2.25-1.23,0,.89a2.06,2.06,0,1,0,4.12.09l.07-3.27,2.81-1.54.68,1.25-6.06,10-7.63-.17a2.06,2.06,0,0,0-.09,4.12l5.25.12-1.28,2.1-3.22-.07a2.06,2.06,0,1,0-.09,4.12l.84,0-1.51,2.49a2.06,2.06,0,1,0,3.52,2.14l1.51-2.49.4.74a2.06,2.06,0,1,0,3.61-2l-1.55-2.83,1.28-2.1,2.52,4.61a2.06,2.06,0,0,0,3.61-2l-3.66-6.69,6.07-10,1.41,0-.07,3.22-2.87,1.57a2.06,2.06,0,1,0,2,3.61l.78-.43-.06,2.57a2.06,2.06,0,1,0,4.12.09l.06-2.58.73.44a2.06,2.06,0,0,0,2.14-3.52l-2.76-1.68.07-3.21,1.41,0L184.48,551l-4,6.52a2.06,2.06,0,1,0,3.52,2.14l2.73-4.49,1.18,2.16-1.67,2.75a2.06,2.06,0,1,0,3.52,2.14l.44-.72,1.4,2.56a2.06,2.06,0,1,0,3.61-2l-1.4-2.56.84,0a2.06,2.06,0,0,0,.09-4.12l-3.22-.07-1.18-2.16,5.25.12a2.06,2.06,0,0,0,.09-4.12l-7.63-.17-5.63-10.29.72-1.19,2.78,1.69-.07,3.23a2.06,2.06,0,1,0,4.12.09l0-.85,2.21,1.34a2.06,2.06,0,1,0,2.14-3.52l-2.2-1.34.78-.43a2.06,2.06,0,1,0-2-3.61l-2.87,1.57-2.79-1.7.72-1.18,11.73.27,3.66,6.69a2.06,2.06,0,0,0,3.61-2l-2.52-4.61,2.46.06,1.55,2.83a2.06,2.06,0,0,0,3.61-2l-.4-.74,2.91.07a2.06,2.06,0,0,0,.09-4.12Z" transform="translate(-6.2 -106.19)"/><path class="cls-2" d="M267.72,564.23l-1.5-1,.48-.22a1.29,1.29,0,1,0-1.1-2.32l-1.82.86-1.26-.87,3-1.4a1.29,1.29,0,1,0-1.1-2.32l-4.31,2-6-4.18.07-.85,2,.17.87,1.84a1.29,1.29,0,0,0,2.32-1.1l-.24-.5,1.6.13a1.29,1.29,0,1,0,.21-2.56l-1.61-.13.3-.44a1.29,1.29,0,1,0-2.11-1.46l-1.15,1.66-2-.17.07-.85,6.63-3.14,3.91,2.71a1.29,1.29,0,1,0,1.46-2.11l-2.69-1.86,1.39-.66,1.65,1.14a1.29,1.29,0,0,0,1.46-2.11l-.43-.3,1.64-.78a1.29,1.29,0,0,0-1.1-2.32l-1.64.78,0-.52a1.29,1.29,0,1,0-2.56-.21l-.16,2-1.39.66.27-3.27a1.29,1.29,0,0,0-2.56-.21l-.39,4.75-6.62,3.13-.71-.49,1.16-1.68,2,.17a1.29,1.29,0,1,0,.21-2.56l-.55,0,.91-1.32a1.29,1.29,0,0,0-2.11-1.46l-.92,1.32-.23-.48a1.29,1.29,0,0,0-2.32,1.1l.86,1.82-1.16,1.67-.71-.49.6-7.3,4.31-2a1.29,1.29,0,1,0-1.1-2.32l-3,1.4.13-1.53,1.82-.86a1.29,1.29,0,1,0-1.1-2.32L251,531l.15-1.81a1.29,1.29,0,0,0-2.56-.21l-.15,1.81-.43-.3a1.29,1.29,0,0,0-1.46,2.11l1.65,1.14-.13,1.53-2.69-1.86a1.29,1.29,0,0,0-1.46,2.11l3.91,2.71-.6,7.26-.8.38-.86-1.81,1.15-1.66a1.29,1.29,0,0,0-2.11-1.46l-.3.44-.69-1.46a1.29,1.29,0,0,0-2.32,1.1l.69,1.45-.55,0a1.29,1.29,0,0,0-.21,2.56l2,.17.86,1.82-.8.38-6-4.15.39-4.75a1.29,1.29,0,0,0-2.56-.21l-.27,3.27-1.26-.87.16-2a1.29,1.29,0,1,0-2.56-.21l0,.52-1.5-1a1.29,1.29,0,0,0-1.46,2.11l1.5,1-.48.22a1.29,1.29,0,1,0,1.1,2.32l1.82-.86,1.26.87-3,1.4a1.29,1.29,0,1,0,1.1,2.32l4.3-2,6,4.14-.07.89-2-.16-.86-1.82a1.29,1.29,0,0,0-2.32,1.1l.23.48-1.61-.13a1.29,1.29,0,1,0-.21,2.56l1.6.13-.32.46a1.29,1.29,0,1,0,2.11,1.46l1.16-1.68,2,.16-.07.89-6.57,3.11L231,554.16a1.29,1.29,0,0,0-1.46,2.11l2.69,1.87-1.39.66-1.65-1.14a1.29,1.29,0,1,0-1.46,2.11l.43.3-1.64.78a1.29,1.29,0,1,0,1.1,2.32l1.64-.78,0,.52a1.29,1.29,0,1,0,2.56.21l.16-2,1.39-.66-.27,3.27a1.29,1.29,0,0,0,2.56.21l.39-4.74,6.59-3.12.72.5-1.15,1.65-2-.17a1.29,1.29,0,1,0-.21,2.56l.55,0-.91,1.32a1.29,1.29,0,1,0,2.11,1.46l.92-1.32.23.48a1.29,1.29,0,0,0,2.32-1.1l-.86-1.82,1.14-1.65.72.5-.6,7.26-4.3,2a1.29,1.29,0,1,0,1.1,2.32l3-1.4-.13,1.53-1.82.86a1.29,1.29,0,1,0,1.1,2.32l.48-.22-.15,1.81a1.29,1.29,0,1,0,2.56.21l.15-1.81.43.3a1.29,1.29,0,1,0,1.46-2.11l-1.65-1.14.13-1.53,2.69,1.87a1.29,1.29,0,1,0,1.46-2.11L248.11,566l.6-7.3.78-.37.87,1.84-1.15,1.66a1.29,1.29,0,1,0,2.11,1.46l.3-.44.69,1.46a1.29,1.29,0,1,0,2.32-1.1l-.69-1.45.55,0a1.29,1.29,0,1,0,.21-2.56l-2-.17-.87-1.84.78-.37,6,4.17-.39,4.74a1.29,1.29,0,1,0,2.56.21l.27-3.27,1.26.87-.16,2a1.29,1.29,0,1,0,2.56.21l0-.52,1.5,1a1.29,1.29,0,1,0,1.46-2.11Z" transform="translate(-6.2 -106.19)"/><path class="cls-2" d="M264.64,375.4l-1.65-.77.43-.3a1.29,1.29,0,0,0-1.47-2.11l-1.65,1.15-1.39-.65,2.69-1.88a1.29,1.29,0,0,0-1.47-2.11l-3.9,2.73-6.65-3.1-.07-.85,2-.18,1.17,1.67a1.29,1.29,0,0,0,2.11-1.47l-.32-.45,1.6-.14a1.29,1.29,0,1,0-.22-2.56l-1.6.14.23-.48a1.29,1.29,0,0,0-2.33-1.09l-.85,1.83-2,.18-.07-.85,6-4.21,4.31,2a1.29,1.29,0,0,0,1.09-2.33l-3-1.38,1.26-.88,1.82.85a1.29,1.29,0,0,0,1.09-2.33l-.48-.22,1.49-1a1.29,1.29,0,0,0-1.47-2.11l-1.49,1,0-.52a1.29,1.29,0,0,0-2.56.22l.18,2-1.26.88-.29-3.27a1.29,1.29,0,1,0-2.56.22l.42,4.74-6,4.2-.78-.37.86-1.85,2-.18a1.29,1.29,0,0,0-.22-2.56l-.55,0,.68-1.45a1.29,1.29,0,0,0-2.33-1.09l-.68,1.46-.31-.44a1.29,1.29,0,0,0-2.11,1.47l1.16,1.65-.86,1.84-.78-.37-.64-7.29,3.9-2.73a1.29,1.29,0,1,0-1.47-2.11l-2.69,1.88-.13-1.53,1.65-1.15a1.29,1.29,0,1,0-1.47-2.11l-.43.3-.16-1.81a1.29,1.29,0,1,0-2.56.22l.16,1.81-.48-.22a1.29,1.29,0,1,0-1.09,2.33l1.82.85.13,1.53-3-1.38a1.29,1.29,0,0,0-1.09,2.33l4.31,2,.64,7.26-.72.5-1.15-1.64.85-1.83a1.29,1.29,0,1,0-2.33-1.09l-.23.48-.92-1.32a1.29,1.29,0,1,0-2.11,1.47l.92,1.31-.55,0a1.29,1.29,0,1,0,.22,2.56l2-.18,1.15,1.65-.72.5-6.6-3.08-.42-4.74a1.29,1.29,0,0,0-2.56.22l.29,3.27-1.39-.65-.18-2a1.29,1.29,0,0,0-2.56.22l0,.52-1.65-.77a1.29,1.29,0,1,0-1.09,2.33l1.65.77-.43.3a1.29,1.29,0,1,0,1.47,2.11L226,360.2l1.39.65-2.68,1.88a1.29,1.29,0,1,0,1.47,2.11l3.9-2.73,6.59,3.07.08.89-2,.17-1.16-1.65a1.29,1.29,0,0,0-2.11,1.47l.31.44-1.6.14a1.29,1.29,0,0,0,.22,2.56l1.6-.14-.23.5a1.29,1.29,0,1,0,2.33,1.09l.86-1.85,2-.17.08.89-6,4.17-4.32-2a1.29,1.29,0,1,0-1.09,2.33l3,1.39-1.26.88-1.82-.85a1.29,1.29,0,0,0-1.09,2.33l.48.22-1.49,1a1.29,1.29,0,1,0,1.47,2.11l1.49-1,0,.52a1.29,1.29,0,0,0,2.56-.22l-.18-2,1.26-.88.29,3.26a1.29,1.29,0,1,0,2.56-.22l-.41-4.74,6-4.18.8.37-.85,1.82-2,.18a1.29,1.29,0,0,0,.22,2.56l.55,0-.68,1.45a1.29,1.29,0,1,0,2.33,1.09l.68-1.46.31.44a1.29,1.29,0,1,0,2.11-1.47l-1.16-1.65.85-1.82.8.37.64,7.26-3.9,2.73a1.29,1.29,0,1,0,1.47,2.11l2.68-1.88.13,1.53-1.65,1.15a1.29,1.29,0,1,0,1.47,2.11l.43-.3.16,1.81a1.29,1.29,0,0,0,2.56-.22l-.16-1.81.48.22a1.29,1.29,0,0,0,1.09-2.33L246,385l-.13-1.53,3,1.39a1.29,1.29,0,1,0,1.09-2.33l-4.32-2-.64-7.29.71-.5,1.17,1.66-.85,1.83a1.29,1.29,0,1,0,2.33,1.09l.23-.48.92,1.32a1.29,1.29,0,1,0,2.11-1.47l-.92-1.31.55,0a1.29,1.29,0,0,0-.22-2.56l-2,.18-1.17-1.67.71-.5,6.63,3.09.41,4.74a1.29,1.29,0,0,0,2.56-.22l-.29-3.26,1.39.65.18,2a1.29,1.29,0,1,0,2.56-.22l0-.52,1.65.77a1.29,1.29,0,1,0,1.09-2.33Z" transform="translate(-6.2 -106.19)"/><path class="cls-2" d="M247.13,295.73l-.7-1.68.52.07a1.29,1.29,0,1,0,.33-2.55l-2-.26-.59-1.42,3.25.42a1.29,1.29,0,1,0,.33-2.55l-4.72-.61-2.83-6.77.52-.68,1.63,1.24-.26,2a1.29,1.29,0,0,0,2.55.33l.07-.55,1.28,1a1.29,1.29,0,1,0,1.56-2l-1.28-1,.49-.21a1.29,1.29,0,1,0-1-2.37l-1.86.78-1.63-1.24.52-.68,7.28.93,1.84,4.39a1.29,1.29,0,0,0,2.37-1l-1.26-3,1.52.19.78,1.85a1.29,1.29,0,0,0,2.37-1l-.2-.49,1.8.23a1.29,1.29,0,1,0,.33-2.55l-1.8-.23.32-.42a1.29,1.29,0,0,0-2-1.56l-1.22,1.6-1.52-.2,2-2.61a1.29,1.29,0,1,0-2-1.56l-2.89,3.79-7.26-.93-.33-.8,1.88-.79,1.62,1.23a1.29,1.29,0,1,0,1.56-2l-.44-.34,1.48-.62a1.29,1.29,0,0,0-1-2.37l-1.49.62.07-.53a1.29,1.29,0,0,0-2.55-.33l-.26,2-1.88.78-.33-.8,4.44-5.82,4.72.61a1.29,1.29,0,1,0,.33-2.55l-3.25-.42.93-1.22,2,.26a1.29,1.29,0,0,0,.33-2.55l-.52-.07,1.1-1.45a1.29,1.29,0,0,0-2-1.56l-1.1,1.45-.2-.49a1.29,1.29,0,1,0-2.37,1l.78,1.85-.93,1.22-1.26-3a1.29,1.29,0,0,0-2.37,1l1.84,4.39-4.42,5.8-.87-.11.25-2,1.86-.78a1.29,1.29,0,0,0-1-2.37l-.49.21.2-1.6a1.29,1.29,0,0,0-2.55-.33l-.2,1.59-.44-.34a1.29,1.29,0,0,0-1.56,2l1.62,1.23-.26,2-.87-.11-2.81-6.72,2.89-3.79a1.29,1.29,0,0,0-2-1.56l-2,2.61-.59-1.42,1.22-1.6a1.29,1.29,0,1,0-2-1.56l-.32.42-.7-1.68a1.29,1.29,0,1,0-2.37,1l.7,1.68-.52-.07a1.29,1.29,0,1,0-.33,2.55l2,.26.59,1.42-3.25-.42a1.29,1.29,0,1,0-.33,2.55l4.72.6,2.81,6.71-.54.71-1.58-1.21.26-2a1.29,1.29,0,0,0-2.55-.33l-.07.53-1.28-1a1.29,1.29,0,1,0-1.56,2l1.28,1-.51.21a1.29,1.29,0,1,0,1,2.37l1.88-.79,1.59,1.21-.54.71-7.21-.92-1.84-4.39a1.29,1.29,0,0,0-2.37,1l1.26,3-1.52-.2-.78-1.85a1.29,1.29,0,1,0-2.37,1l.2.49-1.8-.23a1.29,1.29,0,1,0-.33,2.55l1.8.23-.32.42a1.29,1.29,0,0,0,2,1.56l1.22-1.6,1.52.19-2,2.61a1.29,1.29,0,1,0,2,1.56l2.88-3.79,7.23.93.34.81-1.86.78-1.62-1.23a1.29,1.29,0,0,0-1.56,2l.44.34-1.48.62a1.29,1.29,0,1,0,1,2.37l1.49-.62L227,281a1.29,1.29,0,1,0,2.55.33l.26-2,1.85-.77.34.81-4.42,5.8-4.72-.6a1.29,1.29,0,1,0-.33,2.55l3.25.42-.93,1.22-2-.26a1.29,1.29,0,1,0-.33,2.55l.52.07L222,292.5a1.29,1.29,0,1,0,2,1.56l1.1-1.45.2.49a1.29,1.29,0,1,0,2.37-1l-.78-1.85.93-1.22,1.26,3a1.29,1.29,0,0,0,2.37-1l-1.84-4.39,4.44-5.82.86.11-.26,2-1.86.78a1.29,1.29,0,1,0,1,2.37l.49-.21-.2,1.6a1.29,1.29,0,1,0,2.55.33l.2-1.59.44.34a1.29,1.29,0,1,0,1.56-2l-1.62-1.23.26-2,.86.11,2.82,6.75-2.88,3.79a1.29,1.29,0,0,0,2,1.56l2-2.61.59,1.42-1.22,1.6a1.29,1.29,0,0,0,2,1.56l.32-.42.7,1.68a1.29,1.29,0,1,0,2.37-1Z" transform="translate(-6.2 -106.19)"/><path class="cls-2" d="M236.84,161.06l-1-1.53.53,0a1.29,1.29,0,1,0-.11-2.57l-2,.09-.83-1.29,3.27-.15a1.29,1.29,0,1,0-.11-2.57l-4.76.21L227.9,147l.39-.76,1.82.95.09,2a1.29,1.29,0,0,0,2.57-.11l0-.55,1.42.74a1.29,1.29,0,1,0,1.19-2.28l-1.43-.74.45-.29a1.29,1.29,0,0,0-1.38-2.17l-1.7,1.09-1.82-.94.39-.76,7.33-.33,2.56,4a1.29,1.29,0,0,0,2.17-1.38l-1.76-2.76,1.53-.07,1.08,1.69a1.29,1.29,0,1,0,2.17-1.38l-.28-.44,1.82-.08a1.29,1.29,0,0,0-.11-2.57l-1.82.08.24-.47a1.29,1.29,0,0,0-2.28-1.19l-.93,1.78-1.53.07,1.51-2.91a1.29,1.29,0,0,0-2.28-1.19l-2.2,4.23-7.31.32-.46-.73,1.72-1.1,1.81.94a1.29,1.29,0,1,0,1.19-2.28l-.49-.26,1.35-.86a1.29,1.29,0,0,0-1.38-2.17l-1.36.87,0-.53a1.29,1.29,0,0,0-2.57.11l.09,2-1.71,1.09-.47-.73,3.38-6.5,4.76-.21a1.29,1.29,0,1,0-.11-2.57l-3.27.15.71-1.36,2-.09a1.29,1.29,0,1,0-.11-2.57l-.53,0,.84-1.61a1.29,1.29,0,0,0-2.28-1.19l-.84,1.61-.28-.44a1.29,1.29,0,0,0-2.17,1.38l1.08,1.69-.71,1.36L228.16,124a1.29,1.29,0,1,0-2.17,1.38l2.56,4-3.36,6.47-.88,0-.09-2,1.7-1.09a1.29,1.29,0,0,0-1.38-2.17l-.45.29L224,129.3a1.29,1.29,0,1,0-2.57.11l.07,1.6-.49-.26a1.29,1.29,0,1,0-1.19,2.28l1.81.94.09,2-.88,0-3.92-6.14,2.2-4.23a1.29,1.29,0,0,0-2.28-1.19l-1.51,2.91-.83-1.29.93-1.78a1.29,1.29,0,0,0-2.28-1.19l-.24.47-1-1.53a1.29,1.29,0,1,0-2.17,1.38l1,1.53-.53,0a1.29,1.29,0,1,0,.11,2.57l2-.09.83,1.29-3.27.15a1.29,1.29,0,1,0,.11,2.57l4.76-.21,3.91,6.13-.41.79-1.77-.92-.09-2a1.29,1.29,0,0,0-2.57.11l0,.53-1.43-.74a1.29,1.29,0,0,0-1.19,2.28l1.42.74-.47.3a1.29,1.29,0,1,0,1.38,2.17l1.72-1.1,1.77.92-.41.79-7.26.32-2.56-4a1.29,1.29,0,1,0-2.17,1.38l1.76,2.76-1.53.07-1.08-1.69a1.29,1.29,0,1,0-2.17,1.38l.28.44-1.82.08a1.29,1.29,0,1,0,.11,2.57l1.82-.08-.24.47a1.29,1.29,0,0,0,2.28,1.19l.93-1.78,1.53-.07-1.51,2.91a1.29,1.29,0,0,0,2.28,1.19l2.19-4.22,7.28-.32.47.74-1.7,1.08-1.81-.94A1.29,1.29,0,0,0,212.6,147l.49.26-1.35.86a1.29,1.29,0,1,0,1.38,2.17l1.36-.87,0,.53a1.29,1.29,0,0,0,2.57-.11l-.09-2,1.69-1.08.47.74-3.36,6.47-4.76.21a1.29,1.29,0,1,0,.11,2.57l3.27-.15-.71,1.36-2,.09a1.29,1.29,0,1,0,.11,2.57l.53,0-.84,1.61a1.29,1.29,0,1,0,2.28,1.19l.84-1.61.28.44a1.29,1.29,0,1,0,2.17-1.38L216,159.12l.71-1.36,1.76,2.76a1.29,1.29,0,1,0,2.17-1.38l-2.56-4,3.38-6.5.86,0,.09,2-1.7,1.09a1.29,1.29,0,1,0,1.38,2.17l.45-.29.07,1.61a1.29,1.29,0,1,0,2.57-.11l-.07-1.6.49.26a1.29,1.29,0,1,0,1.19-2.28l-1.81-.94-.09-2,.86,0,3.94,6.17-2.19,4.22a1.29,1.29,0,1,0,2.28,1.19l1.51-2.91.83,1.29-.93,1.78a1.29,1.29,0,1,0,2.28,1.19l.24-.47,1,1.53a1.29,1.29,0,1,0,2.17-1.38Z" transform="translate(-6.2 -106.19)"/></g><g id="Layer_2_copy" data-name="Layer 2 copy"><path class="cls-2" d="M682.74,552.39l3.17-2.75-1.15-.39a3,3,0,1,1,1.93-5.61l4.38,1.51,2.67-2.32-7.15-2.46a3,3,0,1,1,1.93-5.61l10.39,3.57,12.77-11.11-.38-1.94-4.65.91-1.53,4.45a3,3,0,0,1-5.61-1.93l.42-1.21-3.63.71a3,3,0,1,1-1.13-5.82l3.65-.71-.81-.93a3,3,0,0,1,4.47-3.89l3.05,3.51,4.63-.9-.38-1.94-16-5.51-8.29,7.21a3,3,0,1,1-3.89-4.47l5.7-5L684,508.63l-3.5,3a3,3,0,1,1-3.89-4.47l.92-.8-4-1.36a3,3,0,0,1,1.93-5.61l4,1.36-.23-1.19a3,3,0,1,1,5.82-1.13l.89,4.55,3.35,1.15-1.44-7.42a3,3,0,0,1,5.82-1.13l2.1,10.78,16,5.49,1.5-1.31L710.1,507l-4.61.9a3,3,0,1,1-1.13-5.82l1.25-.24-2.43-2.79a3,3,0,0,1,4.47-3.89l2.44,2.8.4-1.16a3,3,0,0,1,5.61,1.93l-1.51,4.4,3.08,3.54,1.51-1.31-3.23-16.57-10.39-3.57a3,3,0,1,1,1.93-5.61l7.15,2.46-.68-3.48-4.38-1.51a3,3,0,1,1,1.93-5.61l1.15.39-.8-4.12a3,3,0,1,1,5.82-1.13l.8,4.12.92-.8a3,3,0,0,1,3.89,4.47l-3.5,3,.68,3.47,5.7-5a3,3,0,1,1,3.89,4.47l-8.29,7.21L725,504.18l1.92.66,1.5-4.37L725.34,497a3,3,0,1,1,4.47-3.89l.81.93,1.21-3.51a3,3,0,0,1,5.61,1.93l-1.2,3.5,1.25-.24a3,3,0,0,1,1.13,5.82l-4.61.9-1.51,4.39,1.92.66,12.68-11L745,485.62a3,3,0,0,1,5.82-1.13l1.45,7.42,2.67-2.32-.89-4.55a3,3,0,0,1,5.82-1.13l.23,1.19,3.17-2.75a3,3,0,0,1,3.89,4.47L764,489.56l1.15.39a3,3,0,1,1-1.93,5.61l-4.38-1.51-2.67,2.32,7.15,2.46a3,3,0,1,1-1.93,5.61L751,500.87l-12.66,11,.39,2,4.51-.88,1.51-4.4a3,3,0,0,1,5.61,1.93l-.4,1.16,3.65-.71a3,3,0,0,1,1.13,5.82l-3.63.71.84,1a3,3,0,1,1-4.47,3.89l-3.09-3.55-4.52.88.39,2,15.86,5.46,8.29-7.21a3,3,0,1,1,3.89,4.47l-5.71,5,3.35,1.15,3.5-3a3,3,0,1,1,3.89,4.47l-.92.8,4,1.36a3,3,0,1,1-1.93,5.61l-4-1.36.23,1.19a3,3,0,0,1-5.82,1.13l-.89-4.55L760.67,535l1.44,7.42a3,3,0,0,1-5.82,1.13l-2.1-10.78-15.9-5.47-1.53,1.33,3,3.5,4.61-.9a3,3,0,0,1,1.13,5.82l-1.25.24,2.43,2.79a3,3,0,1,1-4.47,3.89l-2.44-2.8-.4,1.16a3,3,0,1,1-5.61-1.93l1.51-4.4-3-3.49-1.53,1.33,3.21,16.5L744.35,554a3,3,0,1,1-1.93,5.61l-7.15-2.46.68,3.47,4.38,1.51a3,3,0,1,1-1.93,5.61l-1.15-.39.8,4.12a3,3,0,1,1-5.82,1.13l-.8-4.12-.92.8a3,3,0,1,1-3.89-4.47l3.5-3-.68-3.48-5.71,5a3,3,0,1,1-3.89-4.47l8.29-7.21-3.23-16.57-1.89-.65-1.53,4.43,3.05,3.51a3,3,0,1,1-4.47,3.89l-.81-.93-1.21,3.51a3,3,0,0,1-5.61-1.93l1.2-3.5-1.25.24a3,3,0,1,1-1.13-5.82l4.61-.9,1.53-4.45-1.88-.65L702.8,542.8l2.1,10.78a3,3,0,0,1-5.82,1.13l-1.44-7.42L695,549.61l.89,4.55A3,3,0,1,1,690,555.3l-.23-1.19-3.17,2.75a3,3,0,1,1-3.89-4.47Z" transform="translate(-6.2 -106.19)"/><path class="cls-2" d="M629,417.71l4.13-.76-.79-.92a3,3,0,0,1,4.52-3.84l3,3.53,3.48-.64-4.9-5.76a3,3,0,0,1,4.52-3.84l7.12,8.37,16.64-3.05.66-1.86L663,407.35l-3.58,3a3,3,0,1,1-3.84-4.52l1-.83L653,403.81a3,3,0,1,1,2-5.59l3.5,1.25-.22-1.21a3,3,0,1,1,5.83-1.07l.84,4.58,4.45,1.58.66-1.86-11-12.89-10.8,2a3,3,0,1,1-1.07-5.83l7.43-1.36-2.29-2.7-4.56.84a3,3,0,0,1-1.07-5.83l1.19-.22-2.72-3.2a3,3,0,0,1,4.52-3.84l2.72,3.2.41-1.14a3,3,0,0,1,5.59,2l-1.56,4.37,2.29,2.7,2.54-7.12a3,3,0,1,1,5.59,2l-3.69,10.35,10.94,12.86,2-.36-.85-4.63-4.43-1.58a3,3,0,1,1,2-5.59l1.2.43-.67-3.64a3,3,0,0,1,5.83-1.07l.67,3.65.94-.8a3,3,0,0,1,3.84,4.52l-3.55,3,.85,4.61,2-.36L690,379.93l-7.12-8.37a3,3,0,0,1,4.52-3.84l4.9,5.76,1.19-3.34-3-3.53a3,3,0,1,1,4.52-3.84l.79.92,1.41-4a3,3,0,0,1,5.59,2l-1.41,4,1.19-.22a3,3,0,1,1,1.07,5.83l-4.56.84-1.19,3.33,7.43-1.36a3,3,0,0,1,1.07,5.83l-10.8,2-5.64,15.84,1.32,1.55,3.52-3-.84-4.58a3,3,0,0,1,5.83-1.07l.22,1.21,2.83-2.41a3,3,0,1,1,3.84,4.52l-2.82,2.4,1.2.43a3,3,0,0,1-2,5.59l-4.43-1.58-3.54,3,1.31,1.55,16.54-3L716.64,392a3,3,0,1,1,5.59,2l-2.54,7.12,3.48-.64,1.56-4.37a3,3,0,0,1,5.59,2l-.41,1.14,4.13-.76a3,3,0,1,1,1.07,5.83l-4.13.76.79.92a3,3,0,1,1-4.52,3.84l-3-3.53-3.48.64,4.9,5.76a3,3,0,1,1-4.52,3.84L714,408.16l-16.5,3-.69,1.93,4.32,1.54,3.55-3a3,3,0,1,1,3.84,4.52l-.94.8,3.5,1.25a3,3,0,0,1-2,5.59l-3.48-1.24.23,1.26a3,3,0,1,1-5.83,1.07l-.85-4.62-4.34-1.55-.69,1.93L705,433.41l10.8-2a3,3,0,1,1,1.07,5.83l-7.44,1.36,2.29,2.7,4.56-.84a3,3,0,0,1,1.07,5.83l-1.19.22,2.72,3.2a3,3,0,1,1-4.52,3.84l-2.72-3.2-.41,1.14a3,3,0,0,1-5.59-2l1.56-4.37-2.29-2.7-2.54,7.12a3,3,0,1,1-5.59-2l3.69-10.34-10.89-12.81-2,.37.84,4.56,4.43,1.58a3,3,0,0,1-2,5.59l-1.2-.43.67,3.64a3,3,0,1,1-5.83,1.07l-.67-3.65-.94.8a3,3,0,0,1-3.84-4.52l3.55-3-.83-4.55-2,.37-5.64,15.84,7.12,8.36a3,3,0,1,1-4.52,3.84l-4.9-5.76-1.19,3.33,3,3.53a3,3,0,1,1-4.52,3.84l-.79-.92-1.41,4a3,3,0,0,1-5.59-2l1.41-4-1.19.22a3,3,0,0,1-1.07-5.83l4.56-.84,1.19-3.34-7.44,1.36a3,3,0,0,1-1.07-5.83l10.81-2,5.67-15.91-1.29-1.52-3.57,3,.84,4.58a3,3,0,1,1-5.83,1.07l-.22-1.21-2.83,2.41a3,3,0,0,1-3.84-4.52l2.82-2.4-1.2-.43a3,3,0,0,1,2-5.59l4.43,1.58,3.58-3-1.29-1.52-16.61,3L647.5,430a3,3,0,1,1-5.59-2l2.54-7.12-3.48.64-1.56,4.37a3,3,0,1,1-5.59-2l.41-1.14-4.13.76a3,3,0,0,1-1.07-5.83Z" transform="translate(-6.2 -106.19)"/><path class="cls-2" d="M673.21,300.75l4-1.28-.9-.82a3,3,0,0,1,4-4.39l3.43,3.12,3.37-1.08-5.59-5.09a3,3,0,0,1,4-4.39l8.13,7.39,16.12-5.15.42-1.93-4.63-1-3.16,3.48a3,3,0,1,1-4.39-4l.86-.94-3.61-.79a3,3,0,1,1,1.26-5.79l3.63.79-.37-1.17a3,3,0,1,1,5.65-1.8l1.42,4.43,4.61,1,.42-1.93L699.32,268l-10.46,3.34a3,3,0,0,1-1.8-5.65l7.2-2.3L691.64,261l-4.42,1.41a3,3,0,0,1-1.8-5.65l1.16-.37-3.1-2.82a3,3,0,1,1,4-4.39l3.1,2.82.26-1.19a3,3,0,0,1,5.79,1.26l-1,4.53,2.62,2.38,1.61-7.39a3,3,0,0,1,5.79,1.26l-2.34,10.73L715.81,275l1.9-.61-1.43-4.48-4.59-1a3,3,0,0,1,1.26-5.79l1.25.27-1.13-3.52a3,3,0,0,1,5.65-1.8l1.13,3.54.83-.91a3,3,0,0,1,4.39,4l-3.13,3.44,1.43,4.47,1.9-.61,3.59-16.5-8.13-7.39a3,3,0,1,1,4-4.39l5.59,5.09.75-3.46-3.43-3.12a3,3,0,1,1,4-4.39l.9.82.89-4.1a3,3,0,0,1,5.79,1.26l-.89,4.1,1.16-.37a3,3,0,1,1,1.8,5.65l-4.42,1.41-.75,3.46,7.2-2.3a3,3,0,1,1,1.8,5.65l-10.46,3.34-3.58,16.43,1.5,1.37,3.11-3.42-1.42-4.43a3,3,0,0,1,5.65-1.8l.37,1.17,2.5-2.75a3,3,0,1,1,4.39,4L744.69,270l1.25.27a3,3,0,0,1-1.26,5.79l-4.59-1L737,278.54l1.5,1.36,16-5.12,2.34-10.73a3,3,0,0,1,5.79,1.26L761,272.7l3.37-1.08,1-4.53a3,3,0,0,1,5.79,1.26l-.26,1.19,4-1.28a3,3,0,1,1,1.8,5.65l-4,1.28.9.82a3,3,0,1,1-4,4.39l-3.43-3.12-3.37,1.08,5.59,5.08a3,3,0,1,1-4,4.39l-8.12-7.39-16,5.11-.44,2,4.49,1,3.13-3.44a3,3,0,1,1,4.39,4L751,290l3.63.79a3,3,0,0,1-1.26,5.79l-3.61-.79.39,1.22a3,3,0,1,1-5.65,1.8l-1.43-4.48-4.5-1-.44,2,12.41,11.28L761,303.28a3,3,0,1,1,1.8,5.65l-7.2,2.3,2.62,2.38,4.42-1.41a3,3,0,0,1,1.8,5.65l-1.16.37,3.1,2.82a3,3,0,1,1-4,4.39l-3.1-2.82-.26,1.19a3,3,0,1,1-5.79-1.26l1-4.53-2.62-2.38L750,323a3,3,0,0,1-5.79-1.26L746.59,311,734.15,299.7l-1.93.62,1.41,4.42,4.59,1a3,3,0,0,1-1.26,5.79l-1.25-.27,1.13,3.52a3,3,0,1,1-5.65,1.8l-1.13-3.54-.83.91a3,3,0,1,1-4.39-4l3.13-3.44-1.41-4.4-1.93.62-3.58,16.43,8.12,7.39a3,3,0,1,1-4,4.39l-5.59-5.08-.75,3.46,3.43,3.12a3,3,0,1,1-4,4.39l-.9-.82-.89,4.1a3,3,0,1,1-5.79-1.26l.89-4.1-1.16.37a3,3,0,0,1-1.8-5.65l4.42-1.41.75-3.46-7.2,2.3a3,3,0,1,1-1.8-5.65l10.46-3.34,3.59-16.5-1.48-1.34-3.15,3.47,1.42,4.43a3,3,0,1,1-5.65,1.8l-.37-1.17-2.5,2.75a3,3,0,1,1-4.39-4l2.49-2.74-1.25-.27a3,3,0,0,1,1.26-5.79l4.59,1,3.17-3.48-1.47-1.34-16.09,5.14-2.34,10.73a3,3,0,1,1-5.79-1.26l1.61-7.38L685.54,303l-1,4.53a3,3,0,1,1-5.79-1.26l.26-1.19-4,1.28a3,3,0,0,1-1.8-5.65Z" transform="translate(-6.2 -106.19)"/><path class="cls-2" d="M666.18,205.6l3-3-1.17-.31a3,3,0,0,1,1.54-5.73l4.48,1.2,2.5-2.5-7.3-2a3,3,0,0,1,1.54-5.73l10.61,2.84,12-12-.51-1.91-4.58,1.23L687,182.34a3,3,0,1,1-5.73-1.54l.33-1.23-3.57,1a3,3,0,1,1-1.53-5.73l3.59-1-.87-.87a3,3,0,1,1,4.19-4.19l3.29,3.29,4.56-1.22-.51-1.91-16.35-4.38-7.77,7.76a3,3,0,0,1-4.19-4.19l5.34-5.34-3.42-.92-3.28,3.28A3,3,0,0,1,656.9,161l.86-.86L653.7,159a3,3,0,1,1,1.54-5.73l4.05,1.09L659,153.2a3,3,0,0,1,5.73-1.53l1.2,4.48,3.42.92-2-7.3a3,3,0,0,1,5.73-1.53l2.84,10.61,16.31,4.37,1.41-1.41-3.33-3.33-4.54,1.22a3,3,0,0,1-1.53-5.73l1.23-.33L682.88,151a3,3,0,0,1,4.19-4.19l2.63,2.63.32-1.19a3,3,0,0,1,5.73,1.54l-1.21,4.5,3.32,3.32,1.41-1.41-4.37-16.31L684.29,137a3,3,0,1,1,1.54-5.73l7.3,2-.92-3.42-4.48-1.2a3,3,0,0,1,1.54-5.73l1.17.31-1.09-4.05a3,3,0,0,1,5.73-1.53l1.09,4.05.86-.86a3,3,0,1,1,4.19,4.19l-3.28,3.28.92,3.42,5.34-5.34a3,3,0,1,1,4.19,4.19l-7.77,7.76L705,154.59l2,.53,1.2-4.47-3.29-3.29a3,3,0,1,1,4.19-4.19l.87.87,1-3.59A3,3,0,0,1,716.6,142l-1,3.57,1.23-.33a3,3,0,1,1,1.53,5.73l-4.54,1.22-1.2,4.48,2,.53,11.89-11.89-2.84-10.61a3,3,0,1,1,5.73-1.53l2,7.3,2.5-2.5-1.2-4.48a3,3,0,0,1,5.73-1.53l.31,1.17,3-3a3,3,0,1,1,4.19,4.19l-3,3,1.17.31a3,3,0,1,1-1.54,5.73l-4.48-1.2-2.5,2.5,7.3,2a3,3,0,1,1-1.54,5.73l-10.61-2.84-11.86,11.86.53,2,4.43-1.19,1.21-4.5a3,3,0,0,1,5.73,1.54l-.32,1.19,3.59-1a3,3,0,0,1,1.53,5.73l-3.57,1,.9.9a3,3,0,1,1-4.19,4.19l-3.32-3.32L720.91,169l.53,2,16.2,4.34,7.77-7.77a3,3,0,1,1,4.19,4.19l-5.35,5.35,3.42.92,3.28-3.28a3,3,0,1,1,4.19,4.19l-.86.86,4.05,1.09a3,3,0,1,1-1.54,5.73l-4.05-1.09.31,1.17a3,3,0,0,1-5.73,1.53l-1.2-4.48-3.42-.92,2,7.3a3,3,0,0,1-5.73,1.53L736.1,181.1l-16.24-4.35-1.44,1.44,3.28,3.28,4.54-1.22a3,3,0,0,1,1.53,5.73l-1.23.33,2.61,2.62a3,3,0,1,1-4.19,4.19l-2.63-2.63-.32,1.19a3,3,0,0,1-5.73-1.54l1.21-4.5-3.27-3.27-1.43,1.43,4.35,16.24,10.61,2.84a3,3,0,1,1-1.54,5.73l-7.3-2,.92,3.42,4.48,1.2a3,3,0,1,1-1.54,5.73l-1.17-.31,1.09,4.05a3,3,0,1,1-5.73,1.53l-1.09-4.05-.86.86a3,3,0,0,1-4.19-4.19l3.28-3.28-.92-3.42-5.35,5.35a3,3,0,1,1-4.19-4.19l7.77-7.77-4.37-16.31-1.93-.52-1.21,4.53,3.29,3.29a3,3,0,1,1-4.19,4.19l-.87-.87-1,3.59a3,3,0,0,1-5.73-1.54l1-3.57-1.23.33a3,3,0,0,1-1.53-5.73l4.54-1.22,1.22-4.55-1.92-.52-11.94,11.94,2.84,10.61a3,3,0,1,1-5.73,1.53l-2-7.3-2.5,2.5,1.2,4.48a3,3,0,0,1-5.73,1.53l-.31-1.17-3,3a3,3,0,0,1-4.19-4.19Z" transform="translate(-6.2 -106.19)"/><path class="cls-2" d="M598.93,337.53l2.06-2.06-.81-.22a2.06,2.06,0,0,1,1.07-4l3.11.83,1.74-1.74L601,329a2.06,2.06,0,1,1,1.07-4l7.37,2,8.32-8.31-.36-1.33-3.18.85-.85,3.16a2.06,2.06,0,0,1-4-1.07l.23-.86-2.48.66a2.06,2.06,0,1,1-1.07-4l2.49-.67-.6-.6a2.06,2.06,0,1,1,2.91-2.91l2.29,2.29,3.17-.85-.35-1.33-11.36-3-5.4,5.4a2.06,2.06,0,1,1-2.91-2.91l3.71-3.71-2.38-.64-2.28,2.28a2.06,2.06,0,1,1-2.91-2.91l.6-.6-2.82-.75a2.06,2.06,0,1,1,1.07-4l2.82.75-.22-.81a2.06,2.06,0,1,1,4-1.07l.83,3.11,2.38.64-1.36-5.08a2.06,2.06,0,1,1,4-1.07l2,7.37,11.34,3,1-1-2.31-2.31-3.16.84a2.06,2.06,0,1,1-1.07-4l.86-.23-1.82-1.82a2.06,2.06,0,0,1,2.91-2.91l1.83,1.83.22-.83a2.06,2.06,0,0,1,4,1.07l-.84,3.12,2.3,2.3,1-1-3-11.33-7.37-2a2.06,2.06,0,1,1,1.07-4l5.08,1.36-.64-2.38-3.11-.83a2.06,2.06,0,1,1,1.07-4l.81.22-.75-2.82a2.06,2.06,0,1,1,4-1.07l.75,2.82.6-.6a2.06,2.06,0,0,1,2.91,2.91L621,283.82l.64,2.38,3.71-3.71a2.06,2.06,0,0,1,2.91,2.91l-5.4,5.4,3,11.29,1.36.37.83-3.1-2.29-2.29a2.06,2.06,0,0,1,2.91-2.91l.6.6.67-2.49a2.06,2.06,0,1,1,4,1.07l-.67,2.48.86-.23a2.06,2.06,0,0,1,1.07,4l-3.16.84-.84,3.12,1.36.37,8.26-8.26-2-7.37a2.06,2.06,0,1,1,4-1.07l1.36,5.08,1.74-1.74-.83-3.11a2.06,2.06,0,1,1,4-1.07l.22.81,2.06-2.06A2.06,2.06,0,0,1,654.3,288l-2.06,2.06.81.22a2.06,2.06,0,1,1-1.07,4l-3.11-.83-1.74,1.74,5.07,1.36a2.06,2.06,0,1,1-1.07,4l-7.37-2-8.24,8.24.37,1.38,3.08-.83.84-3.12a2.06,2.06,0,1,1,4,1.07l-.22.83,2.49-.67a2.06,2.06,0,0,1,1.07,4l-2.48.66.63.63a2.06,2.06,0,1,1-2.91,2.91L640,311.3l-3.09.83.37,1.38,11.26,3,5.4-5.4A2.06,2.06,0,0,1,656.9,314l-3.72,3.71,2.38.64,2.28-2.28a2.06,2.06,0,0,1,2.91,2.91l-.6.6,2.82.75a2.06,2.06,0,1,1-1.07,4l-2.82-.75.22.81a2.06,2.06,0,1,1-4,1.07l-.83-3.11-2.38-.64,1.36,5.07a2.06,2.06,0,0,1-4,1.07l-2-7.37-11.29-3-1,1,2.28,2.28,3.16-.84a2.06,2.06,0,1,1,1.07,4l-.86.23,1.82,1.82a2.06,2.06,0,1,1-2.91,2.91L638,327l-.22.83a2.06,2.06,0,1,1-4-1.07l.84-3.12-2.27-2.27-1,1,3,11.29,7.37,2a2.06,2.06,0,1,1-1.07,4l-5.07-1.36.64,2.38,3.11.83a2.06,2.06,0,1,1-1.07,4l-.81-.22.75,2.82a2.06,2.06,0,0,1-4,1.07l-.75-2.82-.6.6A2.06,2.06,0,0,1,630,344l2.28-2.28-.64-2.38L627.88,343a2.06,2.06,0,0,1-2.91-2.91l5.4-5.4-3-11.33L626,323l-.84,3.15,2.29,2.29a2.06,2.06,0,1,1-2.91,2.91l-.6-.6-.67,2.49a2.06,2.06,0,0,1-4-1.07l.67-2.48-.86.23a2.06,2.06,0,1,1-1.07-4l3.16-.84L622,322l-1.34-.36-8.3,8.3,2,7.37a2.06,2.06,0,0,1-4,1.07L609,333.28,607.27,335l.83,3.11a2.06,2.06,0,0,1-4,1.07l-.22-.81-2.06,2.06a2.06,2.06,0,1,1-2.91-2.91Z" transform="translate(-6.2 -106.19)"/><path class="cls-2" d="M533,459.73l2.74-1-.65-.54a2.06,2.06,0,1,1,2.64-3.16l2.47,2.07,2.31-.85-4-3.37a2.06,2.06,0,0,1,2.64-3.16L547,454.6l11-4,.24-1.35-3.24-.56L553,451.14a2.06,2.06,0,0,1-3.16-2.64l.57-.68-2.53-.44a2.06,2.06,0,1,1,.71-4.06l2.54.44-.29-.8a2.06,2.06,0,1,1,3.87-1.42l1.11,3,3.23.56.24-1.35-9-7.54L543,438.88a2.06,2.06,0,1,1-1.42-3.87l4.93-1.81-1.89-1.58-3,1.11a2.06,2.06,0,0,1-1.42-3.87l.79-.29-2.24-1.87a2.06,2.06,0,1,1,2.64-3.16l2.24,1.87.14-.83a2.06,2.06,0,1,1,4.06.71l-.55,3.17,1.89,1.58.9-5.18a2.06,2.06,0,0,1,4.06.71l-1.31,7.52,9,7.52,1.3-.48L562,437.06l-3.22-.56a2.06,2.06,0,0,1,.71-4.06l.87.15-.88-2.41a2.06,2.06,0,0,1,3.87-1.42l.89,2.42.55-.66a2.06,2.06,0,0,1,3.16,2.64l-2.07,2.48,1.12,3.06,1.3-.48,2-11.56-5.86-4.89a2.06,2.06,0,1,1,2.64-3.16l4,3.37.42-2.42-2.47-2.07a2.06,2.06,0,1,1,2.64-3.16l.65.54.5-2.87a2.06,2.06,0,1,1,4.06.71l-.5,2.87.79-.29a2.06,2.06,0,0,1,1.42,3.87l-3,1.11-.42,2.42,4.93-1.81a2.06,2.06,0,0,1,1.42,3.87l-7.16,2.63-2,11.51,1.08.9,2.06-2.47-1.11-3a2.06,2.06,0,0,1,3.87-1.42l.29.8,1.65-2a2.06,2.06,0,1,1,3.16,2.64l-1.65,2,.87.15a2.06,2.06,0,0,1-.71,4.06l-3.22-.56-2.07,2.48,1.08.9,11-4L590,431.8a2.06,2.06,0,1,1,4.06.71l-.9,5.18,2.31-.85.55-3.17a2.06,2.06,0,0,1,4.06.71l-.14.83,2.74-1a2.06,2.06,0,0,1,1.42,3.87l-2.74,1,.65.54a2.06,2.06,0,1,1-2.64,3.16l-2.47-2.07-2.31.85,4,3.37a2.06,2.06,0,1,1-2.64,3.16l-5.86-4.89-10.94,4-.24,1.4,3.14.55,2.07-2.48a2.06,2.06,0,0,1,3.16,2.64l-.55.66,2.54.44a2.06,2.06,0,0,1-.71,4.06l-2.53-.44.31.83a2.06,2.06,0,1,1-3.87,1.42l-1.12-3.07-3.15-.55-.24,1.4,8.95,7.47,7.17-2.63a2.06,2.06,0,1,1,1.42,3.87l-4.93,1.81,1.89,1.58,3-1.11a2.06,2.06,0,0,1,1.42,3.87l-.79.29,2.24,1.87a2.06,2.06,0,1,1-2.64,3.16l-2.24-1.87-.14.83a2.06,2.06,0,1,1-4.06-.71l.55-3.17-1.89-1.58-.9,5.17a2.06,2.06,0,0,1-4.06-.71l1.31-7.52-9-7.49-1.33.49,1.11,3,3.22.56a2.06,2.06,0,1,1-.71,4.06l-.87-.15.88,2.41a2.06,2.06,0,1,1-3.87,1.42l-.89-2.42-.55.66a2.06,2.06,0,1,1-3.16-2.64l2.07-2.48-1.11-3-1.32.48-2,11.51,5.86,4.89a2.06,2.06,0,1,1-2.64,3.16l-4-3.37-.42,2.42,2.47,2.07a2.06,2.06,0,1,1-2.64,3.16l-.65-.54-.5,2.87a2.06,2.06,0,1,1-4.06-.71l.5-2.87-.79.29a2.06,2.06,0,1,1-1.42-3.87l3-1.11.42-2.42L557,476.9a2.06,2.06,0,1,1-1.42-3.87l7.17-2.63,2-11.56-1.07-.89-2.09,2.5,1.11,3a2.06,2.06,0,1,1-3.87,1.42l-.29-.8-1.65,2a2.06,2.06,0,1,1-3.16-2.64l1.65-2-.87-.15a2.06,2.06,0,1,1,.71-4.06l3.22.56,2.1-2.51-1.06-.89-11,4L547.13,466a2.06,2.06,0,0,1-4.06-.71l.9-5.17-2.31.85-.55,3.17a2.06,2.06,0,0,1-4.06-.71l.14-.83-2.74,1a2.06,2.06,0,1,1-1.42-3.87Z" transform="translate(-6.2 -106.19)"/><path class="cls-2" d="M572.59,225.9l2.5-1.5-.74-.41a2.06,2.06,0,1,1,2-3.6l2.82,1.56,2.11-1.27-4.6-2.55a2.06,2.06,0,1,1,2-3.6l6.68,3.7,10.08-6.06,0-1.37-3.29.06-1.58,2.86a2.06,2.06,0,1,1-3.6-2l.43-.78-2.57,0a2.06,2.06,0,1,1-.07-4.12l2.58,0-.44-.73a2.06,2.06,0,1,1,3.53-2.12l1.67,2.77,3.28-.06,0-1.37L585,199.61l-6.54,3.93a2.06,2.06,0,0,1-2.12-3.53l4.5-2.7-2.15-1.19L576,197.77a2.06,2.06,0,1,1-2.12-3.53l.72-.43L572,192.39a2.06,2.06,0,1,1,2-3.6l2.55,1.41v-.84a2.06,2.06,0,0,1,4.12-.07l.06,3.22,2.15,1.19-.09-5.25a2.06,2.06,0,1,1,4.12-.07L587,196l10.26,5.69,1.19-.71-1.68-2.8-3.27.06a2.06,2.06,0,0,1-.07-4.12l.89,0-1.32-2.2a2.06,2.06,0,0,1,3.53-2.12l1.33,2.21.41-.75a2.06,2.06,0,0,1,3.6,2l-1.57,2.83,1.68,2.79,1.19-.71-.2-11.73-6.68-3.7a2.06,2.06,0,0,1,2-3.6l4.6,2.55,0-2.46-2.82-1.56a2.06,2.06,0,1,1,2-3.6l.74.41-.05-2.91a2.06,2.06,0,0,1,4.12-.07l.05,2.91.72-.43a2.06,2.06,0,0,1,2.12,3.53L607,179.12l0,2.46,4.5-2.7a2.06,2.06,0,0,1,2.12,3.53l-6.54,3.93.2,11.68,1.23.68,1.56-2.81-1.67-2.77A2.06,2.06,0,0,1,612,191l.44.73,1.25-2.26a2.06,2.06,0,1,1,3.6,2L616,193.72l.89,0a2.06,2.06,0,0,1,.07,4.12l-3.27.06-1.56,2.82,1.23.68,10-6-.13-7.63a2.06,2.06,0,1,1,4.12-.07l.09,5.25,2.11-1.27-.06-3.22a2.06,2.06,0,0,1,4.12-.07v.84l2.5-1.5a2.06,2.06,0,1,1,2.12,3.53l-2.5,1.5.74.41a2.06,2.06,0,1,1-2,3.6l-2.82-1.56-2.11,1.27L634.2,199a2.06,2.06,0,1,1-2,3.6l-6.67-3.7-10,6,0,1.42,3.19-.06,1.57-2.83a2.06,2.06,0,1,1,3.6,2l-.41.75,2.58,0a2.06,2.06,0,1,1,.07,4.12l-2.57,0,.46.76a2.06,2.06,0,1,1-3.53,2.12l-1.68-2.8-3.2.06,0,1.42,10.19,5.65,6.54-3.93a2.06,2.06,0,0,1,2.12,3.53l-4.5,2.71,2.15,1.19,2.76-1.66a2.06,2.06,0,0,1,2.12,3.53l-.72.43,2.55,1.41a2.06,2.06,0,1,1-2,3.6l-2.55-1.41v.84a2.06,2.06,0,1,1-4.12.07l-.06-3.22L628,223.43l.09,5.25a2.06,2.06,0,1,1-4.12.07l-.13-7.63-10.22-5.66-1.21.73,1.66,2.76,3.27-.06a2.06,2.06,0,0,1,.07,4.12l-.89,0,1.32,2.2a2.06,2.06,0,1,1-3.53,2.12L613,225.15l-.41.75a2.06,2.06,0,1,1-3.6-2l1.57-2.83-1.65-2.75-1.21.73.2,11.68,6.67,3.7a2.06,2.06,0,1,1-2,3.6L608,235.48l0,2.46,2.82,1.56a2.06,2.06,0,1,1-2,3.6l-.74-.41.05,2.91a2.06,2.06,0,0,1-4.12.07l-.05-2.91-.72.43a2.06,2.06,0,1,1-2.12-3.53L603.9,238l0-2.46-4.5,2.71a2.06,2.06,0,1,1-2.12-3.53l6.54-3.93-.2-11.73-1.21-.67-1.58,2.85,1.67,2.77a2.06,2.06,0,1,1-3.53,2.12l-.44-.73-1.25,2.26a2.06,2.06,0,0,1-3.6-2l1.25-2.25-.89,0a2.06,2.06,0,0,1-.07-4.12l3.27-.06,1.59-2.86-1.21-.67-10.06,6,.13,7.63a2.06,2.06,0,1,1-4.12.07l-.09-5.25-2.11,1.27.06,3.22a2.06,2.06,0,1,1-4.12.07v-.84l-2.5,1.5a2.06,2.06,0,1,1-2.12-3.53Z" transform="translate(-6.2 -106.19)"/><path class="cls-2" d="M579.12,529.32l2.91-.07-.44-.72a2.06,2.06,0,0,1,3.52-2.14l1.67,2.75,2.46-.06-2.73-4.49a2.06,2.06,0,0,1,3.52-2.14l4,6.52,11.76-.27.66-1.2-2.89-1.58-2.79,1.7a2.06,2.06,0,0,1-2.14-3.52l.76-.46-2.25-1.23a2.06,2.06,0,1,1,2-3.61l2.26,1.24,0-.85a2.06,2.06,0,0,1,4.12-.09l.07,3.23,2.88,1.58.66-1.2-6.11-10.05-7.63.17a2.06,2.06,0,1,1-.09-4.12l5.25-.12-1.28-2.1-3.22.07a2.06,2.06,0,1,1-.09-4.12l.84,0-1.51-2.49a2.06,2.06,0,0,1,3.52-2.14l1.51,2.49.4-.74a2.06,2.06,0,0,1,3.61,2l-1.55,2.83,1.28,2.1,2.52-4.61a2.06,2.06,0,1,1,3.61,2l-3.67,6.7,6.1,10,1.38,0-.07-3.27L611,515.66a2.06,2.06,0,1,1,2-3.61l.78.43-.06-2.57a2.06,2.06,0,0,1,4.12-.09l.06,2.58.73-.44a2.06,2.06,0,0,1,2.14,3.52L618,517.15l.07,3.26,1.39,0,5.63-10.29-4-6.52a2.06,2.06,0,0,1,3.52-2.14l2.73,4.49,1.18-2.16L626.89,501a2.06,2.06,0,0,1,3.52-2.14l.44.72,1.4-2.56a2.06,2.06,0,0,1,3.61,2l-1.4,2.56.84,0a2.06,2.06,0,0,1,.09,4.12l-3.22.07L631,507.88l5.25-.12a2.06,2.06,0,1,1,.09,4.12l-7.63.17-5.61,10.25.73,1.21,2.75-1.67-.07-3.23a2.06,2.06,0,0,1,4.12-.09l0,.85,2.21-1.34a2.06,2.06,0,0,1,2.14,3.52l-2.2,1.34.78.43a2.06,2.06,0,0,1-2,3.61l-2.87-1.57L626,527l.73,1.2,11.68-.27,3.67-6.7a2.06,2.06,0,0,1,3.61,2l-2.52,4.61,2.46-.06,1.55-2.83a2.06,2.06,0,0,1,3.61,2l-.4.74,2.91-.07a2.06,2.06,0,0,1,.09,4.12l-2.91.07.44.72a2.06,2.06,0,1,1-3.52,2.14l-1.67-2.75-2.46.06,2.73,4.49a2.06,2.06,0,1,1-3.52,2.14l-4-6.52-11.65.27-.68,1.25,2.8,1.53,2.76-1.68a2.06,2.06,0,0,1,2.14,3.52l-.73.44,2.26,1.24a2.06,2.06,0,1,1-2,3.61L631.15,541l0,.89A2.06,2.06,0,1,1,627,542l-.07-3.27-2.81-1.54-.68,1.25,6.06,10,7.63-.17a2.06,2.06,0,1,1,.09,4.12l-5.25.12,1.28,2.1,3.22-.07a2.06,2.06,0,0,1,.09,4.12l-.84,0,1.51,2.49a2.06,2.06,0,1,1-3.52,2.14l-1.51-2.49-.4.74a2.06,2.06,0,0,1-3.61-2l1.55-2.83-1.28-2.1L626,559.24a2.06,2.06,0,1,1-3.61-2l3.66-6.69-6.07-10-1.41,0,.07,3.22,2.87,1.57a2.06,2.06,0,1,1-2,3.61l-.78-.43.06,2.57a2.06,2.06,0,1,1-4.12.09l-.06-2.58-.73.44a2.06,2.06,0,1,1-2.14-3.52l2.76-1.68-.07-3.21-1.41,0L607.39,551l4,6.52a2.06,2.06,0,1,1-3.52,2.14l-2.73-4.49-1.18,2.16,1.67,2.75a2.06,2.06,0,1,1-3.52,2.14l-.44-.72-1.4,2.56a2.06,2.06,0,0,1-3.61-2l1.4-2.56-.84,0a2.06,2.06,0,1,1-.09-4.12l3.22-.07,1.18-2.16-5.25.12a2.06,2.06,0,0,1-.09-4.12l7.63-.17,5.63-10.29-.72-1.19-2.78,1.69.07,3.23a2.06,2.06,0,1,1-4.12.09l0-.85L599.64,543a2.06,2.06,0,1,1-2.14-3.52l2.2-1.34-.78-.43a2.06,2.06,0,0,1,2-3.61l2.87,1.57,2.79-1.7-.72-1.18-11.73.27-3.66,6.69a2.06,2.06,0,0,1-3.61-2l2.52-4.61-2.46.06-1.55,2.83a2.06,2.06,0,1,1-3.61-2l.4-.74-2.91.07a2.06,2.06,0,1,1-.09-4.12Z" transform="translate(-6.2 -106.19)"/><path class="cls-2" d="M524.15,564.23l1.5-1-.48-.22a1.29,1.29,0,1,1,1.1-2.32l1.82.86,1.26-.87-3-1.4a1.29,1.29,0,0,1,1.1-2.32l4.31,2,6-4.18-.07-.85-2,.17-.87,1.84a1.29,1.29,0,0,1-2.32-1.1l.24-.5-1.6.13a1.29,1.29,0,1,1-.21-2.56l1.61-.13-.3-.44a1.29,1.29,0,1,1,2.11-1.46l1.15,1.66,2-.17-.07-.85-6.63-3.14-3.91,2.71a1.29,1.29,0,1,1-1.46-2.11l2.69-1.86-1.39-.66-1.65,1.14a1.29,1.29,0,1,1-1.46-2.11l.43-.3-1.64-.78a1.29,1.29,0,1,1,1.1-2.32l1.64.78,0-.52a1.29,1.29,0,1,1,2.56-.21l.16,2,1.39.66L529,540.5a1.29,1.29,0,0,1,2.56-.21l.39,4.75,6.62,3.13.71-.49L538.1,546l-2,.17a1.29,1.29,0,0,1-.21-2.56l.55,0-.91-1.32a1.29,1.29,0,0,1,2.11-1.46l.92,1.32.23-.48a1.29,1.29,0,0,1,2.32,1.1l-.86,1.82,1.16,1.67.71-.49-.6-7.3-4.31-2a1.29,1.29,0,1,1,1.1-2.32l3,1.4-.13-1.53-1.82-.86a1.29,1.29,0,0,1,1.1-2.32l.48.22-.15-1.81a1.29,1.29,0,0,1,2.56-.21l.15,1.81.43-.3a1.29,1.29,0,1,1,1.46,2.11l-1.65,1.14.13,1.53,2.69-1.86A1.29,1.29,0,0,1,548,535.5l-3.91,2.71.6,7.26.8.38.86-1.81-1.15-1.66a1.29,1.29,0,0,1,2.11-1.46l.3.44.69-1.46a1.29,1.29,0,1,1,2.32,1.1l-.69,1.45.55,0a1.29,1.29,0,1,1,.21,2.56l-2,.17-.86,1.82.8.38,6-4.15-.39-4.75a1.29,1.29,0,0,1,2.56-.21l.27,3.27,1.26-.87-.16-2a1.29,1.29,0,0,1,2.56-.21l0,.52,1.5-1a1.29,1.29,0,0,1,1.46,2.11l-1.5,1,.48.22a1.29,1.29,0,1,1-1.1,2.32l-1.82-.86-1.26.87,3,1.4a1.29,1.29,0,1,1-1.1,2.32l-4.3-2-6,4.14.07.89,2-.16.86-1.82a1.29,1.29,0,1,1,2.32,1.1l-.23.48,1.61-.13a1.29,1.29,0,1,1,.21,2.56l-1.6.13.32.46a1.29,1.29,0,1,1-2.11,1.46l-1.16-1.68-2,.16.07.89,6.57,3.11,3.92-2.71a1.29,1.29,0,1,1,1.46,2.11l-2.69,1.87,1.39.66,1.65-1.14a1.29,1.29,0,0,1,1.46,2.11l-.43.3,1.64.78a1.29,1.29,0,1,1-1.1,2.32l-1.64-.78,0,.52a1.29,1.29,0,0,1-2.56.21l-.16-2-1.39-.66.27,3.27a1.29,1.29,0,0,1-2.56.21l-.39-4.74-6.59-3.12-.72.5,1.15,1.65,2-.17a1.29,1.29,0,1,1,.21,2.56l-.55,0,.91,1.32a1.29,1.29,0,1,1-2.11,1.46l-.92-1.32-.23.48a1.29,1.29,0,1,1-2.32-1.1l.86-1.82L546.45,558l-.72.5.6,7.26,4.3,2a1.29,1.29,0,1,1-1.1,2.32l-3-1.4.13,1.53,1.82.86a1.29,1.29,0,1,1-1.1,2.32l-.48-.22.15,1.81a1.29,1.29,0,1,1-2.56.21l-.15-1.81-.43.3a1.29,1.29,0,0,1-1.46-2.11l1.65-1.14L544,569l-2.69,1.87a1.29,1.29,0,1,1-1.46-2.11l3.92-2.71-.6-7.3-.78-.37-.87,1.84,1.15,1.66a1.29,1.29,0,1,1-2.11,1.46l-.3-.44-.69,1.46a1.29,1.29,0,0,1-2.32-1.1l.69-1.45-.55,0a1.29,1.29,0,1,1-.21-2.56l2-.17.87-1.84-.78-.37-6,4.17.39,4.74a1.29,1.29,0,0,1-2.56.21l-.27-3.27-1.26.87.16,2a1.29,1.29,0,1,1-2.56.21l0-.52-1.5,1a1.29,1.29,0,0,1-1.46-2.11Z" transform="translate(-6.2 -106.19)"/><path class="cls-2" d="M527.23,375.4l1.65-.77-.43-.3a1.29,1.29,0,1,1,1.47-2.11l1.65,1.15,1.39-.65-2.69-1.88a1.29,1.29,0,0,1,1.47-2.11l3.9,2.73,6.65-3.1.07-.85-2-.18L539.16,369a1.29,1.29,0,1,1-2.11-1.47l.32-.45-1.6-.14a1.29,1.29,0,1,1,.22-2.56l1.6.14-.23-.48a1.29,1.29,0,1,1,2.33-1.09l.85,1.83,2,.18.07-.85-6-4.21-4.31,2a1.29,1.29,0,0,1-1.09-2.33l3-1.38-1.26-.88-1.82.85a1.29,1.29,0,1,1-1.09-2.33l.48-.22-1.49-1a1.29,1.29,0,1,1,1.47-2.11l1.49,1,0-.52a1.29,1.29,0,0,1,2.56.22l-.18,2,1.26.88.29-3.27a1.29,1.29,0,1,1,2.56.22l-.42,4.74,6,4.2.78-.37-.86-1.85-2-.18a1.29,1.29,0,1,1,.22-2.56l.55,0-.68-1.45a1.29,1.29,0,0,1,2.33-1.09l.68,1.46.31-.44a1.29,1.29,0,0,1,2.11,1.47l-1.16,1.65.86,1.84.78-.37.64-7.29-3.9-2.73a1.29,1.29,0,1,1,1.47-2.11l2.69,1.88.13-1.53-1.65-1.15a1.29,1.29,0,1,1,1.47-2.11l.43.3.16-1.81a1.29,1.29,0,1,1,2.56.22l-.16,1.81.48-.22a1.29,1.29,0,0,1,1.09,2.33l-1.82.85-.13,1.53,3-1.38a1.29,1.29,0,0,1,1.09,2.33l-4.31,2-.64,7.26.72.5,1.15-1.64-.85-1.83a1.29,1.29,0,1,1,2.33-1.09l.23.48.92-1.32A1.29,1.29,0,1,1,557.2,357l-.92,1.31.55,0a1.29,1.29,0,1,1-.22,2.56l-2-.18-1.15,1.65.72.5,6.6-3.08.42-4.74a1.29,1.29,0,1,1,2.56.22l-.29,3.27,1.39-.65.18-2a1.29,1.29,0,1,1,2.56.22l0,.52,1.65-.77a1.29,1.29,0,1,1,1.09,2.33l-1.65.77.43.3a1.29,1.29,0,1,1-1.47,2.11l-1.65-1.15-1.39.65,2.68,1.88a1.29,1.29,0,1,1-1.47,2.11l-3.9-2.73-6.59,3.07-.08.89,2,.17,1.16-1.65a1.29,1.29,0,0,1,2.11,1.47l-.31.44,1.6.14a1.29,1.29,0,0,1-.22,2.56l-1.6-.14.23.5a1.29,1.29,0,1,1-2.33,1.09l-.86-1.85-2-.17-.08.89,6,4.17,4.32-2a1.29,1.29,0,1,1,1.09,2.33l-3,1.39,1.26.88,1.82-.85a1.29,1.29,0,1,1,1.09,2.33l-.48.22,1.49,1a1.29,1.29,0,1,1-1.47,2.11l-1.49-1,0,.52a1.29,1.29,0,0,1-2.56-.22l.18-2-1.26-.88-.29,3.26a1.29,1.29,0,1,1-2.56-.22l.41-4.74-6-4.18-.8.37.85,1.82,2,.18a1.29,1.29,0,0,1-.22,2.56l-.55,0,.68,1.45A1.29,1.29,0,1,1,553,379l-.68-1.46L552,378a1.29,1.29,0,0,1-2.11-1.47l1.16-1.65-.85-1.82-.8.37-.64,7.26,3.9,2.73a1.29,1.29,0,1,1-1.47,2.11l-2.68-1.88-.13,1.53,1.65,1.15a1.29,1.29,0,1,1-1.47,2.11l-.43-.3-.16,1.81a1.29,1.29,0,0,1-2.56-.22l.16-1.81-.48.22a1.29,1.29,0,1,1-1.09-2.33l1.82-.85.13-1.53-3,1.39a1.29,1.29,0,1,1-1.09-2.33l4.32-2,.64-7.29-.71-.5L545,374.35l.85,1.83a1.29,1.29,0,1,1-2.33,1.09l-.23-.48-.92,1.32a1.29,1.29,0,1,1-2.11-1.47l.92-1.31-.55,0a1.29,1.29,0,0,1,.22-2.56l2,.18,1.17-1.67-.71-.5-6.63,3.09-.41,4.74a1.29,1.29,0,0,1-2.56-.22l.29-3.26-1.39.65-.18,2a1.29,1.29,0,1,1-2.56-.22l0-.52-1.65.77a1.29,1.29,0,0,1-1.09-2.33Z" transform="translate(-6.2 -106.19)"/><path class="cls-2" d="M544.74,295.73l.7-1.68-.52.07a1.29,1.29,0,1,1-.33-2.55l2-.26.59-1.42-3.25.42a1.29,1.29,0,0,1-.33-2.55l4.72-.61,2.83-6.77-.52-.68L549,281l.26,2a1.29,1.29,0,0,1-2.55.33l-.07-.55-1.28,1a1.29,1.29,0,1,1-1.56-2l1.28-1-.49-.21a1.29,1.29,0,1,1,1-2.37l1.86.78,1.63-1.24-.52-.68-7.28.93-1.84,4.39a1.29,1.29,0,0,1-2.37-1l1.26-3-1.52.19-.78,1.85a1.29,1.29,0,0,1-2.37-1l.2-.49-1.8.23a1.29,1.29,0,1,1-.33-2.55l1.8-.23-.32-.42a1.29,1.29,0,0,1,2-1.56l1.22,1.6,1.52-.2-2-2.61a1.29,1.29,0,1,1,2-1.56l2.89,3.79,7.26-.93.33-.8-1.88-.79L545,274.08a1.29,1.29,0,0,1-1.56-2l.44-.34-1.48-.62a1.29,1.29,0,0,1,1-2.37l1.49.62-.07-.53a1.29,1.29,0,0,1,2.55-.33l.26,2,1.88.78.33-.8-4.44-5.82-4.72.61a1.29,1.29,0,1,1-.33-2.55l3.25-.42-.93-1.22-2,.26a1.29,1.29,0,0,1-.33-2.55l.52-.07-1.1-1.45a1.29,1.29,0,0,1,2-1.56l1.1,1.45.2-.49a1.29,1.29,0,1,1,2.37,1l-.78,1.85.93,1.22,1.26-3a1.29,1.29,0,1,1,2.37,1l-1.84,4.39,4.42,5.8.87-.11-.25-2-1.86-.78a1.29,1.29,0,0,1,1-2.37l.49.21-.2-1.6a1.29,1.29,0,0,1,2.55-.33l.2,1.59.44-.34a1.29,1.29,0,1,1,1.56,2l-1.62,1.23.26,2,.87-.11,2.81-6.72-2.89-3.79a1.29,1.29,0,0,1,2-1.56l2,2.61.59-1.42-1.22-1.6a1.29,1.29,0,1,1,2-1.56l.32.42.7-1.68a1.29,1.29,0,0,1,2.37,1l-.7,1.68.52-.07a1.29,1.29,0,1,1,.33,2.55l-2,.26-.59,1.42,3.25-.42a1.29,1.29,0,1,1,.33,2.55l-4.72.6-2.81,6.71.54.71,1.58-1.21-.26-2a1.29,1.29,0,0,1,2.55-.33l.07.53,1.28-1a1.29,1.29,0,1,1,1.56,2l-1.28,1,.51.21a1.29,1.29,0,1,1-1,2.37l-1.88-.79-1.59,1.21.54.71,7.21-.92,1.84-4.39a1.29,1.29,0,0,1,2.37,1l-1.26,3,1.52-.2.78-1.85a1.29,1.29,0,0,1,2.37,1l-.2.49,1.8-.23a1.29,1.29,0,1,1,.33,2.55l-1.8.23.32.42a1.29,1.29,0,0,1-2,1.56l-1.22-1.6-1.52.19,2,2.61a1.29,1.29,0,1,1-2,1.56l-2.88-3.79-7.23.93-.34.81,1.86.78,1.62-1.23a1.29,1.29,0,1,1,1.56,2l-.44.34,1.48.62a1.29,1.29,0,1,1-1,2.37l-1.49-.62.07.53a1.29,1.29,0,1,1-2.55.33l-.26-2-1.85-.77-.34.81,4.42,5.8,4.72-.6a1.29,1.29,0,1,1,.33,2.55l-3.25.42.93,1.22,2-.26a1.29,1.29,0,1,1,.33,2.55l-.52.07,1.1,1.45a1.29,1.29,0,1,1-2,1.56l-1.1-1.45-.2.49a1.29,1.29,0,1,1-2.37-1l.78-1.85L564,289l-1.26,3a1.29,1.29,0,1,1-2.37-1l1.84-4.39-4.44-5.82-.86.11.26,2,1.86.78a1.29,1.29,0,1,1-1,2.37l-.49-.21.2,1.6a1.29,1.29,0,0,1-2.55.33l-.2-1.59-.44.34a1.29,1.29,0,1,1-1.56-2l1.62-1.23-.26-2-.86.11-2.82,6.75,2.88,3.79a1.29,1.29,0,0,1-2,1.56l-2-2.61L549,292.3l1.22,1.6a1.29,1.29,0,0,1-2,1.56l-.32-.42-.7,1.68a1.29,1.29,0,0,1-2.37-1Z" transform="translate(-6.2 -106.19)"/><path class="cls-2" d="M555,161.06l1-1.53-.53,0a1.29,1.29,0,1,1,.11-2.57l2,.09.83-1.29-3.27-.15a1.29,1.29,0,1,1,.11-2.57l4.76.21L564,147l-.39-.76-1.82.95-.09,2a1.29,1.29,0,0,1-2.57-.11l0-.55-1.42.74a1.29,1.29,0,1,1-1.19-2.28l1.43-.74-.45-.29a1.29,1.29,0,0,1,1.38-2.17l1.7,1.09,1.82-.94-.39-.76-7.33-.33-2.56,4a1.29,1.29,0,0,1-2.17-1.38l1.76-2.76-1.53-.07-1.08,1.69a1.29,1.29,0,1,1-2.17-1.38l.28-.44-1.82-.08a1.29,1.29,0,0,1,.11-2.57l1.82.08-.24-.47a1.29,1.29,0,0,1,2.28-1.19l.93,1.78,1.53.07-1.51-2.91a1.29,1.29,0,0,1,2.28-1.19l2.2,4.23,7.31.32.46-.73-1.72-1.1-1.81.94a1.29,1.29,0,1,1-1.19-2.28l.49-.26-1.35-.86a1.29,1.29,0,0,1,1.38-2.17l1.36.87,0-.53a1.29,1.29,0,0,1,2.57.11l-.09,2,1.71,1.09.47-.73-3.38-6.5-4.76-.21a1.29,1.29,0,1,1,.11-2.57l3.27.15-.71-1.36-2-.09a1.29,1.29,0,0,1,.11-2.57l.53,0-.84-1.61a1.29,1.29,0,0,1,2.28-1.19l.84,1.61.28-.44a1.29,1.29,0,0,1,2.17,1.38l-1.08,1.69.71,1.36,1.76-2.76a1.29,1.29,0,1,1,2.17,1.38l-2.56,4,3.36,6.47.88,0,.09-2-1.7-1.09a1.29,1.29,0,1,1,1.38-2.17l.45.29.07-1.61a1.29,1.29,0,0,1,2.57.11l-.07,1.6.49-.26A1.29,1.29,0,0,1,572,133l-1.81.94-.09,2,.88,0,3.92-6.14-2.2-4.23a1.29,1.29,0,1,1,2.28-1.19l1.51,2.91.83-1.29-.93-1.78a1.29,1.29,0,0,1,2.28-1.19l.24.47,1-1.53a1.29,1.29,0,0,1,2.17,1.38l-1,1.53.53,0a1.29,1.29,0,1,1-.11,2.57l-2-.09-.83,1.29,3.27.15a1.29,1.29,0,1,1-.11,2.57l-4.76-.21-3.91,6.13.41.79,1.77-.92.09-2a1.29,1.29,0,0,1,2.57.11l0,.53,1.43-.74a1.29,1.29,0,0,1,1.19,2.28l-1.42.74.47.3a1.29,1.29,0,1,1-1.38,2.17l-1.72-1.1-1.77.92.41.79,7.26.32,2.56-4a1.29,1.29,0,0,1,2.17,1.38l-1.76,2.76,1.53.07,1.08-1.69a1.29,1.29,0,0,1,2.17,1.38l-.28.44,1.82.08a1.29,1.29,0,1,1-.11,2.57l-1.82-.08.24.47a1.29,1.29,0,0,1-2.28,1.19l-.93-1.78-1.53-.07,1.51,2.91a1.29,1.29,0,0,1-2.28,1.19l-2.19-4.22-7.28-.32-.47.74,1.7,1.08,1.81-.94a1.29,1.29,0,0,1,1.19,2.28l-.49.26,1.35.86a1.29,1.29,0,1,1-1.38,2.17l-1.36-.87,0,.53a1.29,1.29,0,0,1-2.57-.11l.09-2-1.69-1.08-.47.74,3.36,6.47,4.76.21a1.29,1.29,0,1,1-.11,2.57l-3.27-.15.71,1.36,2,.09a1.29,1.29,0,1,1-.11,2.57l-.53,0,.84,1.61a1.29,1.29,0,1,1-2.28,1.19l-.84-1.61-.28.44a1.29,1.29,0,1,1-2.17-1.38l1.08-1.69-.71-1.36-1.76,2.76a1.29,1.29,0,1,1-2.17-1.38l2.56-4-3.38-6.5-.86,0-.09,2,1.7,1.09a1.29,1.29,0,1,1-1.38,2.17l-.45-.29-.07,1.61a1.29,1.29,0,1,1-2.57-.11l.07-1.6-.49.26a1.29,1.29,0,1,1-1.19-2.28l1.81-.94.09-2-.86,0-3.94,6.17,2.19,4.22a1.29,1.29,0,0,1-2.28,1.19l-1.51-2.91-.83,1.29.93,1.78a1.29,1.29,0,0,1-2.28,1.19l-.24-.47-1,1.53a1.29,1.29,0,1,1-2.17-1.38Z" transform="translate(-6.2 -106.19)"/></g></svg>